<svg width="75" height="38" viewBox="0 0 75 38" fill="none" xmlns="http://www.w3.org/2000/svg">
<g clip-path="url(#clip0_3819_5622)">
<path d="M60.6899 17.7499C60.2599 18.2899 60.18 18.8999 60.18 19.5299C60.18 21.3399 60.18 23.1599 60.18 24.9699C60.18 25.7499 60.08 26.5199 59.79 27.2399C59.2 28.6799 58.1299 29.5199 56.5999 29.7599C55.9899 29.8599 55.3799 29.8099 54.7799 29.7499C54.1599 29.6899 53.57 29.5299 53 29.2999C52.75 29.2099 52.4999 29.1399 52.2099 29.1199C52.4299 28.6999 52.73 28.4099 53.16 28.2699C53.25 28.2399 53.3399 28.2599 53.4199 28.3099C54.2099 28.8399 55.0899 28.9599 56.0099 28.8599C56.6199 28.7899 57.08 28.4499 57.4 27.9199C57.61 27.5599 57.7199 27.1599 57.7799 26.7399C57.8199 26.4799 57.84 26.2099 57.83 25.9499C57.83 25.7299 57.73 25.6699 57.52 25.7299C57.47 25.7399 57.43 25.7699 57.38 25.7899C56.73 26.1099 56.04 26.1699 55.33 26.1299C54.77 26.0999 54.22 25.9799 53.73 25.6999C52.88 25.2199 52.3399 24.4799 52.0299 23.5699C51.7899 22.8699 51.73 22.1399 51.79 21.4099C51.84 20.8399 51.9499 20.2899 52.1899 19.7699C52.7899 18.4599 53.81 17.7499 55.24 17.6399C55.78 17.5999 56.31 17.6099 56.84 17.7399C57.28 17.8499 57.67 18.0599 58.02 18.3299C58.07 18.3699 58.11 18.4099 58.15 18.4399C58.29 18.5299 58.37 18.5199 58.48 18.3899C58.51 18.3499 58.54 18.3099 58.56 18.2699C58.77 17.8999 59.1 17.7299 59.5 17.6599C59.9 17.5899 60.2799 17.6399 60.6899 17.7599V17.7499ZM57.82 22.1499C57.82 21.4299 57.82 20.6999 57.82 19.9799C57.82 19.9699 57.82 19.9499 57.82 19.9399C57.8 19.3799 57.56 18.9499 57.05 18.6899C56.17 18.2399 55.13 18.5899 54.7 19.4699C54.56 19.7599 54.4699 20.0699 54.4199 20.3899C54.2799 21.2499 54.2899 22.0999 54.4199 22.9599C54.4899 23.4399 54.63 23.8899 54.88 24.3099C55.44 25.2799 56.44 25.4099 57.3 25.1499C57.61 25.0499 57.77 24.8199 57.8 24.4999C57.8 24.4299 57.8 24.3599 57.8 24.2899C57.8 23.5799 57.8 22.8699 57.8 22.1599L57.82 22.1499Z" fill="#8A3F32"/>
<path d="M48.43 14.1899C48.55 14.0499 48.71 13.9999 48.87 13.9699C49.17 13.9199 49.47 13.9199 49.77 13.9799C50.23 14.0799 50.57 14.3499 50.8 14.7499C51 15.0999 51.09 15.4799 51.14 15.8699C51.17 16.1199 51.18 16.3699 51.18 16.6199C51.18 19.1399 51.18 21.6499 51.18 24.1699C51.18 24.4399 51.18 24.6999 51.23 24.9599C51.29 25.2899 51.39 25.5999 51.59 25.8699C51.62 25.9099 51.66 25.9399 51.67 26.0199C51.09 26.1899 50.51 26.2299 49.96 25.9099C49.82 25.8299 49.71 25.7199 49.62 25.5899C49.58 25.5299 49.54 25.4699 49.5 25.4099C49.37 25.2399 49.28 25.2099 49.11 25.3599C48.31 26.0399 47.37 26.2099 46.35 26.1399C45.88 26.1099 45.41 26.0299 44.97 25.8399C44.06 25.4499 43.47 24.7599 43.11 23.8599C42.77 23.0299 42.7 22.1699 42.79 21.2799C42.85 20.6099 43.03 19.9699 43.38 19.3899C44.02 18.3299 44.96 17.7399 46.2 17.6399C46.75 17.5999 47.3 17.6199 47.84 17.7699C48.02 17.8199 48.19 17.8899 48.36 17.9699C48.43 18.0099 48.5 18.0399 48.58 18.0499C48.71 18.0799 48.79 18.0299 48.81 17.8999C48.82 17.8399 48.82 17.7899 48.82 17.7299C48.82 16.9799 48.82 16.2399 48.82 15.4899C48.82 15.2499 48.79 15.0199 48.74 14.7899C48.69 14.5599 48.6 14.3599 48.44 14.1899H48.43ZM48.81 21.6299C48.81 21.3899 48.81 21.1399 48.81 20.8999C48.81 20.4099 48.81 19.9099 48.81 19.4199C48.81 18.9599 48.6 18.7099 48.16 18.5799C48.04 18.5499 47.92 18.5299 47.8 18.5199C46.93 18.4199 46.26 18.7699 45.83 19.5399C45.65 19.8599 45.54 20.2099 45.46 20.5699C45.28 21.4599 45.27 22.3599 45.38 23.2599C45.43 23.6699 45.54 24.0699 45.75 24.4399C45.97 24.8199 46.28 25.0999 46.72 25.1999C46.94 25.2499 47.16 25.2699 47.38 25.2599C48.25 25.1999 48.8 24.6099 48.8 23.7399C48.8 23.0399 48.8 22.3299 48.8 21.6299H48.81Z" fill="#8A3F32"/>
<path d="M42.1801 22.0297C42.1801 22.5497 42.1201 23.0697 41.9601 23.5797C41.5601 24.8297 40.7301 25.6497 39.4601 25.9797C38.4401 26.2497 37.4001 26.2397 36.3801 25.9397C35.1401 25.5697 34.3101 24.7397 33.9001 23.5197C33.5301 22.4197 33.51 21.2897 33.85 20.1797C34.25 18.9097 35.1001 18.0997 36.4001 17.7797C37.3501 17.5497 38.3101 17.5497 39.2501 17.7897C40.6701 18.1597 41.5601 19.0797 41.9701 20.4797C42.1001 20.9297 42.17 21.4997 42.17 22.0297H42.1801ZM36.1801 21.7197C36.2001 22.2997 36.22 22.8897 36.35 23.4597C36.44 23.8697 36.5801 24.2697 36.8401 24.6197C37.3901 25.3797 38.6501 25.4297 39.1901 24.4897C39.3401 24.2297 39.4401 23.9597 39.5001 23.6697C39.7101 22.5497 39.6901 21.4197 39.4801 20.2997C39.4001 19.8697 39.2401 19.4597 38.9701 19.1097C38.4101 18.3897 37.2201 18.4097 36.7001 19.2097C36.5601 19.4197 36.4601 19.6497 36.4001 19.8897C36.2301 20.4897 36.2 21.0997 36.19 21.7297L36.1801 21.7197Z" fill="#8A3F32"/>
<path d="M24.03 22.0401C24.03 22.5601 23.97 23.0901 23.8 23.6101C23.4 24.8401 22.57 25.6401 21.32 25.9801C20.34 26.2401 19.35 26.2401 18.37 25.9801C17.1 25.6401 16.22 24.8301 15.79 23.5901C15.4 22.4901 15.37 21.3701 15.7 20.2501C16.09 18.9301 16.98 18.0901 18.33 17.7801C19.25 17.5701 20.18 17.5701 21.1 17.8001C22.53 18.1701 23.42 19.1001 23.84 20.5001C23.99 21.0001 24.04 21.5101 24.04 22.0501L24.03 22.0401ZM18.03 21.7201C18.03 22.0501 18.05 22.3801 18.08 22.7101C18.12 23.1301 18.19 23.5501 18.33 23.9501C18.44 24.2601 18.58 24.5401 18.81 24.7801C19.42 25.4101 20.44 25.3401 20.95 24.6301C21.09 24.4401 21.18 24.2301 21.25 24.0201C21.36 23.6701 21.43 23.3101 21.45 22.9501C21.5 22.0301 21.51 21.1201 21.3 20.2101C21.21 19.8001 21.06 19.4201 20.79 19.0901C20.26 18.4301 19.14 18.4101 18.6 19.1501C18.44 19.3701 18.33 19.6201 18.25 19.8801C18.07 20.4801 18.05 21.1101 18.04 21.7301L18.03 21.7201Z" fill="#00833B"/>
<path d="M68.77 25.6697C68.26 25.6497 67.8 25.8597 67.31 25.9697C65.9 26.2997 64.52 26.2197 63.2 25.6097C61.73 24.9397 60.93 23.7697 60.77 22.1497C60.71 21.5197 60.75 20.8997 60.92 20.2997C61.27 19.0497 62.1 18.2397 63.33 17.8697C65.14 17.3197 66.78 17.6897 68.24 18.8697C68.6 19.1597 68.59 19.0297 68.52 19.5497C68.39 20.4397 67.97 21.1497 67.21 21.6497C66.46 22.1497 65.63 22.4397 64.74 22.5997C64.47 22.6497 64.19 22.6797 63.92 22.7697C63.43 22.9297 63.32 23.1497 63.47 23.6297C63.71 24.3797 64.22 24.8797 64.95 25.1297C65.87 25.4597 66.78 25.3697 67.65 24.9297C67.79 24.8597 67.91 24.8497 68.05 24.9097C68.36 25.0397 68.61 25.2297 68.74 25.5497C68.74 25.5697 68.75 25.5897 68.76 25.6097C68.76 25.6197 68.76 25.6397 68.75 25.6597L68.77 25.6697ZM66.72 19.6897C66.71 19.3097 66.52 18.9697 66.15 18.7397C65.82 18.5397 65.46 18.4797 65.08 18.5297C64.63 18.5897 64.27 18.7997 63.96 19.1197C63.53 19.5597 63.25 20.0897 63.1 20.6797C63.05 20.8697 63.01 21.0697 63.02 21.2697C63.04 21.5897 63.21 21.7397 63.52 21.7197C64.26 21.6697 64.96 21.4897 65.62 21.1597C65.88 21.0297 66.13 20.8597 66.33 20.6497C66.57 20.3997 66.7 20.0897 66.71 19.6897H66.72Z" fill="#8A3F32"/>
<path d="M8.01006 25.6703C7.44006 25.6603 6.92006 25.9103 6.37006 26.0203C4.96006 26.3003 3.60006 26.1903 2.31006 25.5503C0.940059 24.8703 0.190059 23.7403 0.0300592 22.2203C-0.0399408 21.5603 5.9247e-05 20.9203 0.180059 20.2803C0.540059 19.0303 1.37006 18.2403 2.59006 17.8803C4.33006 17.3603 5.92006 17.6703 7.35006 18.7703C7.47006 18.8603 7.58006 18.9603 7.70006 19.0503C7.78006 19.1103 7.80006 19.1803 7.79006 19.2703C7.72006 20.2703 7.30006 21.0803 6.47006 21.6403C5.73006 22.1503 4.89006 22.4403 4.01006 22.6003C3.74006 22.6503 3.46006 22.6803 3.19006 22.7703C3.09006 22.8003 3.00006 22.8403 2.91006 22.8903C2.68006 23.0303 2.61006 23.1903 2.66006 23.4503C2.79006 24.0203 3.09006 24.4803 3.56006 24.8203C4.12006 25.2203 4.75006 25.3603 5.43006 25.3303C5.97006 25.3103 6.49006 25.1803 6.97006 24.9103C7.03006 24.8803 7.08006 24.8603 7.15006 24.8803C7.54006 24.9903 7.84006 25.2003 7.99006 25.5803C7.99006 25.6003 8.00006 25.6203 8.01006 25.6403C8.01006 25.6403 8.01006 25.6503 8.00006 25.6703H8.01006ZM2.81006 21.7303C2.89006 21.7303 3.02006 21.7103 3.16006 21.6903C3.82006 21.5903 4.45006 21.4103 5.03006 21.0803C5.29006 20.9303 5.53006 20.7503 5.72006 20.5003C6.22006 19.8303 5.97006 18.9203 5.18006 18.6303C4.54006 18.3903 3.95006 18.5003 3.43006 18.9203C2.96006 19.3003 2.65006 19.8103 2.44006 20.3803C2.34006 20.6603 2.27006 20.9603 2.28006 21.2603C2.28006 21.5803 2.45006 21.7303 2.82006 21.7203L2.81006 21.7303Z" fill="#00833B"/>
<path d="M43.07 0.39045C43.15 0.29045 43.26 0.24045 43.37 0.21045C43.99 0.0104499 44.62 -0.0695501 45.25 0.0704499C46.06 0.25045 46.6 0.76045 46.88 1.54045C47.27 2.65045 47.66 3.76045 48.05 4.86045C48.29 5.54045 48.54 6.22045 48.76 6.91045C48.91 7.37045 49.16 7.73045 49.67 7.86045C49.45 8.09045 49.18 8.20045 48.9 8.25045C48.36 8.35045 47.82 8.34045 47.28 8.18045C47.18 8.15045 47.09 8.11045 47 8.07045C46.71 7.93045 46.51 7.71045 46.4 7.40045C46.19 6.77045 45.96 6.14045 45.74 5.51045C45.67 5.32045 45.67 5.32045 45.47 5.32045C44.77 5.32045 44.08 5.32045 43.38 5.32045C43.2 5.32045 43.2 5.32045 43.14 5.49045C43 5.87045 42.87 6.26045 42.74 6.65045C42.71 6.74045 42.69 6.83045 42.67 6.92045C42.57 7.41045 42.77 7.72045 43.25 7.87045C43.23 7.96045 43.15 8.00045 43.08 8.04045C42.89 8.15045 42.69 8.21045 42.47 8.24045C42 8.32045 41.53 8.35045 41.06 8.22045C40.91 8.18045 40.77 8.13045 40.65 8.03045C40.65 7.97045 40.71 7.98045 40.75 7.97045C40.97 7.93045 41.11 7.80045 41.18 7.60045C41.3 7.26045 41.42 6.93045 41.54 6.59045C42.16 4.83045 42.77 3.06045 43.39 1.30045C43.43 1.20045 43.46 1.10045 43.47 0.99045C43.49 0.72045 43.41 0.57045 43.17 0.46045C43.13 0.44045 43.08 0.45045 43.05 0.39045H43.07ZM45.34 4.35045C45.32 4.29045 45.32 4.27045 45.31 4.24045C45.07 3.54045 44.82 2.84045 44.58 2.14045C44.55 2.07045 44.55 1.96045 44.45 1.96045C44.36 1.96045 44.35 2.07045 44.33 2.14045C44.09 2.83045 43.85 3.53045 43.61 4.22045C43.6 4.26045 43.56 4.29045 43.6 4.35045H45.35H45.34Z" fill="#00833B"/>
<path d="M28.16 7.86038C27.97 8.05038 27.76 8.16038 27.53 8.22038C26.91 8.37038 26.3 8.36038 25.69 8.16038C25.28 8.02038 25.01 7.77038 24.88 7.35038C24.68 6.73038 24.46 6.12038 24.24 5.50038C24.18 5.33038 24.18 5.33038 24 5.33038C23.3 5.33038 22.6 5.33038 21.89 5.33038C21.71 5.33038 21.71 5.33038 21.65 5.50038C21.52 5.88038 21.38 6.27038 21.25 6.66038C21.19 6.83038 21.16 7.00038 21.16 7.19038C21.17 7.55038 21.34 7.76038 21.68 7.86038C21.71 7.86038 21.74 7.86038 21.75 7.90038C21.33 8.40038 19.71 8.49038 19.16 8.04038C19.17 8.04038 19.18 8.01038 19.19 8.01038C19.51 7.97038 19.66 7.75038 19.76 7.47038C20.29 5.96038 20.82 4.44038 21.35 2.93038C21.54 2.39038 21.73 1.85038 21.91 1.31038C21.94 1.22038 21.97 1.13038 21.99 1.04038C22.03 0.760384 21.94 0.590384 21.68 0.470384C21.65 0.460384 21.61 0.440384 21.57 0.430384C21.6 0.330384 21.69 0.300384 21.77 0.260384C21.96 0.170384 22.16 0.120384 22.37 0.0903841C22.82 0.0103841 23.28 -0.0296159 23.74 0.0903841C24.53 0.280384 25.08 0.750384 25.35 1.52038C25.82 2.85038 26.29 4.19038 26.76 5.53038C26.94 6.04038 27.12 6.56038 27.3 7.07038C27.44 7.48038 27.71 7.77038 28.17 7.89038L28.16 7.86038ZM23.83 4.35038C23.57 3.60038 23.32 2.88038 23.06 2.15038C23.03 2.08038 23.03 1.97038 22.94 1.97038C22.84 1.97038 22.84 2.08038 22.81 2.15038C22.57 2.83038 22.34 3.51038 22.1 4.19038C22.08 4.24038 22.04 4.29038 22.07 4.35038C22.25 4.37038 23.61 4.37038 23.83 4.35038Z" fill="#00833B"/>
<path d="M34.55 25.5897C34.17 25.4897 33.84 25.5997 33.52 25.7297C33.17 25.8697 32.82 26.0097 32.44 26.0797C32.03 26.1597 31.61 26.1597 31.2 26.1397C30.57 26.1197 29.94 26.0397 29.32 25.9597C28.81 25.8997 28.3 25.9197 27.8 25.9997C27.74 26.0097 27.67 26.0197 27.61 26.0297C27.43 26.0497 27.44 26.0497 27.4 25.8697C27.22 24.9597 27.25 24.0597 27.42 23.1597C27.55 22.4697 27.71 21.7897 27.81 21.0897C27.99 19.7397 28.04 18.3897 27.75 17.0497C27.7 16.8197 27.64 16.5897 27.56 16.3697C27.53 16.2897 27.53 16.2497 27.63 16.2097C28.89 15.7297 29.95 14.9797 30.85 13.9897C30.85 13.9897 30.87 13.9797 30.9 13.9697C30.95 14.1897 30.91 14.3997 30.87 14.5997C30.83 14.8297 30.74 15.0397 30.65 15.2497C30.23 16.1997 30.06 17.1997 29.98 18.2297C29.93 18.8697 29.93 19.5197 29.93 20.1597C29.93 21.0497 30.07 21.9097 30.26 22.7797C30.31 23.0197 30.35 23.2597 30.37 23.4997C30.39 23.8997 30.39 24.2997 30.26 24.6897C30.24 24.7597 30.23 24.8097 30.32 24.8297C31.01 25.0097 31.71 25.1897 32.43 25.1297C32.78 25.0997 33.1 24.9897 33.41 24.8297C33.56 24.7497 33.69 24.7597 33.83 24.8497C34.12 25.0297 34.37 25.2397 34.55 25.5697V25.5897Z" fill="#8A3F32"/>
<path d="M33.05 2.24032C33.14 2.14032 33.21 2.07032 33.27 1.99032C33.43 1.78032 33.41 1.54032 33.21 1.35032C33.15 1.29032 33.08 1.24032 33 1.21032C32.6 1.03032 32.19 1.00032 31.76 1.12032C31.66 1.15032 31.56 1.20032 31.47 1.26032C31.21 1.45032 31.16 1.73032 31.33 1.99032C31.49 2.24032 31.72 2.43032 31.96 2.60032C32.39 2.90032 32.82 3.19032 33.25 3.50032C33.72 3.83032 34.17 4.18032 34.56 4.61032C34.96 5.04032 35.19 5.55032 35.18 6.15032C35.17 6.80032 34.9 7.33032 34.37 7.71032C33.93 8.03032 33.43 8.19032 32.9 8.27032C32.26 8.36032 31.63 8.37032 31 8.23032C30.49 8.12032 30.02 7.91032 29.62 7.57032C29.48 7.45032 29.36 7.31032 29.28 7.13032C29.09 6.71032 29.22 6.31032 29.62 6.08032C29.89 5.93032 30.19 5.85032 30.49 5.78032C30.61 5.75032 30.74 5.73032 30.9 5.70032C30.81 5.81032 30.74 5.89032 30.68 5.98032C30.42 6.35032 30.47 6.74032 30.85 6.99032C31.36 7.33032 31.91 7.37032 32.47 7.11032C32.99 6.87032 33.09 6.34032 32.72 5.90032C32.6 5.76032 32.46 5.64032 32.31 5.52032C31.81 5.13032 31.28 4.79032 30.76 4.43032C30.41 4.19032 30.07 3.94032 29.76 3.65032C29.36 3.26032 29.09 2.79032 29.09 2.21032C29.09 1.49032 29.39 0.930323 30 0.540323C30.46 0.250324 30.97 0.110323 31.5 0.0703235C32.03 0.0303235 32.56 0.0403235 33.08 0.150323C33.42 0.220323 33.74 0.360323 34.01 0.570323C34.4 0.870323 34.49 1.28032 34.28 1.72032C34.2 1.89032 34.06 2.00032 33.89 2.08032C33.71 2.17032 33.31 2.25032 33.05 2.25032V2.24032Z" fill="#00833B"/>
<path d="M15.89 25.6704C15.57 25.6504 15.31 25.7204 15.06 25.8104C13.79 26.2204 12.5 26.2504 11.2 26.0004C9.57002 25.6804 8.61002 24.6504 8.23002 23.0804C7.97002 22.0104 8.01002 20.9304 8.47002 19.9004C9.00002 18.7204 9.91002 18.0004 11.18 17.7404C11.94 17.5804 12.71 17.6104 13.47 17.7104C14.24 17.8104 14.99 17.9904 15.7 18.3004C15.77 18.3304 15.84 18.3704 15.93 18.4104C15.63 18.7104 15.41 19.0604 15.09 19.3104C14.87 19.4804 14.67 19.5604 14.37 19.6104C14.32 19.5804 14.34 19.5404 14.34 19.5004C14.34 19.1404 14.16 18.8804 13.86 18.7204C13.34 18.4404 12.78 18.3404 12.2 18.5004C11.78 18.6104 11.46 18.8604 11.22 19.2204C10.93 19.6404 10.8 20.1104 10.73 20.6104C10.62 21.4904 10.66 22.3604 10.89 23.2104C10.97 23.5004 11.07 23.7804 11.23 24.0404C11.72 24.8304 12.43 25.2504 13.36 25.2704C13.89 25.2804 14.41 25.2104 14.86 24.9004C14.96 24.8304 15.05 24.8704 15.14 24.9204C15.44 25.1004 15.68 25.3404 15.9 25.6704H15.89Z" fill="#00833B"/>
<path d="M39.5699 0.329717C39.3199 0.559717 39.2699 0.849717 39.2299 1.13972C39.2199 1.24972 39.2199 1.34972 39.2199 1.45972C39.2199 3.08972 39.2199 4.70972 39.2199 6.33972C39.2199 6.47972 39.2199 6.62972 39.2399 6.76972C39.2999 7.21972 39.4899 7.58972 39.9399 7.80972C39.8299 7.94972 39.6999 8.02972 39.5599 8.08972C39.3099 8.20972 39.0399 8.25972 38.7699 8.27972C38.0999 8.32972 37.4199 8.32972 36.7599 8.17972C36.5999 8.13972 36.4399 8.08972 36.2899 7.99972C36.5799 7.69972 36.6399 7.32972 36.6399 6.94972C36.6399 5.81972 36.6399 4.68972 36.6399 3.54972C36.6399 3.00972 36.6399 2.45972 36.6399 1.91972C36.6399 1.79972 36.6399 1.67972 36.6199 1.55972C36.5599 1.09972 36.3699 0.739717 35.9399 0.519717C35.9999 0.399717 36.1099 0.349717 36.2099 0.289717C36.4399 0.169717 36.6899 0.109717 36.9499 0.079717C37.5799 -0.000282981 38.2199 -0.020283 38.8599 0.059717C39.1099 0.089717 39.3499 0.169717 39.5699 0.329717Z" fill="#00833B"/>
<path d="M20.91 16.5097C21.01 16.4197 21.1 16.3197 21.2 16.2397C22.2 15.3697 23.35 14.7797 24.61 14.3897C25.72 14.0397 26.87 13.8797 28.03 13.8197C28.92 13.7797 29.81 13.7797 30.7 13.7897C30.72 13.8697 30.65 13.8897 30.61 13.9197C29.8 14.5497 28.9 15.0397 27.95 15.4497C26.92 15.8997 25.85 16.2497 24.73 16.4297C24.28 16.4997 23.82 16.5397 23.36 16.5797C22.82 16.6297 22.27 16.6397 21.73 16.6297C21.49 16.6297 21.26 16.5897 21.02 16.5797C20.98 16.5797 20.93 16.5797 20.89 16.5197L20.91 16.5097Z" fill="#00833B"/>
<path d="M22.75 12.16C25.47 11.97 28.08 12.33 30.53 13.57C30.53 13.58 30.53 13.6 30.53 13.61C30.39 13.6 30.25 13.59 30.1 13.58C29.96 13.57 29.81 13.56 29.67 13.55C28.76 13.48 27.85 13.45 26.94 13.51C26.64 13.53 26.34 13.56 26.05 13.62C25.96 13.64 25.87 13.63 25.78 13.62C25.17 13.5 24.6 13.27 24.06 12.98C23.64 12.76 23.23 12.5 22.82 12.25C22.8 12.24 22.77 12.23 22.76 12.16H22.75Z" fill="#00833B"/>
<path d="M74.17 15.3197C74.15 16.2197 73.55 17.0397 72.64 17.2497C71.8 17.4397 71.06 17.2197 70.46 16.5997C69.54 15.6697 69.83 14.1697 70.71 13.4797C71.57 12.8097 72.78 12.9297 73.47 13.5797C73.94 14.0197 74.17 14.5597 74.17 15.3097V15.3197ZM72.07 16.9297C73.07 16.9297 73.81 16.1897 73.81 15.1997C73.81 14.1797 73.05 13.3897 72.05 13.3997C71.12 13.3997 70.25 14.0197 70.24 15.1997C70.24 16.1797 71.03 16.9297 72.07 16.9297Z" fill="#8A3F32"/>
<path d="M10.08 33.21C10 33.61 9.93004 33.97 9.86004 34.34C9.95004 34.33 9.96004 34.26 9.99004 34.22C10.17 33.96 10.38 33.72 10.61 33.51C10.79 33.35 10.99 33.23 11.22 33.17C11.31 33.15 11.4 33.14 11.5 33.15C11.71 33.17 11.87 33.32 11.91 33.53C11.95 33.72 11.91 33.9 11.89 34.08C11.88 34.16 11.86 34.25 11.84 34.34C11.92 34.33 11.94 34.27 11.97 34.23C12.16 33.96 12.37 33.7 12.62 33.49C12.79 33.34 12.98 33.23 13.2 33.17C13.66 33.06 13.95 33.3 13.92 33.77C13.9 33.98 13.86 34.19 13.81 34.41C13.68 35.03 13.56 35.66 13.44 36.28C13.42 36.4 13.38 36.46 13.25 36.44C13.11 36.42 12.93 36.51 12.85 36.4C12.78 36.31 12.88 36.14 12.9 36.01C13.02 35.38 13.15 34.75 13.28 34.11C13.3 33.98 13.34 33.84 13.21 33.76C13.08 33.68 12.98 33.78 12.88 33.85C12.72 33.97 12.59 34.11 12.46 34.25C12.2 34.54 11.97 34.85 11.73 35.16C11.66 35.25 11.64 35.35 11.62 35.46C11.56 35.75 11.5 36.03 11.45 36.32C11.43 36.41 11.4 36.44 11.31 36.44C11.2 36.44 11.08 36.44 10.97 36.44C10.84 36.44 10.83 36.43 10.86 36.3C10.92 36 10.98 35.71 11.04 35.42C11.13 34.98 11.22 34.54 11.31 34.09C11.33 33.97 11.36 33.84 11.23 33.76C11.11 33.69 11.01 33.77 10.92 33.84C10.81 33.92 10.71 34.01 10.62 34.11C10.3 34.44 10.03 34.81 9.76004 35.18C9.70004 35.26 9.68004 35.36 9.66004 35.46C9.60004 35.75 9.54004 36.03 9.49004 36.32C9.47004 36.41 9.44004 36.44 9.35004 36.44C9.24004 36.44 9.12004 36.44 9.01004 36.44C8.88004 36.44 8.87004 36.43 8.90004 36.3C8.95004 36.02 9.01004 35.74 9.07004 35.46C9.21004 34.77 9.35004 34.07 9.49004 33.38C9.52004 33.22 9.52004 33.22 9.70004 33.21C9.83004 33.21 9.96004 33.21 10.12 33.21H10.08Z" fill="#00833B"/>
<path d="M30.6301 32.9707C30.5601 33.3007 30.5101 33.5707 30.4501 33.8507C30.2901 34.6607 30.1301 35.4607 29.9701 36.2707C29.9401 36.4307 29.9401 36.4307 29.7801 36.4307C29.6701 36.4307 29.5501 36.4307 29.4401 36.4307C29.3801 36.3707 29.4101 36.3107 29.4201 36.2607C29.6901 34.9007 29.9601 33.5407 30.2301 32.1707C30.2601 32.0107 30.2601 32.0107 30.4201 32.0107C30.5301 32.0107 30.6401 32.0107 30.7401 32.0107C30.8401 32.0107 30.8901 32.0407 30.9301 32.1407C31.0601 32.4607 31.2001 32.7707 31.3401 33.0907C31.6501 33.8107 31.9601 34.5207 32.2801 35.2407C32.3101 35.3007 32.3201 35.3807 32.4001 35.4407C32.4201 35.3607 32.4401 35.3007 32.4501 35.2407C32.6501 34.2207 32.8601 33.2007 33.0601 32.1907C33.0901 32.0307 33.0901 32.0307 33.2501 32.0307C33.3701 32.0307 33.4901 32.0207 33.6301 32.0407C33.5601 32.3807 33.5001 32.7007 33.4401 33.0307C33.2301 34.0807 33.0201 35.1407 32.8101 36.1907C32.8101 36.2307 32.7901 36.2707 32.7801 36.3207C32.7801 36.4207 32.7201 36.4507 32.6201 36.4407C32.4601 36.4307 32.2801 36.4907 32.1501 36.4207C32.0301 36.3507 32.0101 36.1607 31.9501 36.0307C31.5401 35.1007 31.1401 34.1707 30.7301 33.2307C30.7001 33.1607 30.6601 33.0907 30.6101 32.9807L30.6301 32.9707Z" fill="#00833B"/>
<path d="M65.54 36.4401C65.62 36.0401 65.69 35.6701 65.76 35.2701C65.66 35.3101 65.63 35.3801 65.59 35.4401C65.35 35.7701 65.08 36.0801 64.73 36.3001C64.55 36.4201 64.35 36.5001 64.13 36.4901C63.95 36.4901 63.81 36.4101 63.71 36.2801C63.58 36.1101 63.51 35.9101 63.53 35.7001C63.59 34.7501 63.99 33.9801 64.77 33.4301C65.15 33.1601 65.58 33.0801 66.04 33.1801C66.24 33.2201 66.44 33.2101 66.64 33.2101C66.78 33.2101 66.78 33.2101 66.76 33.3401C66.56 34.3301 66.36 35.3201 66.17 36.3101C66.15 36.4001 66.12 36.4501 66.02 36.4401C65.88 36.4401 65.73 36.4401 65.55 36.4401H65.54ZM64.15 35.5401C64.15 35.6701 64.15 35.8101 64.28 35.8801C64.4 35.9501 64.52 35.9001 64.62 35.8301C64.72 35.7701 64.81 35.7001 64.89 35.6201C65.27 35.2801 65.58 34.8701 65.88 34.4701C65.91 34.4301 65.93 34.3901 65.94 34.3301C65.98 34.1501 66.01 33.9701 66.06 33.7801C66.08 33.6901 66.04 33.6501 65.96 33.6201C65.74 33.5401 65.53 33.5401 65.31 33.6201C65.08 33.7101 64.89 33.8501 64.74 34.0301C64.38 34.4601 64.2 34.9701 64.14 35.5201L64.15 35.5401Z" fill="#00833B"/>
<path d="M37.1 33.2408C37.03 33.5908 36.97 33.9408 36.89 34.3008C36.76 34.9308 36.64 35.5608 36.51 36.1908C36.51 36.2408 36.48 36.2908 36.48 36.3408C36.48 36.4108 36.43 36.4308 36.36 36.4308C36.23 36.4308 36.1 36.4308 35.97 36.4308C35.88 36.4308 35.86 36.3908 35.88 36.3108C35.94 36.0408 35.99 35.7808 36.04 35.5108C36.04 35.4708 36.06 35.4208 36.06 35.3808C36.06 35.3408 36.02 35.3108 35.98 35.3508C35.94 35.3908 35.91 35.4408 35.87 35.4808C35.64 35.7908 35.39 36.0708 35.07 36.2808C34.88 36.4008 34.68 36.4908 34.45 36.4908C34.27 36.4908 34.13 36.4108 34.03 36.2808C33.9 36.1208 33.84 35.9308 33.84 35.7208C33.84 35.4508 33.89 35.1908 33.98 34.9408C34.15 34.4708 34.39 34.0408 34.75 33.6908C35.21 33.2408 35.75 33.0408 36.4 33.1808C36.58 33.2208 36.77 33.2008 36.96 33.2108C37 33.2108 37.05 33.2008 37.09 33.2508L37.1 33.2408ZM34.49 35.5108C34.49 35.5108 34.49 35.5508 34.49 35.5708C34.49 35.8808 34.67 35.9808 34.94 35.8408C35.06 35.7808 35.17 35.6908 35.26 35.5908C35.62 35.2508 35.92 34.8608 36.22 34.4608C36.25 34.4208 36.27 34.3708 36.28 34.3308C36.32 34.1508 36.35 33.9608 36.39 33.7808C36.41 33.6808 36.38 33.6508 36.3 33.6208C36.13 33.5708 35.97 33.5408 35.79 33.5808C35.53 33.6408 35.31 33.7808 35.13 33.9708C34.73 34.4008 34.54 34.9208 34.47 35.5008L34.49 35.5108ZM36.09 35.2908C36.09 35.2908 36.08 35.2608 36.06 35.2508C36.06 35.2608 36.04 35.2708 36.04 35.2808C36.03 35.3008 36.04 35.3208 36.05 35.3208C36.07 35.3208 36.08 35.3108 36.09 35.2808V35.2908Z" fill="#00833B"/>
<path d="M4.71002 35.6802C4.67002 36.0135 4.50002 36.2268 4.20002 36.3202C3.78002 36.4502 3.36002 36.5402 2.91002 36.5302C1.99002 36.5302 1.38002 35.9502 1.34002 35.0402C1.30002 34.0202 1.68002 33.1702 2.44002 32.4902C2.89002 32.0902 3.42002 31.9202 4.02002 31.9102C4.42002 31.9102 4.81002 31.9402 5.19002 32.0202C5.36002 32.0502 5.36002 32.0502 5.33002 32.2302C5.31002 32.3202 5.29002 32.4102 5.28002 32.5002C5.27002 32.5702 5.23002 32.5902 5.16002 32.5702C5.02002 32.5302 4.88002 32.5002 4.74002 32.4602C4.43002 32.3802 4.12002 32.3602 3.80002 32.4002C3.37002 32.4402 3.00002 32.6302 2.72002 32.9602C2.22002 33.5402 1.96002 34.2202 2.01002 34.9902C2.05002 35.5902 2.44002 35.9802 3.04002 36.0202C3.42002 36.0502 3.78002 35.9902 4.14002 35.8702C4.32002 35.8102 4.50002 35.7402 4.70002 35.6702L4.71002 35.6802Z" fill="#00833B"/>
<path d="M42 35.3505C41.8 35.6405 41.6 35.9305 41.34 36.1705C41.13 36.3605 40.9 36.5105 40.59 36.5005C40.34 36.5005 40.17 36.3505 40.13 36.1005C40.1 35.9105 40.1 35.7305 40.13 35.5405C40.27 34.8205 40.42 34.1105 40.56 33.3905C40.6 33.2005 40.6 33.2005 40.79 33.2005C40.92 33.2005 41.05 33.2005 41.19 33.2005C41.19 33.4005 41.13 33.5805 41.1 33.7605C40.99 34.3405 40.86 34.9205 40.75 35.5105C40.75 35.5605 40.73 35.6105 40.73 35.6605C40.73 35.8905 40.86 35.9705 41.07 35.8605C41.21 35.7805 41.32 35.6705 41.42 35.5505C41.72 35.1905 41.98 34.8005 42.23 34.4105C42.29 34.3205 42.3 34.2105 42.32 34.1005C42.37 33.8505 42.42 33.6005 42.47 33.3405C42.49 33.2405 42.53 33.1905 42.64 33.2005C42.79 33.2105 42.94 33.2005 43.1 33.2005C43.01 33.6705 42.92 34.1105 42.83 34.5505C42.72 35.1005 42.61 35.6605 42.49 36.2105C42.45 36.4305 42.45 36.4305 42.24 36.4305C42.12 36.4305 41.95 36.4905 41.88 36.3905C41.82 36.3105 41.91 36.1605 41.93 36.0405C41.97 35.8205 42.01 35.6005 42.05 35.3905C42.06 35.3505 42.09 35.3105 42.05 35.2905C42.03 35.2905 42.02 35.3205 42 35.3505Z" fill="#00833B"/>
<path d="M15.17 33.6604C15 33.6104 14.84 33.6604 14.69 33.6204C14.69 33.6004 14.67 33.5904 14.67 33.5804C14.7 33.4604 14.67 33.3104 14.76 33.2304C14.85 33.1504 14.99 33.1904 15.11 33.2004C15.26 33.2104 15.27 33.1204 15.29 33.0204C15.36 32.6704 15.53 32.3704 15.78 32.1104C16.2 31.6804 16.7 31.6004 17.26 31.7204C17.35 31.7404 17.38 31.7904 17.35 31.8704C17.35 31.8904 17.35 31.9104 17.34 31.9304C17.29 32.1704 17.29 32.1704 17.05 32.1304C16.97 32.1204 16.89 32.1004 16.82 32.1004C16.51 32.0804 16.28 32.2104 16.11 32.4604C15.97 32.6704 15.91 32.9104 15.85 33.1804H16.7C16.73 33.3104 16.67 33.4104 16.66 33.5204C16.66 33.5904 16.61 33.6304 16.53 33.6304C16.34 33.6304 16.16 33.6304 15.97 33.6304C15.83 33.6304 15.7467 33.6971 15.72 33.8304C15.48 35.0304 15.24 36.2304 15 37.4304C14.98 37.5438 14.9067 37.6038 14.78 37.6104C14.65 37.6104 14.52 37.6104 14.37 37.6104C14.63 36.2804 14.9 34.9704 15.16 33.6604H15.17Z" fill="#00833B"/>
<path d="M19.83 34.2609C19.81 34.9409 19.57 35.5309 19.1 36.0209C18.7 36.4309 18.2 36.5609 17.64 36.4809C17.17 36.4209 16.85 36.0509 16.83 35.5409C16.8 34.7409 17.09 34.0509 17.69 33.5209C18.06 33.1909 18.51 33.1009 18.99 33.1609C19.47 33.2209 19.78 33.5609 19.83 34.0509C19.83 34.1209 19.83 34.1909 19.83 34.2609ZM17.46 35.2809C17.46 35.3409 17.46 35.4309 17.48 35.5209C17.48 35.5809 17.5 35.6309 17.52 35.6909C17.6 35.9309 17.78 36.0609 18.04 36.0609C18.28 36.0609 18.49 35.9609 18.65 35.7909C19.11 35.3009 19.28 34.7109 19.18 34.0509C19.13 33.6909 18.84 33.5209 18.48 33.5909C18.23 33.6409 18.05 33.7809 17.9 33.9709C17.61 34.3409 17.46 34.7709 17.45 35.2809H17.46Z" fill="#00833B"/>
<path d="M5.35999 35.3908C5.37999 34.7408 5.59999 34.1908 6.00999 33.7208C6.39999 33.2708 6.89999 33.0908 7.48998 33.1508C7.95998 33.1908 8.25999 33.4908 8.34999 33.9408C8.38999 34.1508 8.37999 34.3508 8.34999 34.5608C8.25999 35.1108 8.02999 35.6008 7.64999 36.0008C7.24999 36.4208 6.73999 36.5508 6.17999 36.4808C5.74999 36.4208 5.43999 36.0908 5.37999 35.6408C5.36999 35.5508 5.36999 35.4508 5.35999 35.3908ZM7.73998 34.3808C7.73998 34.2708 7.73999 34.1508 7.70999 34.0408C7.61999 33.6708 7.35998 33.5108 6.98998 33.6008C6.78998 33.6508 6.61998 33.7608 6.48998 33.9208C6.23998 34.2208 6.07999 34.5608 6.01999 34.9408C5.97999 35.1608 5.96999 35.3808 6.01999 35.6008C6.09999 35.9608 6.36999 36.1308 6.71999 36.0508C6.96999 36.0008 7.15999 35.8408 7.30999 35.6408C7.58999 35.2708 7.72998 34.8508 7.73998 34.3808Z" fill="#00833B"/>
<path d="M58.12 36.5008C58.02 36.5008 57.92 36.5008 57.82 36.4808C57.39 36.4008 57.08 36.0808 57.04 35.6308C56.97 34.7908 57.26 34.0808 57.88 33.5208C58.26 33.1808 58.73 33.0908 59.23 33.1608C59.66 33.2308 59.93 33.5108 60.01 33.9408C60.07 34.2608 60.03 34.5808 59.94 34.8908C59.83 35.2708 59.65 35.6208 59.39 35.9208C59.06 36.3008 58.63 36.5008 58.12 36.5008ZM59.41 34.3808C59.41 34.2708 59.41 34.1508 59.38 34.0408C59.29 33.6708 59.03 33.5108 58.66 33.5908C58.46 33.6408 58.29 33.7508 58.16 33.9108C57.91 34.2008 57.75 34.5508 57.69 34.9308C57.65 35.1508 57.64 35.3708 57.69 35.5908C57.77 35.9508 58.03 36.1208 58.39 36.0408C58.64 35.9908 58.83 35.8308 58.98 35.6408C59.26 35.2708 59.4 34.8508 59.41 34.3808Z" fill="#00833B"/>
<path d="M49.2501 35.5301C49.2201 35.6801 49.1801 35.7901 49.1801 35.9101C49.1801 36.0801 49.0801 36.1501 48.9301 36.2101C48.5101 36.3901 48.0801 36.5101 47.6201 36.4901C47.0601 36.4701 46.6601 36.1201 46.6301 35.5601C46.5801 34.6501 46.9401 33.9201 47.6801 33.3801C47.9301 33.2001 48.2201 33.1301 48.5301 33.1201C49.0201 33.1201 49.3901 33.3801 49.2201 34.0501C49.1501 34.3401 48.9601 34.5601 48.7201 34.7301C48.3501 35.0001 47.9301 35.1301 47.4901 35.1901C47.1801 35.2301 47.1701 35.2401 47.2601 35.5501C47.3501 35.8501 47.5601 36.0201 47.8801 36.0101C48.2701 36.0001 48.6201 35.8601 48.9601 35.6901C49.0501 35.6401 49.1301 35.5901 49.2501 35.5301ZM47.2801 34.7801C47.6701 34.7501 48.0201 34.6901 48.3301 34.4801C48.4801 34.3801 48.6001 34.2401 48.6601 34.0701C48.7401 33.8301 48.5901 33.6101 48.3401 33.6201C48.2101 33.6201 48.0901 33.6601 47.9801 33.7301C47.5901 33.9701 47.3701 34.3201 47.2901 34.7901L47.2801 34.7801Z" fill="#00833B"/>
<path d="M55.25 32.0205C55.18 32.3905 55.11 32.7305 55.04 33.0805C54.86 33.9705 54.68 34.8605 54.51 35.7505C54.51 35.7705 54.51 35.7905 54.51 35.8105C54.49 35.9505 54.49 35.9505 54.64 35.9605C55.18 35.9605 55.73 35.9605 56.27 35.9605C56.35 35.9605 56.43 35.9505 56.5 35.9705C56.5 35.9805 56.52 36.0005 56.51 36.0105C56.48 36.1505 56.51 36.3305 56.4 36.4105C56.3 36.4905 56.14 36.4305 56 36.4305C55.33 36.4305 54.65 36.4305 53.98 36.4305C53.91 36.4305 53.84 36.4505 53.76 36.4105C53.76 36.1905 53.83 35.9805 53.87 35.7605C54.1 34.5705 54.34 33.3905 54.58 32.2105C54.62 32.0205 54.62 32.0205 54.81 32.0205C54.95 32.0205 55.08 32.0205 55.25 32.0205Z" fill="#00833B"/>
<path d="M63.1701 33.6903C63.0101 33.6703 62.8701 33.6103 62.7201 33.5903C62.2901 33.5203 61.9201 33.6403 61.6301 33.9703C61.2501 34.3903 61.0901 34.9003 61.1301 35.4503C61.1501 35.8603 61.4601 36.0803 61.8801 36.0003C62.2101 35.9403 62.5201 35.8103 62.8301 35.6203C62.8401 35.8203 62.7801 35.9803 62.7501 36.1503C62.7501 36.2003 62.7001 36.2103 62.6601 36.2303C62.2701 36.3903 61.8801 36.5103 61.4501 36.4903C60.9701 36.4703 60.6101 36.1903 60.5301 35.7203C60.3001 34.4503 61.2701 33.3203 62.2401 33.1603C62.5601 33.1103 62.8701 33.1503 63.1801 33.2103C63.2401 33.2203 63.2701 33.2403 63.2501 33.3103C63.2201 33.4303 63.2001 33.5603 63.1701 33.6903Z" fill="#00833B"/>
<path d="M38.28 33.6703C38.19 33.6303 38.11 33.6503 38.03 33.6503C37.95 33.6503 37.87 33.6503 37.8 33.6403C37.8 33.6203 37.79 33.6003 37.79 33.5903C37.82 33.4703 37.79 33.3203 37.88 33.2403C37.96 33.1703 38.1 33.2203 38.21 33.2103C38.37 33.2103 38.37 33.2103 38.41 33.0503C38.42 32.9903 38.44 32.9203 38.45 32.8603C38.5 32.6303 38.5 32.6303 38.72 32.6003C38.84 32.5903 38.96 32.5803 39.1 32.5703C39.06 32.7603 39.03 32.9303 38.99 33.1003C38.97 33.1803 38.99 33.2203 39.08 33.2203C39.26 33.2203 39.44 33.2203 39.62 33.2203C39.71 33.2203 39.73 33.2403 39.72 33.3303C39.68 33.6503 39.68 33.6503 39.36 33.6503C39.25 33.6503 39.14 33.6503 39.04 33.6503C38.92 33.6403 38.88 33.6903 38.86 33.8003C38.78 34.2503 38.68 34.7003 38.6 35.1503C38.57 35.3203 38.53 35.4903 38.51 35.6603C38.47 35.9603 38.6 36.0903 38.9 36.0803C38.99 36.0803 39.08 36.0503 39.19 36.0403C39.18 36.1103 39.17 36.1703 39.16 36.2303C39.12 36.4703 39.09 36.5003 38.85 36.5103C38.7 36.5103 38.55 36.5203 38.4 36.4703C38.08 36.3703 37.91 36.1403 37.91 35.8003C37.91 35.4703 38.01 35.1603 38.06 34.8503C38.13 34.4603 38.21 34.0803 38.29 33.6803L38.28 33.6703Z" fill="#00833B"/>
<path d="M24.76 36.0105C24.75 36.0905 24.74 36.1505 24.73 36.2005C24.68 36.4505 24.65 36.4805 24.4 36.4905C24.25 36.4905 24.1 36.4905 23.95 36.4505C23.65 36.3505 23.48 36.1305 23.48 35.8105C23.48 35.4805 23.57 35.1605 23.63 34.8405C23.7 34.4505 23.78 34.0705 23.86 33.6705C23.7 33.6105 23.53 33.6705 23.38 33.6305C23.38 33.6105 23.37 33.6005 23.37 33.5805C23.4033 33.3339 23.5433 33.2105 23.79 33.2105C23.8967 33.2105 23.9633 33.1572 23.99 33.0505C24.01 32.9805 24.02 32.9105 24.03 32.8405C24.07 32.6305 24.07 32.6305 24.28 32.6005C24.41 32.5805 24.53 32.5805 24.68 32.5605C24.65 32.7305 24.62 32.8705 24.6 33.0205C24.57 33.2005 24.57 33.2005 24.76 33.2005C24.91 33.2005 25.06 33.2005 25.21 33.2005C25.29 33.2005 25.32 33.2205 25.31 33.3105C25.27 33.6305 25.27 33.6305 24.95 33.6305C24.84 33.6305 24.73 33.6305 24.63 33.6305C24.51 33.6305 24.47 33.6605 24.44 33.7805C24.36 34.2305 24.26 34.6805 24.18 35.1305C24.15 35.3005 24.11 35.4705 24.09 35.6405C24.05 35.9405 24.18 36.0705 24.48 36.0605C24.57 36.0605 24.66 36.0305 24.77 36.0205L24.76 36.0105Z" fill="#00833B"/>
<path d="M44.9901 33.2106C44.9401 33.4806 44.8801 33.7306 44.8401 33.9806C44.8201 34.0806 44.7301 34.2206 44.8401 34.2606C44.9201 34.3006 44.9701 34.1406 45.0301 34.0606C45.2401 33.8006 45.4701 33.5506 45.7401 33.3506C45.9701 33.1806 46.2201 33.1106 46.5201 33.1506C46.5201 33.3706 46.4501 33.5706 46.4101 33.7806C46.3901 33.7806 46.3801 33.8006 46.3701 33.8006C46.0701 33.7306 45.8401 33.8406 45.6301 34.0406C45.3701 34.2806 45.1601 34.5806 44.9301 34.8506C44.6801 35.1406 44.5301 35.4706 44.4901 35.8506C44.4701 36.0106 44.4301 36.1706 44.4001 36.3306C44.3801 36.4106 44.3501 36.4506 44.2601 36.4506C44.1401 36.4506 44.0201 36.4506 43.9001 36.4506C43.8101 36.4506 43.7901 36.4206 43.8101 36.3306C43.8801 36.0006 43.9401 35.6706 44.0101 35.3406C44.1401 34.7006 44.2601 34.0606 44.3901 33.4306C44.3901 33.3906 44.4101 33.3506 44.4201 33.3006C44.4201 33.2406 44.4601 33.2106 44.5201 33.2106C44.6801 33.2106 44.8501 33.2106 45.0301 33.2106H44.9901ZM44.8301 34.3206C44.8301 34.3206 44.8101 34.2906 44.8001 34.2906C44.7801 34.2906 44.7701 34.3206 44.7701 34.3406C44.7701 34.3506 44.7901 34.3606 44.7901 34.3706C44.8001 34.3506 44.8101 34.3306 44.8201 34.3206H44.8301Z" fill="#00833B"/>
<path d="M21.55 33.2104C21.49 33.4904 21.43 33.7504 21.39 34.0104C21.38 34.1004 21.28 34.2304 21.39 34.2704C21.46 34.3004 21.51 34.1504 21.56 34.0904C21.78 33.8204 22 33.5604 22.28 33.3604C22.51 33.1904 22.76 33.1204 23.06 33.1604C23.06 33.3804 22.99 33.5804 22.95 33.8104C22.53 33.7004 22.25 33.9304 22 34.2104C21.71 34.5304 21.45 34.8804 21.19 35.2304C21.15 35.2804 21.13 35.3404 21.12 35.4004C21.07 35.6804 21.01 35.9604 20.95 36.2404C20.91 36.4404 20.91 36.4404 20.7 36.4404C20.64 36.4404 20.59 36.4404 20.53 36.4404C20.26 36.4404 20.32 36.4404 20.36 36.2204C20.42 35.8504 20.5 35.4904 20.58 35.1304C20.69 34.5604 20.8 33.9904 20.92 33.4304C20.97 33.1904 20.92 33.2304 21.18 33.2204C21.3 33.2204 21.42 33.2204 21.56 33.2204L21.55 33.2104ZM21.39 34.3204C21.39 34.3204 21.37 34.2904 21.36 34.2904C21.34 34.2904 21.33 34.3204 21.33 34.3404C21.33 34.3504 21.35 34.3604 21.35 34.3704C21.36 34.3504 21.37 34.3304 21.38 34.3204H21.39Z" fill="#00833B"/>
<path d="M68.8401 31.7402C68.7701 32.1002 68.7101 32.4202 68.6401 32.7402C68.4101 33.8802 68.1801 35.0302 67.9601 36.1702C67.9268 36.3436 67.8268 36.4336 67.6601 36.4402C67.3101 36.4402 67.3101 36.4402 67.3801 36.0902C67.6501 34.7402 67.9201 33.3802 68.1901 32.0302C68.2501 31.7502 68.2401 31.7502 68.5401 31.7502C68.6301 31.7502 68.7201 31.7502 68.8501 31.7502L68.8401 31.7402Z" fill="#00833B"/>
<path d="M26.46 35.7004C26.41 35.9304 26.37 36.1404 26.33 36.3504C26.32 36.4104 26.29 36.4304 26.23 36.4304C26.04 36.4304 25.86 36.4304 25.67 36.4304C25.61 36.4304 25.58 36.4104 25.59 36.3404C25.63 36.1504 25.66 35.9604 25.7 35.7704C25.7 35.7304 25.73 35.6904 25.78 35.6904C26 35.6904 26.22 35.6904 26.46 35.6904V35.7004Z" fill="#00833B"/>
<path d="M49.9 36.44C49.95 36.2 49.99 36 50.03 35.79C50.04 35.73 50.07 35.71 50.13 35.71C50.32 35.71 50.5 35.71 50.69 35.71C50.75 35.71 50.79 35.73 50.77 35.8C50.73 35.99 50.7 36.18 50.66 36.37C50.66 36.41 50.63 36.45 50.58 36.45C50.36 36.45 50.14 36.45 49.91 36.45L49.9 36.44Z" fill="#00833B"/>
<path d="M36.0901 35.2907C36.0901 35.2907 36.0701 35.3307 36.0501 35.3307C36.0301 35.3307 36.0201 35.3107 36.0401 35.2907C36.0401 35.2807 36.0601 35.2707 36.0601 35.2607C36.0701 35.2707 36.1001 35.2807 36.0901 35.3007V35.2907Z" fill="#00833B"/>
<path d="M42 35.35C42 35.35 42.03 35.28 42.05 35.29C42.1 35.31 42.07 35.36 42.05 35.39C42.03 35.38 42.02 35.36 42 35.35Z" fill="#00833B"/>
<path d="M44.83 34.32C44.83 34.32 44.81 34.36 44.8 34.37C44.8 34.36 44.78 34.35 44.78 34.34C44.78 34.32 44.79 34.3 44.81 34.29C44.81 34.29 44.83 34.31 44.84 34.32H44.83Z" fill="#00833B"/>
<path d="M21.39 34.32C21.39 34.32 21.37 34.36 21.36 34.37C21.36 34.36 21.34 34.35 21.34 34.34C21.34 34.32 21.35 34.3 21.37 34.29C21.37 34.29 21.39 34.31 21.4 34.32H21.39Z" fill="#00833B"/>
<path d="M72.3999 15.2501C72.5599 15.5301 72.7099 15.8101 72.8699 16.0901C72.9299 16.2001 72.9199 16.2201 72.7899 16.2301C72.6199 16.2501 72.4799 16.1901 72.3699 16.0601C72.2599 15.9301 72.1799 15.7801 72.0999 15.6201C72.0399 15.5101 71.9899 15.4001 71.9299 15.3001C71.9099 15.2601 71.8799 15.2201 71.8299 15.2401C71.7899 15.2501 71.7499 15.2801 71.7399 15.3301C71.7399 15.3901 71.7299 15.4601 71.7299 15.5201C71.7299 15.6701 71.7299 15.8201 71.7199 15.9701C71.7199 16.0301 71.7199 16.1201 71.6299 16.1501C71.5299 16.1801 71.4299 16.1601 71.3499 16.0901C71.2999 16.0401 71.2799 15.9901 71.2599 15.9201C71.2299 15.8101 71.2199 15.7101 71.2299 15.6001C71.2799 15.1601 71.2699 14.7101 71.2899 14.2701C71.2899 14.1601 71.3199 14.1101 71.4399 14.1301C71.5799 14.1501 71.7199 14.0801 71.8699 14.0801C71.9899 14.0801 72.1099 14.0801 72.2299 14.0801C72.5399 14.1101 72.7599 14.3301 72.8099 14.6301C72.8399 14.8101 72.7799 14.9601 72.6399 15.0701C72.5599 15.1301 72.4799 15.1801 72.3899 15.2501H72.3999ZM71.6899 14.6701C71.6899 14.9301 71.7899 15.0501 71.9899 15.0201C72.1099 15.0101 72.2099 14.9501 72.2799 14.8501C72.3799 14.7001 72.3399 14.5501 72.1799 14.4701C72.0499 14.4001 71.9099 14.4201 71.7799 14.4401C71.7299 14.4401 71.7099 14.4901 71.6999 14.5301C71.6999 14.5901 71.6899 14.6401 71.6799 14.6701H71.6899Z" fill="#8A3F32"/>
</g>
<defs>
<clipPath id="clip0_3819_5622">
<rect width="74.17" height="37.61" fill="white"/>
</clipPath>
</defs>
</svg>
