<svg width="47" height="22" viewBox="0 0 47 22" fill="none" xmlns="http://www.w3.org/2000/svg">
<path d="M46.9 7.46038C46.89 8.02038 46.51 8.53038 45.95 8.66038C45.43 8.78038 44.97 8.64038 44.6 8.26038C44.03 7.69038 44.21 6.75038 44.76 6.33038C45.29 5.92038 46.05 5.99038 46.47 6.39038C46.76 6.66038 46.91 7.00038 46.9 7.47038V7.46038ZM45.6 8.46038C46.22 8.46038 46.68 8.00038 46.68 7.38038C46.68 6.75038 46.21 6.26038 45.59 6.26038C45.01 6.26038 44.47 6.65038 44.47 7.38038C44.47 7.99038 44.96 8.45038 45.61 8.45038L45.6 8.46038Z" fill="white"/>
<path d="M7.15992 18.55C7.10992 18.8 7.06992 19.02 7.02992 19.25C7.07992 19.25 7.08992 19.2 7.10992 19.17C7.21992 19.01 7.34992 18.86 7.49992 18.73C7.60992 18.63 7.72992 18.55 7.87992 18.52C7.93992 18.51 7.98992 18.5 8.04992 18.51C8.17992 18.52 8.27992 18.61 8.29992 18.75C8.31992 18.87 8.29992 18.98 8.27992 19.09C8.27992 19.14 8.25992 19.19 8.24992 19.25C8.29992 19.25 8.30992 19.21 8.32992 19.18C8.44992 19.01 8.57992 18.85 8.72992 18.72C8.83992 18.63 8.94991 18.56 9.08991 18.52C9.36991 18.45 9.55992 18.6 9.52992 18.89C9.52992 19.02 9.48992 19.15 9.45992 19.28C9.37992 19.67 9.29992 20.05 9.22992 20.44C9.21992 20.52 9.18992 20.55 9.10992 20.54C9.01992 20.53 8.90992 20.58 8.85992 20.51C8.81992 20.45 8.87992 20.35 8.88992 20.27C8.96992 19.88 9.04992 19.49 9.11992 19.09C9.13992 19.01 9.15992 18.92 9.07992 18.87C8.99992 18.82 8.93992 18.88 8.87992 18.93C8.77992 19 8.69992 19.09 8.61992 19.18C8.45992 19.36 8.31992 19.55 8.16992 19.74C8.12992 19.8 8.10992 19.86 8.09992 19.92C8.05992 20.1 8.02992 20.28 7.98992 20.46C7.98992 20.51 7.95992 20.54 7.89992 20.53C7.82992 20.53 7.75992 20.53 7.68992 20.53C7.60992 20.53 7.60992 20.53 7.61992 20.44C7.65992 20.26 7.68992 20.07 7.72992 19.89C7.78992 19.62 7.83992 19.34 7.89992 19.07C7.90992 19 7.92992 18.91 7.84992 18.86C7.77992 18.82 7.70992 18.86 7.65992 18.91C7.58992 18.96 7.52992 19.02 7.46992 19.08C7.26992 19.29 7.09992 19.51 6.92992 19.74C6.88992 19.79 6.87992 19.85 6.86992 19.91C6.82992 20.09 6.79992 20.27 6.75992 20.45C6.75992 20.5 6.72992 20.53 6.66992 20.52C6.59992 20.52 6.52992 20.52 6.45992 20.52C6.37992 20.52 6.37992 20.52 6.38992 20.43C6.41992 20.26 6.45992 20.08 6.48992 19.91C6.57992 19.48 6.65992 19.05 6.74992 18.62C6.76992 18.52 6.76992 18.52 6.87992 18.52C6.95992 18.52 7.03992 18.52 7.13992 18.52L7.15992 18.55Z" fill="white"/>
<path d="M19.9099 18.4005C19.8699 18.6005 19.8299 18.7705 19.7999 18.9505C19.6999 19.4505 19.5999 19.9505 19.4999 20.4505C19.4799 20.5505 19.4799 20.5505 19.3799 20.5505C19.3099 20.5505 19.2399 20.5505 19.1699 20.5505C19.1299 20.5105 19.1499 20.4805 19.1599 20.4405C19.3299 19.6005 19.4999 18.7505 19.6699 17.9105C19.6899 17.8105 19.6899 17.8105 19.7899 17.8105C19.8599 17.8105 19.9199 17.8105 19.9899 17.8105C20.0499 17.8105 20.0799 17.8305 20.1099 17.8905C20.1899 18.0905 20.2799 18.2805 20.3599 18.4805C20.5499 18.9205 20.7499 19.3705 20.9399 19.8105C20.9599 19.8505 20.9599 19.8905 21.0199 19.9305C21.0299 19.8805 21.0399 19.8405 21.0499 19.8005C21.1799 19.1705 21.2999 18.5405 21.4299 17.9105C21.4499 17.8105 21.4499 17.8105 21.5499 17.8105C21.6199 17.8105 21.6999 17.8105 21.7799 17.8105C21.7399 18.0205 21.6999 18.2205 21.6599 18.4305C21.5299 19.0805 21.3999 19.7405 21.2699 20.3905C21.2699 20.4205 21.2599 20.4405 21.2499 20.4705C21.2499 20.5305 21.2099 20.5505 21.1499 20.5505C21.0499 20.5505 20.9399 20.5805 20.8599 20.5305C20.7799 20.4905 20.7699 20.3705 20.7399 20.2905C20.4899 19.7105 20.2399 19.1305 19.9899 18.5605C19.9699 18.5205 19.9499 18.4705 19.9199 18.4005H19.9099Z" fill="white"/>
<path d="M41.5499 20.5502C41.5999 20.3002 41.6399 20.0702 41.6899 19.8302C41.6299 19.8602 41.6099 19.9002 41.5899 19.9302C41.4399 20.1402 41.2699 20.3302 41.0599 20.4702C40.9499 20.5402 40.8299 20.5902 40.6899 20.5902C40.5799 20.5902 40.4899 20.5402 40.4299 20.4602C40.3499 20.3502 40.3099 20.2302 40.3199 20.1002C40.3599 19.5102 40.6099 19.0302 41.0899 18.6902C41.3199 18.5202 41.5899 18.4702 41.8799 18.5302C41.9999 18.5602 42.1299 18.5502 42.2499 18.5502C42.3399 18.5502 42.3399 18.5502 42.3199 18.6302C42.1999 19.2402 42.0699 19.8602 41.9499 20.4702C41.9399 20.5302 41.9199 20.5602 41.8499 20.5502C41.7599 20.5502 41.6699 20.5502 41.5599 20.5502H41.5499ZM40.6899 19.9902C40.6899 20.0702 40.6899 20.1602 40.7699 20.2002C40.8399 20.2402 40.9199 20.2102 40.9799 20.1702C41.0399 20.1302 41.0999 20.0902 41.1499 20.0402C41.3799 19.8302 41.5799 19.5802 41.7699 19.3202C41.7899 19.2902 41.7999 19.2702 41.8099 19.2402C41.8299 19.1302 41.8599 19.0102 41.8799 18.9002C41.8899 18.8402 41.8699 18.8202 41.8199 18.8002C41.6799 18.7502 41.5499 18.7502 41.4199 18.8002C41.2799 18.8502 41.1599 18.9402 41.0699 19.0502C40.8499 19.3202 40.7299 19.6302 40.6899 19.9702V19.9902Z" fill="white"/>
<path d="M23.9199 18.5704C23.8799 18.7804 23.8399 19.0104 23.7899 19.2304C23.7099 19.6204 23.6299 20.0104 23.5499 20.4004C23.5499 20.4304 23.5299 20.4604 23.5299 20.4904C23.5299 20.5404 23.4999 20.5504 23.4599 20.5504C23.3799 20.5504 23.2999 20.5504 23.2199 20.5504C23.1599 20.5504 23.1499 20.5304 23.1699 20.4704C23.2099 20.3104 23.2399 20.1404 23.2699 19.9704C23.2699 19.9404 23.2799 19.9204 23.2799 19.8904C23.2799 19.8704 23.2599 19.8504 23.2299 19.8704C23.1999 19.8904 23.1899 19.9204 23.1599 19.9504C23.0199 20.1404 22.8599 20.3104 22.6599 20.4504C22.5399 20.5304 22.4199 20.5804 22.2699 20.5804C22.1599 20.5804 22.0699 20.5304 22.0099 20.4504C21.9299 20.3504 21.8899 20.2304 21.8899 20.1004C21.8899 19.9304 21.9199 19.7704 21.9799 19.6204C22.0799 19.3304 22.2299 19.0604 22.4599 18.8404C22.7499 18.5604 23.0799 18.4404 23.4799 18.5204C23.5899 18.5404 23.7099 18.5304 23.8299 18.5404C23.8599 18.5404 23.8799 18.5404 23.9099 18.5604L23.9199 18.5704ZM22.2999 19.9804C22.2999 19.9804 22.2999 20.0104 22.2999 20.0204C22.2999 20.2104 22.4099 20.2804 22.5799 20.1904C22.6499 20.1504 22.7199 20.1004 22.7799 20.0404C22.9999 19.8304 23.1899 19.5904 23.3799 19.3404C23.3999 19.3204 23.4099 19.2904 23.4199 19.2604C23.4399 19.1504 23.4599 19.0304 23.4899 18.9204C23.5099 18.8604 23.4899 18.8404 23.4299 18.8204C23.3299 18.7904 23.2199 18.7704 23.1199 18.7904C22.9599 18.8304 22.8199 18.9104 22.7099 19.0304C22.4599 19.3004 22.3399 19.6204 22.2999 19.9804ZM23.2899 19.8404C23.2899 19.8404 23.2899 19.8204 23.2699 19.8204C23.2699 19.8204 23.2699 19.8304 23.2599 19.8404C23.2599 19.8504 23.2599 19.8704 23.2599 19.8704C23.2699 19.8704 23.2799 19.8704 23.2799 19.8504L23.2899 19.8404Z" fill="white"/>
<path d="M3.82993 20.0802C3.80326 20.2869 3.69659 20.4202 3.50992 20.4802C3.24992 20.5602 2.98992 20.6102 2.70992 20.6102C2.13992 20.6102 1.75992 20.2502 1.72992 19.6802C1.69992 19.0502 1.93992 18.5202 2.40992 18.1002C2.68992 17.8502 3.01992 17.7502 3.38992 17.7402C3.63992 17.7402 3.87992 17.7602 4.11992 17.8102C4.21992 17.8302 4.21993 17.8302 4.19993 17.9402C4.18993 18.0002 4.17992 18.0502 4.16992 18.1102C4.16992 18.1502 4.13992 18.1702 4.08992 18.1602C3.99992 18.1402 3.91993 18.1202 3.82993 18.0902C3.63993 18.0402 3.43992 18.0302 3.24992 18.0502C2.97992 18.0802 2.74993 18.1902 2.57993 18.4002C2.26993 18.7602 2.10992 19.1802 2.13992 19.6602C2.15992 20.0302 2.39992 20.2702 2.77992 20.3002C3.00992 20.3202 3.23992 20.2802 3.45992 20.2102C3.56992 20.1702 3.68993 20.1302 3.80993 20.0902L3.82993 20.0802Z" fill="white"/>
<path d="M26.9499 19.8808C26.8299 20.0608 26.6999 20.2408 26.5399 20.3908C26.4099 20.5108 26.2599 20.6008 26.0799 20.5908C25.9299 20.5908 25.8199 20.5008 25.7899 20.3408C25.7699 20.2308 25.7699 20.1108 25.7899 20.0008C25.8799 19.5608 25.9699 19.1108 26.0599 18.6708C26.0799 18.5508 26.0799 18.5508 26.1999 18.5508C26.2799 18.5508 26.3599 18.5508 26.4399 18.5508C26.4399 18.6708 26.3999 18.7808 26.3799 18.9008C26.3099 19.2608 26.2299 19.6208 26.1599 19.9808C26.1599 20.0108 26.1499 20.0408 26.1499 20.0708C26.1499 20.2108 26.2299 20.2608 26.3599 20.1908C26.4499 20.1408 26.5099 20.0708 26.5799 20.0008C26.7699 19.7808 26.9199 19.5408 27.0799 19.3008C27.1199 19.2408 27.1199 19.1708 27.1399 19.1108C27.1699 18.9508 27.1999 18.8008 27.2299 18.6408C27.2399 18.5808 27.2699 18.5508 27.3399 18.5508C27.4299 18.5508 27.5199 18.5508 27.6299 18.5508C27.5699 18.8408 27.5199 19.1108 27.4599 19.3908C27.3899 19.7308 27.3199 20.0808 27.2499 20.4208C27.2199 20.5608 27.2199 20.5608 27.0899 20.5508C27.0099 20.5508 26.9099 20.5908 26.8699 20.5308C26.8299 20.4808 26.8899 20.3908 26.8999 20.3108C26.9299 20.1808 26.9499 20.0408 26.9799 19.9108C26.9799 19.8908 26.9999 19.8608 26.9799 19.8508C26.9699 19.8508 26.9599 19.8708 26.9499 19.8908V19.8808Z" fill="white"/>
<path d="M10.32 18.8304C10.22 18.8004 10.12 18.8304 10.02 18.8104C10.02 18.8004 10.01 18.7904 10.02 18.7804C10.04 18.7104 10.02 18.6104 10.08 18.5704C10.13 18.5204 10.22 18.5504 10.3 18.5504C10.39 18.5504 10.4 18.5004 10.41 18.4404C10.45 18.2204 10.56 18.0304 10.71 17.8704C10.97 17.6004 11.28 17.5504 11.63 17.6304C11.68 17.6404 11.7 17.6704 11.69 17.7204C11.69 17.7304 11.69 17.7504 11.69 17.7604C11.66 17.9104 11.66 17.9104 11.51 17.8804C11.46 17.8804 11.41 17.8604 11.36 17.8604C11.17 17.8504 11.02 17.9304 10.92 18.0904C10.83 18.2204 10.79 18.3704 10.76 18.5404H11.29C11.31 18.6204 11.27 18.6804 11.27 18.7504C11.27 18.8004 11.24 18.8204 11.19 18.8204C11.07 18.8204 10.96 18.8204 10.84 18.8204C10.7533 18.8204 10.7033 18.8604 10.69 18.9404C10.54 19.6804 10.39 20.4304 10.24 21.1704C10.2266 21.2437 10.18 21.2804 10.1 21.2804C10.02 21.2804 9.93998 21.2804 9.84998 21.2804C10.01 20.4604 10.18 19.6404 10.34 18.8304H10.32Z" fill="white"/>
<path d="M13.2099 19.2007C13.1999 19.6207 13.0499 19.9907 12.7599 20.2907C12.5099 20.5507 12.1999 20.6207 11.8599 20.5807C11.5699 20.5407 11.3699 20.3107 11.3599 19.9907C11.3399 19.4907 11.5199 19.0707 11.8899 18.7307C12.1199 18.5307 12.3999 18.4707 12.6999 18.5107C12.9999 18.5507 13.1899 18.7607 13.2199 19.0607C13.2199 19.1007 13.2199 19.1507 13.2199 19.1907L13.2099 19.2007ZM11.7399 19.8307C11.7399 19.8307 11.7399 19.9207 11.7399 19.9807C11.7399 20.0107 11.7499 20.0507 11.7699 20.0807C11.8199 20.2307 11.9299 20.3107 12.0899 20.3107C12.2399 20.3107 12.3699 20.2507 12.4699 20.1407C12.7599 19.8307 12.8599 19.4707 12.7999 19.0607C12.7699 18.8407 12.5899 18.7307 12.3699 18.7807C12.2199 18.8107 12.0999 18.9007 12.0099 19.0207C11.8299 19.2507 11.7399 19.5207 11.7299 19.8307H11.7399Z" fill="white"/>
<path d="M4.22998 19.8999C4.23998 19.4999 4.37998 19.1599 4.62998 18.8599C4.86998 18.5799 5.17998 18.4699 5.54998 18.4999C5.83998 18.5299 6.02998 18.7099 6.07998 18.9899C6.09998 19.1199 6.09998 19.2499 6.07998 19.3699C6.02998 19.7099 5.87998 20.0099 5.63998 20.2699C5.38998 20.5299 5.07998 20.6099 4.72998 20.5699C4.45998 20.5299 4.26998 20.3299 4.23998 20.0499C4.23998 19.9899 4.23998 19.9399 4.22998 19.8899V19.8999ZM5.70998 19.2799C5.70998 19.2099 5.70998 19.1399 5.68998 19.0699C5.62998 18.8399 5.46998 18.7399 5.23998 18.7899C5.10998 18.8199 5.00998 18.8899 4.92998 18.9899C4.76998 19.1699 4.67998 19.3799 4.63998 19.6199C4.61998 19.7599 4.60998 19.8899 4.63998 20.0299C4.68998 20.2499 4.84998 20.3599 5.07998 20.3099C5.23998 20.2799 5.34998 20.1799 5.44998 20.0599C5.61998 19.8299 5.70998 19.5699 5.71998 19.2799H5.70998Z" fill="white"/>
<path d="M36.9499 20.5905C36.8899 20.5905 36.8299 20.5905 36.7599 20.5805C36.4899 20.5305 36.2999 20.3305 36.2799 20.0505C36.2399 19.5305 36.4199 19.0905 36.7999 18.7405C37.0399 18.5305 37.3299 18.4705 37.6299 18.5205C37.8999 18.5605 38.0599 18.7405 38.1099 19.0005C38.1499 19.2005 38.1199 19.4005 38.0699 19.5905C37.9999 19.8305 37.8899 20.0405 37.7299 20.2305C37.5199 20.4705 37.2599 20.5905 36.9399 20.5905H36.9499ZM37.7499 19.2805C37.7499 19.2105 37.7499 19.1405 37.7299 19.0705C37.6699 18.8405 37.5099 18.7405 37.2799 18.7905C37.1499 18.8205 37.0499 18.8905 36.9699 18.9905C36.8099 19.1705 36.7199 19.3805 36.6799 19.6205C36.6599 19.7605 36.6499 19.8905 36.6799 20.0305C36.7299 20.2505 36.8899 20.3605 37.1199 20.3105C37.2799 20.2805 37.3899 20.1805 37.4899 20.0605C37.6599 19.8305 37.7499 19.5705 37.7599 19.2805H37.7499Z" fill="white"/>
<path d="M31.4499 19.99C31.4299 20.09 31.4099 20.15 31.4099 20.22C31.4099 20.33 31.3499 20.37 31.2599 20.41C30.9999 20.52 30.7299 20.59 30.4499 20.59C30.0999 20.58 29.8599 20.36 29.8399 20.01C29.8099 19.44 30.0299 18.99 30.4899 18.66C30.6499 18.55 30.8199 18.5 31.0199 18.5C31.3199 18.5 31.5499 18.66 31.4499 19.08C31.4099 19.26 31.2899 19.39 31.1399 19.5C30.9099 19.66 30.6499 19.75 30.3699 19.78C30.1799 19.81 30.1699 19.81 30.2299 20C30.2799 20.19 30.4099 20.29 30.6099 20.28C30.8499 20.28 31.0699 20.19 31.2799 20.08C31.3299 20.05 31.3899 20.02 31.4599 19.98L31.4499 19.99ZM30.2299 19.53C30.4699 19.51 30.6899 19.48 30.8799 19.34C30.9699 19.28 31.0499 19.19 31.0899 19.08C31.1399 18.93 31.0399 18.8 30.8899 18.8C30.8099 18.8 30.7299 18.83 30.6599 18.87C30.4199 19.02 30.2799 19.24 30.2299 19.52V19.53Z" fill="white"/>
<path d="M35.17 17.8105C35.12 18.0405 35.08 18.2505 35.04 18.4705C34.93 19.0205 34.82 19.5705 34.71 20.1305C34.71 20.1405 34.71 20.1605 34.71 20.1705C34.7 20.2605 34.7 20.2605 34.79 20.2605C35.13 20.2605 35.46 20.2605 35.8 20.2605C35.85 20.2605 35.9 20.2605 35.94 20.2605C35.94 20.2605 35.95 20.2805 35.94 20.2805C35.92 20.3605 35.94 20.4805 35.87 20.5305C35.81 20.5805 35.71 20.5405 35.62 20.5405C35.2 20.5405 34.79 20.5405 34.37 20.5405C34.33 20.5405 34.28 20.5505 34.23 20.5305C34.23 20.3905 34.27 20.2605 34.3 20.1305C34.45 19.4005 34.59 18.6605 34.74 17.9305C34.76 17.8105 34.76 17.8105 34.88 17.8105C34.96 17.8105 35.05 17.8105 35.15 17.8105H35.17Z" fill="white"/>
<path d="M40.08 18.8502C39.98 18.8402 39.89 18.8002 39.8 18.7902C39.53 18.7502 39.3 18.8202 39.13 19.0202C38.9 19.2802 38.8 19.5902 38.82 19.9402C38.83 20.2002 39.03 20.3302 39.28 20.2802C39.49 20.2402 39.68 20.1702 39.87 20.0502C39.87 20.1702 39.84 20.2702 39.82 20.3802C39.82 20.4102 39.79 20.4202 39.76 20.4302C39.52 20.5302 39.28 20.6002 39.01 20.5902C38.71 20.5802 38.49 20.4002 38.44 20.1102C38.3 19.3302 38.9 18.6202 39.5 18.5202C39.7 18.4902 39.89 18.5202 40.08 18.5502C40.11 18.5502 40.14 18.5702 40.13 18.6102C40.11 18.6902 40.1 18.7602 40.08 18.8502Z" fill="white"/>
<path d="M24.65 18.8304C24.59 18.8104 24.54 18.8204 24.49 18.8104C24.44 18.8104 24.39 18.8104 24.35 18.8104C24.35 18.8004 24.35 18.7904 24.35 18.7804C24.37 18.7104 24.35 18.6104 24.41 18.5704C24.46 18.5204 24.55 18.5604 24.62 18.5504C24.72 18.5504 24.72 18.5504 24.74 18.4504C24.74 18.4104 24.76 18.3704 24.76 18.3304C24.79 18.1904 24.79 18.1904 24.93 18.1704C25 18.1704 25.08 18.1604 25.16 18.1504C25.14 18.2704 25.12 18.3704 25.09 18.4804C25.08 18.5304 25.09 18.5504 25.15 18.5504C25.26 18.5504 25.37 18.5504 25.48 18.5504C25.53 18.5504 25.55 18.5704 25.54 18.6204C25.51 18.8204 25.51 18.8204 25.32 18.8204C25.25 18.8204 25.19 18.8204 25.12 18.8204C25.05 18.8204 25.02 18.8404 25.01 18.9104C24.96 19.1904 24.9 19.4704 24.85 19.7504C24.83 19.8504 24.81 19.9604 24.79 20.0604C24.77 20.2404 24.85 20.3304 25.03 20.3204C25.09 20.3204 25.14 20.3004 25.21 20.2904C25.21 20.3304 25.2 20.3704 25.19 20.4104C25.16 20.5604 25.14 20.5804 25 20.5904C24.91 20.5904 24.81 20.5904 24.72 20.5704C24.52 20.5104 24.42 20.3704 24.42 20.1504C24.42 19.9504 24.48 19.7604 24.52 19.5604C24.56 19.3204 24.61 19.0804 24.66 18.8404L24.65 18.8304Z" fill="white"/>
<path d="M16.2599 20.2902C16.2599 20.2902 16.2499 20.3702 16.2399 20.4102C16.2099 20.5602 16.1899 20.5802 16.0299 20.5902C15.9399 20.5902 15.8399 20.5902 15.7499 20.5602C15.5599 20.5002 15.4599 20.3602 15.4599 20.1602C15.4599 19.9502 15.5199 19.7602 15.5599 19.5602C15.5999 19.3202 15.6499 19.0802 15.6999 18.8402C15.5999 18.8002 15.4999 18.8402 15.3999 18.8202C15.3999 18.8102 15.3999 18.8002 15.3999 18.7902C15.4199 18.6368 15.5066 18.5602 15.6599 18.5602C15.8132 18.5602 15.8532 18.5268 15.7799 18.4602C15.7799 18.4602 15.7999 18.3702 15.8099 18.3302C15.8399 18.2002 15.8399 18.2002 15.9599 18.1802C16.0399 18.1802 16.1199 18.1702 16.2099 18.1602C16.1899 18.2602 16.1699 18.3502 16.1599 18.4502C16.1399 18.5602 16.1399 18.5602 16.2599 18.5602C16.3499 18.5602 16.4499 18.5602 16.5399 18.5602C16.5899 18.5602 16.6099 18.5702 16.5999 18.6302C16.5699 18.8302 16.5799 18.8302 16.3799 18.8302C16.3099 18.8302 16.2499 18.8302 16.1799 18.8302C16.1099 18.8302 16.0799 18.8502 16.0699 18.9202C16.0199 19.2002 15.9599 19.4802 15.9099 19.7602C15.8899 19.8602 15.8699 19.9702 15.8499 20.0702C15.8299 20.2502 15.9099 20.3402 16.0899 20.3302C16.1499 20.3302 16.1999 20.3102 16.2699 20.3002L16.2599 20.2902Z" fill="white"/>
<path d="M28.8099 18.55C28.7799 18.72 28.7399 18.87 28.7199 19.03C28.7099 19.09 28.6499 19.18 28.7199 19.21C28.7699 19.23 28.7999 19.13 28.8399 19.09C28.9699 18.93 29.1099 18.77 29.2799 18.65C29.4199 18.55 29.5799 18.5 29.7599 18.52C29.7599 18.66 29.7099 18.78 29.6899 18.91C29.6799 18.91 29.6699 18.92 29.6599 18.92C29.4799 18.88 29.3299 18.95 29.1999 19.07C29.0399 19.22 28.9099 19.41 28.7599 19.57C28.5999 19.75 28.5099 19.95 28.4799 20.19C28.4699 20.29 28.4399 20.39 28.4199 20.49C28.4199 20.54 28.3899 20.57 28.3299 20.56C28.2499 20.56 28.1799 20.56 28.0999 20.56C28.0399 20.56 28.0299 20.54 28.0399 20.49C28.0799 20.29 28.1199 20.08 28.1599 19.88C28.2399 19.48 28.3199 19.09 28.3999 18.69C28.3999 18.66 28.4099 18.64 28.4199 18.61C28.4199 18.57 28.4399 18.56 28.4799 18.56C28.5799 18.56 28.6799 18.56 28.7999 18.56L28.8099 18.55ZM28.7099 19.24C28.7099 19.24 28.6999 19.22 28.6899 19.22C28.6799 19.22 28.6699 19.24 28.6699 19.25C28.6699 19.25 28.6699 19.26 28.6799 19.27C28.6799 19.26 28.6899 19.25 28.6999 19.24H28.7099Z" fill="white"/>
<path d="M14.2699 18.5504C14.2299 18.7204 14.1999 18.8804 14.1699 19.0404C14.1699 19.0904 14.0999 19.1704 14.1699 19.2004C14.2099 19.2204 14.2399 19.1304 14.2799 19.0904C14.4099 18.9204 14.5499 18.7604 14.7299 18.6404C14.8699 18.5404 15.0299 18.4904 15.2099 18.5204C15.2099 18.6604 15.1599 18.7804 15.1399 18.9204C14.8799 18.8504 14.7099 18.9904 14.5499 19.1704C14.3699 19.3704 14.2099 19.5904 14.0499 19.8104C14.0299 19.8404 14.0099 19.8804 13.9999 19.9204C13.9699 20.0904 13.9299 20.2704 13.8999 20.4404C13.8799 20.5604 13.8799 20.5604 13.7499 20.5604C13.7099 20.5604 13.6799 20.5604 13.6399 20.5604C13.4699 20.5604 13.5099 20.5604 13.5299 20.4204C13.5699 20.1904 13.6199 19.9704 13.6599 19.7404C13.7299 19.3904 13.7999 19.0404 13.8699 18.6804C13.8999 18.5304 13.8699 18.5504 14.0299 18.5504C14.0999 18.5504 14.1799 18.5504 14.2699 18.5504ZM14.1699 19.2404C14.1699 19.2404 14.1599 19.2204 14.1499 19.2204C14.1399 19.2204 14.1299 19.2404 14.1299 19.2504C14.1299 19.2504 14.1299 19.2604 14.1399 19.2704C14.1399 19.2604 14.1499 19.2504 14.1599 19.2404H14.1699Z" fill="white"/>
<path d="M43.5899 17.6399C43.5499 17.8599 43.5099 18.0599 43.4699 18.2599C43.3299 18.9699 43.1899 19.6799 43.0499 20.3899C43.0299 20.4965 42.9666 20.5499 42.8599 20.5499C42.6399 20.5499 42.6399 20.5499 42.6799 20.3299C42.8499 19.4899 43.0099 18.6499 43.1799 17.8099C43.2099 17.6299 43.2099 17.6299 43.3999 17.6299C43.4599 17.6299 43.5099 17.6299 43.5899 17.6299V17.6399Z" fill="white"/>
<path d="M17.3199 20.1008C17.2899 20.2508 17.2599 20.3708 17.2399 20.5008C17.2399 20.5408 17.2099 20.5508 17.1799 20.5508C17.0699 20.5508 16.9499 20.5508 16.8399 20.5508C16.7999 20.5508 16.7799 20.5408 16.7899 20.4908C16.8099 20.3708 16.8399 20.2608 16.8599 20.1408C16.8599 20.1108 16.8799 20.0908 16.9099 20.0908C17.0499 20.0908 17.1799 20.0908 17.3299 20.0908L17.3199 20.1008Z" fill="white"/>
<path d="M31.85 20.5506C31.88 20.4006 31.91 20.2806 31.93 20.1506C31.93 20.1106 31.96 20.1006 31.99 20.1006C32.1 20.1006 32.22 20.1006 32.33 20.1006C32.37 20.1006 32.39 20.1106 32.38 20.1506C32.36 20.2706 32.34 20.3806 32.31 20.5006C32.31 20.5306 32.29 20.5506 32.26 20.5506C32.12 20.5506 31.99 20.5506 31.84 20.5506H31.85Z" fill="white"/>
<path d="M23.29 19.8405C23.29 19.8405 23.28 19.8705 23.27 19.8605C23.26 19.8605 23.25 19.8405 23.27 19.8305C23.27 19.8305 23.27 19.8205 23.28 19.8105C23.28 19.8105 23.3 19.8105 23.3 19.8305L23.29 19.8405Z" fill="white"/>
<path d="M26.95 19.8808C26.95 19.8808 26.97 19.8408 26.98 19.8408C27.01 19.8508 26.99 19.8808 26.98 19.9008C26.97 19.9008 26.96 19.8808 26.95 19.8708V19.8808Z" fill="white"/>
<path d="M28.7099 19.2407C28.7099 19.2407 28.6999 19.2607 28.6899 19.2707C28.6899 19.2707 28.6799 19.2607 28.6799 19.2507C28.6799 19.2407 28.6799 19.2307 28.6999 19.2207C28.6999 19.2207 28.7099 19.2207 28.7199 19.2407H28.7099Z" fill="white"/>
<path d="M14.1699 19.2407C14.1699 19.2407 14.1599 19.2607 14.1499 19.2707C14.1499 19.2707 14.1399 19.2607 14.1399 19.2507C14.1399 19.2407 14.1399 19.2307 14.1599 19.2207C14.1599 19.2207 14.1699 19.2207 14.1799 19.2407H14.1699Z" fill="white"/>
<path d="M45.81 7.41043C45.91 7.59043 46 7.76043 46.1 7.93043C46.14 8.00043 46.13 8.01043 46.05 8.02043C45.94 8.03043 45.86 7.99043 45.79 7.92043C45.72 7.84043 45.67 7.74043 45.62 7.65043C45.59 7.58043 45.55 7.52043 45.52 7.45043C45.51 7.43043 45.49 7.40043 45.46 7.41043C45.43 7.41043 45.41 7.44043 45.41 7.46043C45.41 7.50043 45.41 7.54043 45.41 7.58043C45.41 7.67043 45.41 7.77043 45.41 7.86043C45.41 7.90043 45.41 7.96043 45.35 7.97043C45.29 7.99043 45.23 7.97043 45.18 7.93043C45.15 7.90043 45.14 7.87043 45.13 7.83043C45.11 7.76043 45.11 7.70043 45.11 7.63043C45.14 7.36043 45.13 7.08043 45.15 6.81043C45.15 6.74043 45.17 6.71043 45.24 6.72043C45.33 6.73043 45.41 6.69043 45.5 6.69043C45.58 6.69043 45.65 6.69043 45.73 6.69043C45.92 6.71043 46.06 6.84043 46.09 7.03043C46.11 7.14043 46.07 7.23043 45.99 7.30043C45.94 7.34043 45.89 7.37043 45.83 7.41043H45.81ZM45.37 7.05043C45.37 7.21043 45.43 7.28043 45.56 7.27043C45.63 7.27043 45.69 7.23043 45.74 7.16043C45.8 7.07043 45.78 6.98043 45.68 6.93043C45.6 6.89043 45.52 6.90043 45.43 6.91043C45.4 6.91043 45.39 6.94043 45.38 6.97043C45.38 7.01043 45.38 7.04043 45.38 7.05043H45.37Z" fill="white"/>
<path d="M26.95 11.3702C26.93 10.5802 26.7 9.9402 26.26 9.4702C25.78 8.9502 25.1 8.7002 24.21 8.7002C23.32 8.7002 22.66 8.9502 22.21 9.4602C21.79 9.9302 21.59 10.5702 21.61 11.3602C21.63 12.1502 21.86 12.7902 22.29 13.2602C22.77 13.7802 23.44 14.0302 24.33 14.0302C25.22 14.0302 25.89 13.7802 26.35 13.2702C26.77 12.8002 26.97 12.1602 26.95 11.3702ZM24.89 13.2402C24.74 13.3702 24.55 13.4402 24.33 13.4402C23.25 13.4402 23.22 11.8802 23.2 11.3702C23.18 10.4102 23.34 9.7902 23.68 9.5002C23.84 9.3702 24.03 9.3002 24.25 9.3002C25.32 9.3002 25.35 10.8502 25.36 11.3702C25.38 12.3402 25.23 12.9502 24.89 13.2502" fill="white"/>
<path d="M37.2799 9.00059C37.1899 9.12059 37.1399 9.26059 37.0399 9.26059C36.9599 9.26059 36.9099 9.20059 36.8199 9.13059C36.3699 8.80059 35.9699 8.71059 35.3999 8.71059C34.5599 8.71059 33.9399 8.99059 33.4999 9.55059C33.1199 10.0506 32.93 10.6906 32.94 11.4606C32.95 12.1706 33.16 12.7806 33.55 13.2406C33.99 13.7706 34.5799 14.0306 35.3599 14.0306C35.8399 14.0306 36.17 13.9506 36.44 13.8106C36.64 13.7106 36.7399 13.7306 36.7399 13.9206C36.7399 15.1306 36.21 15.7606 35.37 15.7606C34.53 15.7606 34.14 15.5006 33.91 15.3506C33.63 15.3706 33.3 15.6906 33.23 15.9006C33.75 15.9006 34.0499 16.3206 35.5399 16.3206C37.0299 16.3206 38.2099 15.2806 38.2099 13.3206V10.0506C38.2099 9.56059 38.2299 9.13059 38.5299 8.77059C37.8799 8.58059 37.4399 8.77059 37.2799 8.98059M35.9199 13.4706C35.0599 13.4706 34.58 12.7006 34.55 11.3306C34.53 10.3906 34.6999 9.78059 35.0599 9.46059C35.2499 9.30059 35.49 9.23059 35.76 9.23059C36.4 9.23059 36.7399 9.67059 36.7399 10.1406V12.8806C36.7399 13.2806 36.5199 13.4606 35.9199 13.4606" fill="white"/>
<path d="M32.58 12.6804V8.03039C32.58 6.83039 32.08 6.40039 31.41 6.40039C31.02 6.40039 30.91 6.51039 30.86 6.56039C31.02 6.68039 31.11 7.03039 31.11 7.41039V8.83039C31.11 9.02039 31.01 9.03039 30.81 8.93039C30.54 8.79039 30.21 8.71039 29.73 8.71039C28.95 8.71039 28.36 8.97039 27.92 9.50039C27.53 9.97039 27.33 10.5704 27.31 11.2804C27.3 12.0504 27.48 12.7004 27.87 13.1904C28.31 13.7604 28.93 14.0304 29.77 14.0304C30.34 14.0304 30.73 13.9404 31.19 13.6104C31.28 13.5404 31.33 13.4804 31.41 13.4804C31.51 13.4804 31.55 13.6204 31.65 13.7404C31.82 13.9504 32.26 14.1504 32.9 13.9504C32.6 13.5904 32.57 13.1604 32.58 12.6704M31.11 12.5604C31.11 13.0304 30.77 13.4704 30.13 13.4704C29.85 13.4704 29.61 13.4104 29.43 13.2404C29.07 12.9204 28.9 12.3104 28.92 11.3704C28.95 10.0004 29.43 9.23039 30.29 9.23039C30.89 9.23039 31.11 9.42039 31.11 9.81039V12.5504V12.5604Z" fill="white"/>
<path d="M43.01 13.23C42.84 13.34 42.46 13.53 41.87 13.53C41.08 13.53 40.41 13.07 40.25 12.36C40.2 12.13 40.27 11.94 40.95 11.84C41.63 11.74 42.23 11.49 42.65 11.2C43.06 10.93 43.46 10.34 43.45 9.63996C42.67 8.93996 41.86 8.70996 41.28 8.70996C39.7 8.70996 38.66 9.49996 38.58 11.04C38.47 13.06 39.98 14.04 41.74 14.04C42.72 14.04 43.2 13.68 43.6 13.75C43.55 13.5 43.3 13.29 43 13.23M39.98 10.96C39.98 10.62 40.14 10.12 40.49 9.71996C40.89 9.24996 41.33 9.21996 41.64 9.28996C41.88 9.33996 42.06 9.45996 42.18 9.63996C42.3 9.81996 42.32 10.01 42.27 10.22C42.11 10.95 40.81 11.27 40.22 11.28C40.05 11.28 39.97 11.13 39.97 10.96" fill="white"/>
<path d="M21.5799 13.1806C21.0999 13.3906 20.7899 13.5906 19.4599 13.2006C19.5599 12.9106 19.6099 12.6006 19.4999 12.0106C19.3999 11.4806 19.2399 10.9406 19.2799 9.61062C19.3599 7.22062 19.9499 7.28062 19.8899 6.39062C19.3099 7.05063 18.5299 7.58063 17.7699 7.85063C18.1599 8.92063 18.0699 10.2806 17.8999 11.2506C17.7299 12.1906 17.4799 12.8506 17.7299 13.9906C18.9799 13.7706 18.8899 14.0406 20.4199 14.0406C21.3399 14.0406 21.7099 13.5306 22.1799 13.7006C22.0599 13.4506 21.7499 13.2306 21.5899 13.1906" fill="white"/>
<path d="M19.8 6.31055C18.81 7.11055 17.23 7.76055 15.99 7.96055C15.22 8.05055 14.33 8.14055 13.62 8.03055C14.15 7.50055 14.92 7.05055 15.71 6.77055C17.14 6.28055 18.36 6.31055 19.8 6.32055" fill="white"/>
<path d="M8.91994 13.4902C8.32994 13.4902 7.77994 13.1702 7.49994 12.5802C7.31994 12.2002 7.22994 11.7302 7.21994 11.2002C7.21994 10.7302 7.26994 10.3202 7.39994 10.0002C7.66994 9.3402 8.14994 9.2002 8.50994 9.2002C8.72994 9.2002 9.07994 9.2802 9.24994 9.4002C9.42994 9.5202 9.51994 9.6902 9.51994 9.8902C9.51994 9.9102 9.51994 9.9302 9.51994 9.9502C10.0599 9.8702 10.2399 9.4502 10.5099 9.1902C9.86994 8.8702 8.97994 8.7002 8.24994 8.7002C7.36994 8.7002 6.70994 8.9602 6.22994 9.5002C5.78994 9.9902 5.57994 10.6402 5.59994 11.4202C5.60994 12.1702 5.84994 12.7902 6.29994 13.2902C6.79994 13.8202 7.54994 14.0302 8.56994 14.0302C9.73994 14.0302 10.0799 13.6602 10.4799 13.7302C10.3599 13.5202 10.0299 13.2102 9.87994 13.2102C9.63994 13.3802 9.37994 13.4702 8.89994 13.4702" fill="white"/>
<path d="M15.58 11.3702C15.56 10.5802 15.33 9.9402 14.89 9.4702C14.41 8.9502 13.74 8.7002 12.84 8.7002C11.94 8.7002 11.29 8.9502 10.84 9.4602C10.42 9.9302 10.22 10.5702 10.24 11.3602C10.26 12.1502 10.49 12.7902 10.92 13.2602C11.4 13.7802 12.07 14.0302 12.96 14.0302C13.85 14.0302 14.51 13.7802 14.97 13.2602C15.39 12.7902 15.59 12.1502 15.57 11.3602M13.51 13.2302C13.36 13.3602 13.17 13.4302 12.95 13.4302C11.87 13.4302 11.84 11.8702 11.82 11.3602C11.8 10.4002 11.96 9.7802 12.3 9.4902C12.46 9.3602 12.65 9.2902 12.87 9.2902C13.94 9.2902 13.97 10.8402 13.98 11.3602C14 12.3302 13.85 12.9402 13.51 13.2402" fill="white"/>
<path d="M4.98998 13.23C4.81998 13.34 4.43998 13.53 3.84998 13.53C3.05998 13.53 2.38998 13.07 2.22998 12.36C2.17998 12.13 2.24998 11.94 2.92998 11.84C3.60998 11.74 4.20998 11.49 4.62998 11.2C5.03998 10.93 5.42998 10.34 5.42998 9.63996C4.64998 8.93996 3.83997 8.70996 3.25997 8.70996C1.67997 8.70996 0.639978 9.49996 0.559978 11.04C0.449978 13.06 1.95998 14.04 3.71998 14.04C4.69998 14.04 5.17998 13.68 5.57998 13.75C5.52998 13.5 5.27998 13.29 4.98998 13.23ZM1.96998 10.96C1.96998 10.62 2.12998 10.12 2.47998 9.71996C2.87998 9.24996 3.31998 9.21996 3.62998 9.28996C3.86998 9.33996 4.04997 9.45996 4.16997 9.63996C4.28997 9.81996 4.30998 10.01 4.26998 10.22C4.09998 10.95 2.79998 11.27 2.21998 11.28C2.04998 11.28 1.96998 11.13 1.96998 10.96Z" fill="white"/>
<path d="M19.69 6.20063C19.69 6.20063 17.82 5.03063 14.76 5.29063C15.51 5.76063 16.05 6.08063 16.78 6.21063C17.43 6.07063 18.64 6.08063 19.69 6.21063" fill="white"/>
<path d="M15.63 0.230469C16.11 0.230469 16.42 0.510469 16.53 0.840469C16.53 0.840469 17.26 2.92047 17.32 3.12047C17.38 3.30047 17.51 3.43047 17.68 3.46047C17.48 3.64047 17.24 3.64047 17.04 3.64047C17.04 3.64047 16.48 3.64047 16.36 3.30047C16.34 3.23047 16.05 2.42047 16.05 2.42047H15.04L14.85 2.96047C14.76 3.23047 14.9 3.44047 15.07 3.47047C14.93 3.63047 14.56 3.65047 14.4 3.65047C14.4 3.65047 14.12 3.65047 13.98 3.53047C14.17 3.51047 14.19 3.42047 14.25 3.29047L15.14 0.740469C15.19 0.590468 15.17 0.460469 14.97 0.410469C15.08 0.280469 15.48 0.250469 15.63 0.250469M15.18 2.04047H15.92C15.92 2.04047 15.6 1.13047 15.59 1.08047C15.57 1.03047 15.53 1.03047 15.51 1.08047C15.49 1.13047 15.18 2.04047 15.18 2.04047Z" fill="white"/>
<path d="M12.73 3.29C12.35 3.29 12 3.08 11.82 2.71C11.71 2.46 11.65 2.17 11.64 1.83C11.64 1.53 11.67 1.27 11.75 1.06C11.92 0.64 12.23 0.55 12.46 0.55C12.6 0.55 12.83 0.6 12.93 0.68C13.05 0.76 13.1 0.87 13.1 1C13.1 1.01 13.1 1.02 13.1 1.04C13.44 0.99 13.56 0.72 13.74 0.56C13.33 0.35 12.76 0.25 12.3 0.25C11.74 0.25 11.32 0.42 11.01 0.76C10.73 1.07 10.59 1.49 10.6 1.99C10.61 2.47 10.76 2.87 11.05 3.18C11.37 3.52 11.85 3.66 12.5 3.66C13.25 3.66 13.47 3.43 13.72 3.47C13.65 3.34 13.43 3.14 13.34 3.14C13.19 3.25 13.02 3.31 12.71 3.31" fill="white"/>
<path d="M19.28 0.240677C19.18 0.540677 20.31 2.15068 20.56 2.64068C20.57 2.64068 20.73 0.710677 20.24 0.710677C20.43 0.150677 20.96 0.240677 21.46 0.240677C21.11 0.720677 20.95 3.14068 21.49 3.17068C21.11 3.75068 20.72 3.62068 20.22 3.62068C20.02 3.14068 19.26 1.80068 18.98 1.26068C18.97 1.26068 18.66 3.30068 19.15 3.31068C18.88 3.75068 18.56 3.63068 18.09 3.63068C18.27 3.09068 18.62 0.660677 17.97 0.720677C18.21 0.150677 19.07 0.240677 19.28 0.240677Z" fill="white"/>
<path d="M26.0899 0.19043C26.0299 0.36043 25.9599 0.620429 25.7699 0.700429C25.5099 0.810429 25.1399 0.790429 24.9599 0.970429C24.8499 1.08043 24.61 3.44043 25.41 3.35043C24.92 3.80043 24.3799 3.55043 23.8799 3.55043C24.3199 3.05043 24.1899 1.19043 24.1099 0.970429C23.9799 0.600429 23.0799 0.68043 22.8199 0.82043C23.0199 0.21043 23.6199 0.24043 24.1999 0.26043C24.7899 0.28043 25.5299 0.39043 26.0999 0.19043C26.0699 0.27043 25.9299 0.25043 26.0999 0.19043" fill="white"/>
<path d="M33.5499 1.93047C33.5399 1.43047 33.3899 1.02047 33.1099 0.720469C32.7999 0.390469 32.3699 0.230469 31.7999 0.230469C31.2299 0.230469 30.8099 0.390469 30.5199 0.720469C30.2499 1.02047 30.1199 1.43047 30.1299 1.93047C30.1399 2.43047 30.2899 2.84047 30.5699 3.14047C30.8799 3.47047 31.2999 3.63047 31.8799 3.63047C32.4599 3.63047 32.8699 3.47047 33.1699 3.14047C33.4399 2.84047 33.5699 2.43047 33.5499 1.93047ZM32.2299 3.13047C32.1299 3.21047 32.0099 3.26047 31.8699 3.26047C31.1799 3.26047 31.1599 2.26047 31.1499 1.94047C31.1399 1.32047 31.2399 0.930469 31.4599 0.750469C31.5599 0.660469 31.6799 0.620469 31.8199 0.620469C32.4999 0.620469 32.5199 1.61047 32.5299 1.94047C32.5399 2.56047 32.4499 2.95047 32.2299 3.14047" fill="white"/>
<path d="M27.8899 0.320704C27.7399 0.400704 27.7099 0.580703 27.7099 0.750703V1.6207H28.9099V0.750703C28.9099 0.560703 28.8899 0.450703 28.6799 0.450703C28.7399 0.330703 28.9099 0.230703 29.1699 0.230703C29.4299 0.230703 29.6599 0.320704 29.6599 0.320704C29.5099 0.370704 29.4699 0.440703 29.4699 0.750703V3.0507C29.4699 3.3007 29.5999 3.3907 29.7699 3.3907C29.6899 3.5607 29.4499 3.6307 29.2099 3.6307C29.0399 3.6307 28.8599 3.5807 28.7499 3.5107C28.8499 3.4707 28.8999 3.3607 28.8999 3.1007V2.0107H27.6999V3.0307C27.6999 3.2607 27.7699 3.3807 27.9199 3.4007C27.8099 3.5507 27.5099 3.6307 27.2199 3.6307C26.9299 3.6307 26.5799 3.6007 26.2999 3.4807C26.4899 3.4307 26.6499 3.2507 26.6499 3.0007V1.0607C26.6499 0.740703 26.5899 0.500703 26.3199 0.500703C26.4299 0.310703 26.9099 0.220703 27.2599 0.220703C27.6399 0.220703 27.8899 0.310703 27.8899 0.310703" fill="white"/>
</svg>
