<svg width="48" height="22" viewBox="0 0 48 22" fill="none" xmlns="http://www.w3.org/2000/svg">
<path d="M47.23 7.89984C47.22 8.45984 46.84 8.96984 46.28 9.09984C45.76 9.21984 45.3 9.07984 44.93 8.69984C44.36 8.12984 44.54 7.18984 45.09 6.76984C45.62 6.35984 46.38 6.42984 46.8 6.82984C47.09 7.09984 47.24 7.43984 47.23 7.90984V7.89984ZM45.93 8.89984C46.55 8.89984 47.01 8.43984 47.01 7.81984C47.01 7.18984 46.54 6.69984 45.92 6.69984C45.34 6.69984 44.8 7.08984 44.8 7.81984C44.8 8.42984 45.29 8.88984 45.94 8.88984L45.93 8.89984Z" fill="white"/>
<path d="M7.48999 18.9894C7.43999 19.2394 7.4 19.4594 7.36 19.6894C7.41 19.6894 7.42 19.6394 7.44 19.6094C7.55 19.4494 7.68 19.2994 7.83 19.1694C7.94 19.0694 8.05999 18.9894 8.20999 18.9594C8.26999 18.9494 8.31999 18.9394 8.37999 18.9494C8.50999 18.9594 8.60999 19.0494 8.62999 19.1894C8.64999 19.3094 8.63 19.4194 8.61 19.5294C8.61 19.5794 8.59 19.6294 8.58 19.6894C8.63 19.6894 8.64 19.6494 8.66 19.6194C8.78 19.4494 8.90999 19.2894 9.05999 19.1594C9.16999 19.0694 9.27999 18.9994 9.41999 18.9594C9.69999 18.8894 9.89 19.0394 9.86 19.3294C9.86 19.4594 9.82 19.5894 9.79 19.7194C9.71 20.1094 9.62999 20.4894 9.55999 20.8794C9.54999 20.9594 9.52 20.9894 9.44 20.9794C9.35 20.9694 9.24 21.0194 9.19 20.9494C9.15 20.8894 9.21 20.7894 9.22 20.7094C9.3 20.3194 9.37999 19.9294 9.44999 19.5294C9.46999 19.4494 9.49 19.3594 9.41 19.3094C9.33 19.2594 9.26999 19.3194 9.20999 19.3694C9.10999 19.4394 9.02999 19.5294 8.94999 19.6194C8.78999 19.7994 8.64999 19.9894 8.49999 20.1794C8.45999 20.2394 8.44 20.2994 8.43 20.3594C8.39 20.5394 8.35999 20.7194 8.31999 20.8994C8.31999 20.9494 8.29 20.9794 8.23 20.9694C8.16 20.9694 8.08999 20.9694 8.01999 20.9694C7.93999 20.9694 7.93999 20.9694 7.94999 20.8794C7.98999 20.6994 8.01999 20.5094 8.05999 20.3294C8.11999 20.0594 8.17 19.7794 8.23 19.5094C8.24 19.4394 8.26 19.3494 8.18 19.2994C8.11 19.2594 8.03999 19.2994 7.98999 19.3494C7.91999 19.3994 7.86 19.4594 7.8 19.5194C7.6 19.7294 7.43 19.9494 7.26 20.1794C7.22 20.2294 7.20999 20.2894 7.19999 20.3494C7.15999 20.5294 7.12999 20.7094 7.08999 20.8894C7.08999 20.9394 7.05999 20.9694 6.99999 20.9594C6.92999 20.9594 6.86 20.9594 6.79 20.9594C6.71 20.9594 6.71 20.9594 6.72 20.8694C6.75 20.6994 6.78999 20.5194 6.81999 20.3494C6.90999 19.9194 6.99 19.4894 7.08 19.0594C7.1 18.9594 7.09999 18.9594 7.20999 18.9594C7.28999 18.9594 7.37 18.9594 7.47 18.9594L7.48999 18.9894Z" fill="white"/>
<path d="M20.23 18.8498C20.19 19.0498 20.15 19.2198 20.12 19.3998C20.02 19.8998 19.92 20.3998 19.82 20.8998C19.8 20.9998 19.8 20.9998 19.7 20.9998C19.63 20.9998 19.56 20.9998 19.49 20.9998C19.45 20.9598 19.47 20.9298 19.48 20.8898C19.65 20.0498 19.82 19.1998 19.99 18.3598C20.01 18.2598 20.01 18.2598 20.11 18.2598C20.18 18.2598 20.24 18.2598 20.31 18.2598C20.37 18.2598 20.4 18.2798 20.43 18.3398C20.51 18.5398 20.6 18.7298 20.68 18.9298C20.87 19.3698 21.07 19.8198 21.26 20.2598C21.28 20.2998 21.28 20.3398 21.34 20.3798C21.35 20.3298 21.36 20.2898 21.37 20.2498C21.5 19.6198 21.62 18.9898 21.75 18.3598C21.77 18.2598 21.77 18.2598 21.87 18.2598C21.94 18.2598 22.02 18.2598 22.1 18.2598C22.06 18.4698 22.02 18.6698 21.98 18.8798C21.85 19.5298 21.72 20.1898 21.59 20.8398C21.59 20.8698 21.58 20.8898 21.57 20.9198C21.57 20.9798 21.53 20.9998 21.47 20.9998C21.37 20.9998 21.26 21.0298 21.18 20.9798C21.1 20.9398 21.09 20.8198 21.06 20.7398C20.81 20.1598 20.56 19.5798 20.31 19.0098C20.29 18.9698 20.27 18.9198 20.24 18.8498H20.23Z" fill="white"/>
<path d="M41.8701 20.9994C41.9201 20.7494 41.9601 20.5194 42.0101 20.2794C41.9501 20.3094 41.9301 20.3494 41.9101 20.3794C41.7601 20.5894 41.5901 20.7794 41.3801 20.9194C41.2701 20.9894 41.1501 21.0394 41.0101 21.0394C40.9001 21.0394 40.8101 20.9894 40.7501 20.9094C40.6701 20.7994 40.6301 20.6794 40.6401 20.5494C40.6801 19.9594 40.9301 19.4794 41.4101 19.1394C41.6401 18.9694 41.9101 18.9194 42.2001 18.9794C42.3201 19.0094 42.4501 18.9994 42.5701 18.9994C42.6601 18.9994 42.6601 18.9994 42.6401 19.0794C42.5201 19.6894 42.3901 20.3094 42.2701 20.9194C42.2601 20.9794 42.2401 21.0094 42.1701 20.9994C42.0801 20.9994 41.9901 20.9994 41.8801 20.9994H41.8701ZM41.0101 20.4394C41.0101 20.5194 41.0101 20.6094 41.0901 20.6494C41.1601 20.6894 41.2401 20.6594 41.3001 20.6194C41.3601 20.5794 41.4201 20.5394 41.4701 20.4894C41.7001 20.2794 41.9001 20.0294 42.0901 19.7694C42.1101 19.7394 42.1201 19.7194 42.1301 19.6894C42.1501 19.5794 42.1801 19.4594 42.2001 19.3494C42.2101 19.2894 42.1901 19.2694 42.1401 19.2494C42.0001 19.1994 41.8701 19.1994 41.7401 19.2494C41.6001 19.2994 41.4801 19.3894 41.3901 19.4994C41.1701 19.7694 41.0501 20.0794 41.0101 20.4194V20.4394Z" fill="white"/>
<path d="M24.24 19.0196C24.2 19.2296 24.16 19.4596 24.11 19.6796C24.03 20.0696 23.9499 20.4596 23.8699 20.8496C23.8699 20.8796 23.85 20.9096 23.85 20.9396C23.85 20.9896 23.82 20.9996 23.78 20.9996C23.7 20.9996 23.6199 20.9996 23.5399 20.9996C23.4799 20.9996 23.47 20.9796 23.49 20.9196C23.53 20.7596 23.56 20.5896 23.59 20.4196C23.59 20.3896 23.6 20.3696 23.6 20.3396C23.6 20.3196 23.58 20.2996 23.55 20.3196C23.52 20.3396 23.5099 20.3696 23.4799 20.3996C23.3399 20.5896 23.1799 20.7596 22.9799 20.8996C22.8599 20.9796 22.74 21.0296 22.59 21.0296C22.48 21.0296 22.39 20.9796 22.33 20.8996C22.25 20.7996 22.21 20.6796 22.21 20.5496C22.21 20.3796 22.24 20.2196 22.3 20.0696C22.4 19.7796 22.55 19.5096 22.78 19.2896C23.07 19.0096 23.4 18.8896 23.8 18.9696C23.91 18.9896 24.0299 18.9796 24.1499 18.9896C24.1799 18.9896 24.1999 18.9896 24.2299 19.0096L24.24 19.0196ZM22.6199 20.4296C22.6199 20.4296 22.6199 20.4596 22.6199 20.4696C22.6199 20.6596 22.7299 20.7296 22.8999 20.6396C22.9699 20.5996 23.04 20.5496 23.1 20.4896C23.32 20.2796 23.51 20.0396 23.7 19.7896C23.72 19.7696 23.73 19.7396 23.74 19.7096C23.76 19.5996 23.78 19.4796 23.81 19.3696C23.83 19.3096 23.81 19.2896 23.75 19.2696C23.65 19.2396 23.54 19.2196 23.44 19.2396C23.28 19.2796 23.14 19.3596 23.03 19.4796C22.78 19.7496 22.6599 20.0696 22.6199 20.4296ZM23.61 20.2896C23.61 20.2896 23.61 20.2696 23.59 20.2696C23.59 20.2696 23.59 20.2796 23.58 20.2896C23.58 20.2996 23.58 20.3196 23.58 20.3196C23.59 20.3196 23.6 20.3196 23.6 20.2996L23.61 20.2896Z" fill="white"/>
<path d="M4.16001 20.5295C4.13334 20.7361 4.02667 20.8695 3.84 20.9295C3.58 21.0095 3.32001 21.0595 3.04001 21.0595C2.47001 21.0595 2.09 20.6995 2.06 20.1295C2.03 19.4995 2.27 18.9695 2.74 18.5495C3.02 18.2995 3.35001 18.1995 3.72001 18.1895C3.97001 18.1895 4.21 18.2095 4.45 18.2595C4.55 18.2795 4.55 18.2795 4.53 18.3895C4.52 18.4495 4.51 18.4995 4.5 18.5595C4.5 18.5995 4.47 18.6195 4.42 18.6095C4.33 18.5895 4.25001 18.5695 4.16001 18.5395C3.97001 18.4895 3.77001 18.4795 3.58001 18.4995C3.31001 18.5295 3.08001 18.6395 2.91001 18.8495C2.60001 19.2095 2.44001 19.6295 2.47001 20.1095C2.49001 20.4795 2.73001 20.7195 3.11001 20.7495C3.34001 20.7695 3.57001 20.7295 3.79001 20.6595C3.90001 20.6195 4.02 20.5795 4.14 20.5395L4.16001 20.5295Z" fill="white"/>
<path d="M27.28 20.3193C27.16 20.4993 27.03 20.6793 26.87 20.8293C26.74 20.9493 26.59 21.0393 26.41 21.0293C26.26 21.0293 26.15 20.9393 26.12 20.7793C26.1 20.6693 26.1 20.5493 26.12 20.4393C26.21 19.9993 26.3 19.5493 26.39 19.1093C26.41 18.9893 26.41 18.9893 26.53 18.9893C26.61 18.9893 26.69 18.9893 26.77 18.9893C26.77 19.1093 26.73 19.2193 26.71 19.3393C26.64 19.6993 26.56 20.0593 26.49 20.4193C26.49 20.4493 26.48 20.4793 26.48 20.5093C26.48 20.6493 26.56 20.6993 26.69 20.6293C26.78 20.5793 26.84 20.5093 26.91 20.4393C27.1 20.2193 27.25 19.9793 27.41 19.7393C27.45 19.6793 27.45 19.6093 27.47 19.5493C27.5 19.3893 27.53 19.2393 27.56 19.0793C27.57 19.0193 27.6 18.9893 27.67 18.9893C27.76 18.9893 27.85 18.9893 27.96 18.9893C27.9 19.2793 27.85 19.5493 27.79 19.8293C27.72 20.1693 27.65 20.5193 27.58 20.8593C27.55 20.9993 27.55 20.9993 27.42 20.9893C27.34 20.9893 27.24 21.0293 27.2 20.9693C27.16 20.9193 27.22 20.8293 27.23 20.7493C27.26 20.6193 27.28 20.4793 27.31 20.3493C27.31 20.3293 27.33 20.2993 27.31 20.2893C27.3 20.2893 27.29 20.3093 27.28 20.3293V20.3193Z" fill="white"/>
<path d="M10.64 19.2796C10.54 19.2496 10.44 19.2796 10.34 19.2596C10.34 19.2496 10.33 19.2396 10.34 19.2296C10.36 19.1596 10.34 19.0596 10.4 19.0196C10.45 18.9696 10.54 18.9996 10.62 18.9996C10.71 18.9996 10.72 18.9496 10.73 18.8896C10.77 18.6696 10.88 18.4796 11.03 18.3196C11.29 18.0496 11.6 17.9996 11.95 18.0796C12 18.0896 12.02 18.1196 12.01 18.1696C12.01 18.1796 12.01 18.1996 12.01 18.2096C11.98 18.3596 11.98 18.3596 11.83 18.3296C11.78 18.3296 11.73 18.3096 11.68 18.3096C11.49 18.2996 11.34 18.3796 11.24 18.5396C11.15 18.6696 11.11 18.8196 11.08 18.9896H11.61C11.63 19.0696 11.59 19.1296 11.59 19.1996C11.59 19.2496 11.56 19.2696 11.51 19.2696C11.39 19.2696 11.28 19.2696 11.16 19.2696C11.0734 19.2696 11.0234 19.3096 11.01 19.3896C10.86 20.1296 10.71 20.8796 10.56 21.6196C10.5467 21.6929 10.5 21.7296 10.42 21.7296C10.34 21.7296 10.26 21.7296 10.17 21.7296C10.33 20.9096 10.5 20.0896 10.66 19.2796H10.64Z" fill="white"/>
<path d="M13.53 19.6499C13.52 20.0699 13.37 20.4399 13.08 20.7399C12.83 20.9999 12.52 21.0699 12.18 21.0299C11.89 20.9899 11.69 20.7599 11.68 20.4399C11.66 19.9399 11.84 19.5199 12.21 19.1799C12.44 18.9799 12.72 18.9199 13.02 18.9599C13.32 18.9999 13.51 19.2099 13.54 19.5099C13.54 19.5499 13.54 19.5999 13.54 19.6399L13.53 19.6499ZM12.06 20.2799C12.06 20.2799 12.06 20.3699 12.06 20.4299C12.06 20.4599 12.07 20.4999 12.09 20.5299C12.14 20.6799 12.25 20.7599 12.41 20.7599C12.56 20.7599 12.69 20.6999 12.79 20.5899C13.08 20.2799 13.18 19.9199 13.12 19.5099C13.09 19.2899 12.91 19.1799 12.69 19.2299C12.54 19.2599 12.42 19.3499 12.33 19.4699C12.15 19.6999 12.06 19.9699 12.05 20.2799H12.06Z" fill="white"/>
<path d="M4.56006 20.3491C4.57006 19.9491 4.71006 19.6091 4.96006 19.3091C5.20006 19.0291 5.51006 18.9191 5.88006 18.9491C6.17006 18.9791 6.36006 19.1591 6.41006 19.4391C6.43006 19.5691 6.43006 19.6991 6.41006 19.8191C6.36006 20.1591 6.21006 20.4591 5.97006 20.7191C5.72006 20.9791 5.41006 21.0591 5.06006 21.0191C4.79006 20.9791 4.60006 20.7791 4.57006 20.4991C4.57006 20.4391 4.57006 20.3891 4.56006 20.3391V20.3491ZM6.04006 19.7291C6.04006 19.6591 6.04006 19.5891 6.02006 19.5191C5.96006 19.2891 5.80006 19.1891 5.57006 19.2391C5.44006 19.2691 5.34006 19.3391 5.26006 19.4391C5.10006 19.6191 5.01006 19.8291 4.97006 20.0691C4.95006 20.2091 4.94006 20.3391 4.97006 20.4791C5.02006 20.6991 5.18006 20.8091 5.41006 20.7591C5.57006 20.7291 5.68006 20.6291 5.78006 20.5091C5.95006 20.2791 6.04006 20.0191 6.05006 19.7291H6.04006Z" fill="white"/>
<path d="M37.2701 21.0397C37.2101 21.0397 37.1501 21.0397 37.0801 21.0297C36.8101 20.9797 36.6201 20.7797 36.6001 20.4997C36.5601 19.9797 36.7401 19.5397 37.1201 19.1897C37.3601 18.9797 37.6501 18.9197 37.9501 18.9697C38.2201 19.0097 38.3801 19.1897 38.4301 19.4497C38.4701 19.6497 38.4401 19.8497 38.3901 20.0397C38.3201 20.2797 38.2101 20.4897 38.0501 20.6797C37.8401 20.9197 37.5801 21.0397 37.2601 21.0397H37.2701ZM38.0701 19.7297C38.0701 19.6597 38.0701 19.5897 38.0501 19.5197C37.9901 19.2897 37.8301 19.1897 37.6001 19.2397C37.4701 19.2697 37.3701 19.3397 37.2901 19.4397C37.1301 19.6197 37.0401 19.8297 37.0001 20.0697C36.9801 20.2097 36.9701 20.3397 37.0001 20.4797C37.0501 20.6997 37.2101 20.8097 37.4401 20.7597C37.6001 20.7297 37.7101 20.6297 37.8101 20.5097C37.9801 20.2797 38.0701 20.0197 38.0801 19.7297H38.0701Z" fill="white"/>
<path d="M31.7801 20.4392C31.7601 20.5392 31.7401 20.5992 31.7401 20.6692C31.7401 20.7792 31.6801 20.8192 31.5901 20.8592C31.3301 20.9692 31.0601 21.0392 30.7801 21.0392C30.4301 21.0292 30.1901 20.8092 30.1701 20.4592C30.1401 19.8892 30.3601 19.4392 30.8201 19.1092C30.9801 18.9992 31.1501 18.9492 31.3501 18.9492C31.6501 18.9492 31.8801 19.1092 31.7801 19.5292C31.7401 19.7092 31.6201 19.8392 31.4701 19.9492C31.2401 20.1092 30.9801 20.1992 30.7001 20.2292C30.5101 20.2592 30.5001 20.2592 30.5601 20.4492C30.6101 20.6392 30.7401 20.7392 30.9401 20.7292C31.1801 20.7292 31.4001 20.6392 31.6101 20.5292C31.6601 20.4992 31.7201 20.4692 31.7901 20.4292L31.7801 20.4392ZM30.5601 19.9792C30.8001 19.9592 31.0201 19.9292 31.2101 19.7892C31.3001 19.7292 31.3801 19.6392 31.4201 19.5292C31.4701 19.3792 31.3701 19.2492 31.2201 19.2492C31.1401 19.2492 31.0601 19.2792 30.9901 19.3192C30.7501 19.4692 30.6101 19.6892 30.5601 19.9692V19.9792Z" fill="white"/>
<path d="M35.4901 18.2598C35.4401 18.4898 35.4 18.6998 35.36 18.9198C35.25 19.4698 35.14 20.0198 35.03 20.5798C35.03 20.5898 35.03 20.6098 35.03 20.6198C35.02 20.7098 35.02 20.7098 35.11 20.7098C35.45 20.7098 35.78 20.7098 36.12 20.7098C36.17 20.7098 36.22 20.7098 36.26 20.7098C36.26 20.7098 36.27 20.7298 36.26 20.7298C36.24 20.8098 36.26 20.9298 36.19 20.9798C36.13 21.0298 36.03 20.9898 35.94 20.9898C35.52 20.9898 35.11 20.9898 34.69 20.9898C34.65 20.9898 34.6 20.9998 34.55 20.9798C34.55 20.8398 34.59 20.7098 34.62 20.5798C34.77 19.8498 34.91 19.1098 35.06 18.3798C35.08 18.2598 35.08 18.2598 35.2 18.2598C35.28 18.2598 35.37 18.2598 35.47 18.2598H35.4901Z" fill="white"/>
<path d="M40.4101 19.2995C40.3101 19.2895 40.2201 19.2495 40.1301 19.2395C39.8601 19.1995 39.6301 19.2695 39.4601 19.4695C39.2301 19.7295 39.13 20.0395 39.15 20.3895C39.16 20.6495 39.36 20.7795 39.61 20.7295C39.82 20.6895 40.01 20.6195 40.2 20.4995C40.2 20.6195 40.17 20.7195 40.15 20.8295C40.15 20.8595 40.12 20.8695 40.09 20.8795C39.85 20.9795 39.61 21.0495 39.34 21.0395C39.04 21.0295 38.8201 20.8495 38.7701 20.5595C38.6301 19.7795 39.23 19.0695 39.83 18.9695C40.03 18.9395 40.2201 18.9695 40.4101 18.9995C40.4401 18.9995 40.4701 19.0195 40.4601 19.0595C40.4401 19.1395 40.4301 19.2095 40.4101 19.2995Z" fill="white"/>
<path d="M24.97 19.2796C24.91 19.2596 24.86 19.2696 24.81 19.2596C24.76 19.2596 24.71 19.2596 24.67 19.2596C24.67 19.2496 24.67 19.2396 24.67 19.2296C24.69 19.1596 24.67 19.0596 24.73 19.0196C24.78 18.9696 24.87 19.0096 24.94 18.9996C25.04 18.9996 25.04 18.9996 25.06 18.8996C25.06 18.8596 25.08 18.8196 25.08 18.7796C25.11 18.6396 25.11 18.6396 25.25 18.6196C25.32 18.6196 25.4 18.6096 25.48 18.5996C25.46 18.7196 25.44 18.8196 25.41 18.9296C25.4 18.9796 25.41 18.9996 25.47 18.9996C25.58 18.9996 25.69 18.9996 25.8 18.9996C25.85 18.9996 25.87 19.0196 25.86 19.0696C25.83 19.2696 25.83 19.2696 25.64 19.2696C25.57 19.2696 25.51 19.2696 25.44 19.2696C25.37 19.2696 25.34 19.2896 25.33 19.3596C25.28 19.6396 25.22 19.9196 25.17 20.1996C25.15 20.2996 25.13 20.4096 25.11 20.5096C25.09 20.6896 25.1701 20.7796 25.3501 20.7696C25.4101 20.7696 25.46 20.7496 25.53 20.7396C25.53 20.7796 25.52 20.8196 25.51 20.8596C25.48 21.0096 25.4601 21.0296 25.3201 21.0396C25.2301 21.0396 25.13 21.0396 25.04 21.0196C24.84 20.9596 24.7401 20.8196 24.7401 20.5996C24.7401 20.3996 24.8 20.2096 24.84 20.0096C24.88 19.7696 24.93 19.5296 24.98 19.2896L24.97 19.2796Z" fill="white"/>
<path d="M16.59 20.7394C16.59 20.7394 16.58 20.8194 16.57 20.8594C16.54 21.0094 16.52 21.0294 16.36 21.0394C16.27 21.0394 16.17 21.0394 16.08 21.0094C15.89 20.9494 15.79 20.8094 15.79 20.6094C15.79 20.3994 15.85 20.2094 15.89 20.0094C15.93 19.7694 15.98 19.5294 16.03 19.2894C15.93 19.2494 15.83 19.2894 15.73 19.2694C15.73 19.2594 15.73 19.2494 15.73 19.2394C15.75 19.086 15.8367 19.0094 15.99 19.0094C16.1433 19.0094 16.1833 18.976 16.11 18.9094C16.11 18.9094 16.13 18.8194 16.14 18.7794C16.17 18.6494 16.17 18.6494 16.29 18.6294C16.37 18.6294 16.45 18.6194 16.54 18.6094C16.52 18.7094 16.5 18.7994 16.49 18.8994C16.47 19.0094 16.47 19.0094 16.59 19.0094C16.68 19.0094 16.78 19.0094 16.87 19.0094C16.92 19.0094 16.94 19.0194 16.93 19.0794C16.9 19.2794 16.91 19.2794 16.71 19.2794C16.64 19.2794 16.58 19.2794 16.51 19.2794C16.44 19.2794 16.41 19.2994 16.4 19.3694C16.35 19.6494 16.29 19.9294 16.24 20.2094C16.22 20.3094 16.2 20.4194 16.18 20.5194C16.16 20.6994 16.24 20.7894 16.42 20.7794C16.48 20.7794 16.53 20.7594 16.6 20.7494L16.59 20.7394Z" fill="white"/>
<path d="M29.14 18.9894C29.11 19.1594 29.07 19.3094 29.05 19.4694C29.04 19.5294 28.98 19.6194 29.05 19.6494C29.1 19.6694 29.13 19.5694 29.17 19.5294C29.3 19.3694 29.44 19.2094 29.61 19.0894C29.75 18.9894 29.91 18.9394 30.09 18.9594C30.09 19.0994 30.04 19.2194 30.02 19.3494C30.01 19.3494 30 19.3594 29.99 19.3594C29.81 19.3194 29.66 19.3894 29.53 19.5094C29.37 19.6594 29.24 19.8494 29.09 20.0094C28.93 20.1894 28.84 20.3894 28.81 20.6294C28.8 20.7294 28.77 20.8294 28.75 20.9294C28.75 20.9794 28.72 21.0094 28.66 20.9994C28.58 20.9994 28.51 20.9994 28.43 20.9994C28.37 20.9994 28.36 20.9794 28.37 20.9294C28.41 20.7294 28.45 20.5194 28.49 20.3194C28.57 19.9194 28.65 19.5294 28.73 19.1294C28.73 19.0994 28.74 19.0794 28.75 19.0494C28.75 19.0094 28.77 18.9994 28.81 18.9994C28.91 18.9994 29.01 18.9994 29.13 18.9994L29.14 18.9894ZM29.04 19.6794C29.04 19.6794 29.03 19.6594 29.02 19.6594C29.01 19.6594 29 19.6794 29 19.6894C29 19.6894 29 19.6994 29.01 19.7094C29.01 19.6994 29.02 19.6894 29.03 19.6794H29.04Z" fill="white"/>
<path d="M14.6 18.9898C14.56 19.1598 14.53 19.3198 14.5 19.4798C14.5 19.5298 14.43 19.6098 14.5 19.6398C14.54 19.6598 14.57 19.5698 14.61 19.5298C14.74 19.3598 14.8799 19.1998 15.0599 19.0798C15.1999 18.9798 15.3599 18.9298 15.5399 18.9598C15.5399 19.0998 15.49 19.2198 15.47 19.3598C15.21 19.2898 15.04 19.4298 14.88 19.6098C14.7 19.8098 14.54 20.0298 14.38 20.2498C14.36 20.2798 14.34 20.3198 14.33 20.3598C14.3 20.5298 14.2599 20.7098 14.2299 20.8798C14.2099 20.9998 14.21 20.9998 14.08 20.9998C14.04 20.9998 14.01 20.9998 13.97 20.9998C13.8 20.9998 13.84 20.9998 13.86 20.8598C13.9 20.6298 13.95 20.4098 13.99 20.1798C14.06 19.8298 14.1299 19.4798 14.1999 19.1198C14.2299 18.9698 14.2 18.9898 14.36 18.9898C14.43 18.9898 14.51 18.9898 14.6 18.9898ZM14.5 19.6798C14.5 19.6798 14.4899 19.6598 14.4799 19.6598C14.4699 19.6598 14.46 19.6798 14.46 19.6898C14.46 19.6898 14.46 19.6998 14.47 19.7098C14.47 19.6998 14.48 19.6898 14.49 19.6798H14.5Z" fill="white"/>
<path d="M43.92 18.0891C43.88 18.3091 43.84 18.5091 43.8 18.7091C43.66 19.4191 43.52 20.1291 43.38 20.8391C43.36 20.9458 43.2966 20.9991 43.19 20.9991C42.97 20.9991 42.97 20.9991 43.01 20.7791C43.18 19.9391 43.34 19.0991 43.51 18.2591C43.54 18.0791 43.54 18.0791 43.73 18.0791C43.79 18.0791 43.84 18.0791 43.92 18.0791V18.0891Z" fill="white"/>
<path d="M17.64 20.5393C17.61 20.6893 17.58 20.8093 17.56 20.9393C17.56 20.9793 17.53 20.9893 17.5 20.9893C17.39 20.9893 17.27 20.9893 17.16 20.9893C17.12 20.9893 17.1 20.9793 17.11 20.9293C17.13 20.8093 17.16 20.6993 17.18 20.5793C17.18 20.5493 17.2 20.5293 17.23 20.5293C17.37 20.5293 17.5 20.5293 17.65 20.5293L17.64 20.5393Z" fill="white"/>
<path d="M32.17 20.9998C32.2 20.8498 32.23 20.7298 32.25 20.5998C32.25 20.5598 32.28 20.5498 32.31 20.5498C32.42 20.5498 32.54 20.5498 32.65 20.5498C32.69 20.5498 32.71 20.5598 32.7 20.5998C32.68 20.7198 32.66 20.8298 32.63 20.9498C32.63 20.9798 32.61 20.9998 32.58 20.9998C32.44 20.9998 32.31 20.9998 32.16 20.9998H32.17Z" fill="white"/>
<path d="M23.61 20.2898C23.61 20.2898 23.6 20.3198 23.59 20.3098C23.58 20.3098 23.57 20.2898 23.59 20.2798C23.59 20.2798 23.59 20.2698 23.6 20.2598C23.6 20.2598 23.62 20.2598 23.62 20.2798L23.61 20.2898Z" fill="white"/>
<path d="M27.28 20.3193C27.28 20.3193 27.3 20.2793 27.31 20.2793C27.34 20.2893 27.32 20.3193 27.31 20.3393C27.3 20.3393 27.29 20.3193 27.28 20.3093V20.3193Z" fill="white"/>
<path d="M29.04 19.6899C29.04 19.6899 29.03 19.7099 29.02 19.7199C29.02 19.7199 29.01 19.7099 29.01 19.6999C29.01 19.6899 29.01 19.6799 29.03 19.6699C29.03 19.6699 29.04 19.6699 29.05 19.6899H29.04Z" fill="white"/>
<path d="M14.5 19.6899C14.5 19.6899 14.49 19.7099 14.48 19.7199C14.48 19.7199 14.47 19.7099 14.47 19.6999C14.47 19.6899 14.47 19.6799 14.49 19.6699C14.49 19.6699 14.5 19.6699 14.51 19.6899H14.5Z" fill="white"/>
<path d="M46.1301 7.85965C46.2301 8.03965 46.3201 8.20965 46.4201 8.37965C46.4601 8.44965 46.4501 8.45965 46.3701 8.46965C46.2601 8.47965 46.1801 8.43965 46.1101 8.36965C46.0401 8.28965 45.9901 8.18965 45.9401 8.09965C45.9101 8.02965 45.8701 7.96965 45.8401 7.89965C45.8301 7.87965 45.8101 7.84965 45.7801 7.85965C45.7501 7.85965 45.7301 7.88965 45.7301 7.90965C45.7301 7.94965 45.7301 7.98965 45.7301 8.02965C45.7301 8.11965 45.7301 8.21965 45.7301 8.30965C45.7301 8.34965 45.7301 8.40965 45.6701 8.41965C45.6101 8.43965 45.5501 8.41965 45.5001 8.37965C45.4701 8.34965 45.4601 8.31965 45.4501 8.27965C45.4301 8.20965 45.4301 8.14965 45.4301 8.07965C45.4601 7.80965 45.4501 7.52965 45.4701 7.25965C45.4701 7.18965 45.4901 7.15965 45.5601 7.16965C45.6501 7.17965 45.7301 7.13965 45.8201 7.13965C45.9001 7.13965 45.9701 7.13965 46.0501 7.13965C46.2401 7.15965 46.3801 7.28965 46.4101 7.47965C46.4301 7.58965 46.3901 7.67965 46.3101 7.74965C46.2601 7.78965 46.2101 7.81965 46.1501 7.85965H46.1301ZM45.6901 7.49965C45.6901 7.65965 45.7501 7.72965 45.8801 7.71965C45.9501 7.71965 46.0101 7.67965 46.0601 7.60965C46.1201 7.51965 46.1001 7.42965 46.0001 7.37965C45.9201 7.33965 45.8401 7.34965 45.7501 7.35965C45.7201 7.35965 45.7101 7.38965 45.7001 7.41965C45.7001 7.45965 45.7001 7.48965 45.7001 7.49965H45.6901Z" fill="white"/>
<path d="M27.37 11.9298C27.35 11.1398 27.12 10.4998 26.68 10.0298C26.2 9.50977 25.5201 9.25977 24.6301 9.25977C23.7401 9.25977 23.0801 9.50977 22.6301 10.0198C22.2101 10.4898 22.0101 11.1298 22.0301 11.9198C22.0501 12.7098 22.2801 13.3498 22.7101 13.8198C23.1901 14.3398 23.86 14.5898 24.76 14.5898C25.66 14.5898 26.3201 14.3398 26.7701 13.8298C27.1901 13.3598 27.39 12.7198 27.37 11.9298ZM25.31 13.7998C25.16 13.9298 24.9701 13.9998 24.7501 13.9998C23.6701 13.9998 23.64 12.4398 23.62 11.9298C23.6 10.9698 23.7601 10.3498 24.1001 10.0598C24.2601 9.92977 24.45 9.85977 24.67 9.85977C25.74 9.85977 25.7701 11.4098 25.7801 11.9298C25.8001 12.8998 25.65 13.5098 25.31 13.7998Z" fill="white"/>
<path d="M37.7 9.55966C37.61 9.67966 37.56 9.81966 37.46 9.81966C37.38 9.81966 37.33 9.75966 37.24 9.68966C36.79 9.35966 36.39 9.26966 35.82 9.26966C34.98 9.26966 34.36 9.54966 33.92 10.1097C33.54 10.6097 33.35 11.2497 33.36 12.0197C33.37 12.7297 33.58 13.3297 33.97 13.7997C34.41 14.3297 35 14.5897 35.78 14.5897C36.26 14.5897 36.59 14.5097 36.86 14.3697C37.06 14.2697 37.16 14.2897 37.16 14.4797C37.16 15.6897 36.63 16.3197 35.79 16.3197C34.95 16.3197 34.56 16.0597 34.33 15.9097C34.05 15.9297 33.72 16.2497 33.65 16.4597C34.17 16.4597 34.47 16.8797 35.96 16.8797C37.45 16.8797 38.63 15.8397 38.63 13.8797V10.6097C38.63 10.1197 38.65 9.68966 38.95 9.32966C38.3 9.12966 37.86 9.32966 37.7 9.53966M36.34 14.0297C35.48 14.0297 35 13.2597 34.97 11.8997C34.95 10.9597 35.12 10.3497 35.48 10.0297C35.67 9.86966 35.91 9.79966 36.18 9.79966C36.82 9.79966 37.16 10.2397 37.16 10.7097V13.4497C37.16 13.8497 36.94 14.0297 36.34 14.0297Z" fill="white"/>
<path d="M33 13.24V8.58996C33 7.38996 32.5 6.95996 31.83 6.95996C31.44 6.95996 31.33 7.06996 31.28 7.11996C31.44 7.23996 31.53 7.58996 31.53 7.96996V9.38996C31.53 9.57996 31.43 9.58996 31.23 9.48996C30.96 9.34996 30.63 9.26996 30.15 9.26996C29.37 9.26996 28.78 9.52996 28.34 10.06C27.95 10.53 27.75 11.13 27.73 11.84C27.72 12.61 27.9 13.26 28.29 13.75C28.73 14.32 29.35 14.59 30.19 14.59C30.76 14.59 31.15 14.5 31.61 14.17C31.7 14.1 31.74 14.04 31.83 14.04C31.93 14.04 31.97 14.18 32.07 14.3C32.24 14.51 32.68 14.71 33.33 14.51C33.03 14.15 33 13.72 33.01 13.23M31.54 13.12C31.54 13.59 31.2 14.03 30.56 14.03C30.28 14.03 30.04 13.97 29.86 13.8C29.5 13.48 29.33 12.87 29.35 11.93C29.38 10.56 29.86 9.78996 30.72 9.78996C31.32 9.78996 31.54 9.97996 31.54 10.37V13.11V13.12Z" fill="white"/>
<path d="M43.43 13.7898C43.26 13.8998 42.8801 14.0898 42.2901 14.0898C41.5001 14.0898 40.8301 13.6298 40.6701 12.9198C40.6201 12.6898 40.6901 12.4998 41.3701 12.3998C42.0501 12.2998 42.6501 12.0498 43.0801 11.7598C43.4901 11.4898 43.8901 10.8998 43.8801 10.1998C43.1001 9.49977 42.2901 9.25977 41.7101 9.25977C40.1301 9.25977 39.0901 10.0498 39.0101 11.5898C38.9001 13.6098 40.4101 14.5898 42.1701 14.5898C43.1501 14.5898 43.6301 14.2298 44.0301 14.2998C43.9801 14.0498 43.73 13.8398 43.43 13.7798M40.4101 11.5098C40.4101 11.1698 40.5701 10.6698 40.9201 10.2698C41.3201 9.79977 41.7601 9.76977 42.0701 9.83977C42.3101 9.88977 42.4901 10.0098 42.6101 10.1898C42.7301 10.3698 42.7501 10.5598 42.7001 10.7698C42.5401 11.4998 41.2401 11.8298 40.6501 11.8298C40.4801 11.8298 40.4001 11.6798 40.4001 11.5098" fill="white"/>
<path d="M22 13.7392C21.52 13.9492 21.21 14.1492 19.88 13.7592C19.98 13.4692 20.03 13.1592 19.92 12.5692C19.82 12.0392 19.66 11.4992 19.7 10.1692C19.78 7.77922 20.37 7.83922 20.31 6.94922C19.73 7.60922 18.95 8.13922 18.19 8.39922C18.58 9.46922 18.49 10.8292 18.32 11.7992C18.15 12.7392 17.9 13.3992 18.15 14.5392C19.4 14.3192 19.32 14.5892 20.84 14.5892C21.76 14.5892 22.13 14.0792 22.6 14.2492C22.48 13.9992 22.17 13.7792 22 13.7392Z" fill="white"/>
<path d="M20.22 6.85938C19.24 7.65938 17.65 8.30938 16.41 8.50938C15.64 8.59938 14.75 8.68938 14.04 8.57938C14.57 8.04938 15.3401 7.59938 16.1301 7.31938C17.5601 6.82938 18.78 6.85938 20.22 6.86938" fill="white"/>
<path d="M9.33998 14.0495C8.74998 14.0495 8.19998 13.7295 7.91998 13.1395C7.73998 12.7595 7.64998 12.2895 7.63998 11.7595C7.63998 11.2895 7.68998 10.8795 7.81998 10.5595C8.08998 9.89953 8.56998 9.75953 8.92998 9.75953C9.14998 9.75953 9.49998 9.83953 9.66998 9.95953C9.84998 10.0795 9.93999 10.2495 9.93999 10.4495C9.93999 10.4695 9.93999 10.4895 9.93999 10.5095C10.48 10.4395 10.66 10.0095 10.93 9.75953C10.29 9.43953 9.39998 9.26953 8.66998 9.26953C7.78998 9.26953 7.12999 9.52953 6.64999 10.0695C6.20999 10.5595 5.99998 11.2095 6.01998 11.9895C6.02998 12.7395 6.26999 13.3595 6.72999 13.8595C7.22999 14.3895 7.97998 14.5995 8.99998 14.5995C10.17 14.5995 10.51 14.2295 10.91 14.2995C10.79 14.0895 10.46 13.7795 10.32 13.7795C10.08 13.9495 9.81998 14.0395 9.33998 14.0395" fill="white"/>
<path d="M16.0001 11.9298C15.9801 11.1398 15.75 10.4998 15.31 10.0298C14.83 9.50977 14.16 9.25977 13.26 9.25977C12.36 9.25977 11.7101 9.50977 11.2601 10.0198C10.8401 10.4898 10.6401 11.1298 10.6601 11.9198C10.6801 12.7098 10.91 13.3498 11.34 13.8198C11.82 14.3398 12.4901 14.5898 13.3801 14.5898C14.2701 14.5898 14.9401 14.3398 15.3901 13.8198C15.8101 13.3498 16.0101 12.7098 15.9901 11.9198M13.93 13.7898C13.78 13.9198 13.59 13.9898 13.37 13.9898C12.29 13.9898 12.2601 12.4298 12.2401 11.9198C12.2201 10.9598 12.3801 10.3398 12.7201 10.0498C12.8801 9.91977 13.07 9.84977 13.29 9.84977C14.36 9.84977 14.39 11.3998 14.4 11.9198C14.42 12.8898 14.27 13.4998 13.93 13.7898Z" fill="white"/>
<path d="M5.41002 13.7898C5.24002 13.8998 4.86002 14.0898 4.27002 14.0898C3.48002 14.0898 2.81002 13.6298 2.65002 12.9198C2.60002 12.6898 2.67002 12.4998 3.35002 12.3998C4.03002 12.2998 4.63002 12.0498 5.05002 11.7598C5.46002 11.4898 5.86002 10.8998 5.85002 10.1998C5.07002 9.49977 4.26002 9.25977 3.68002 9.25977C2.10002 9.25977 1.06002 10.0498 0.980022 11.5898C0.870022 13.6098 2.38002 14.5898 4.14002 14.5898C5.12002 14.5898 5.60002 14.2298 6.00002 14.2998C5.95002 14.0498 5.70002 13.8398 5.40002 13.7798M2.38002 11.5098C2.38002 11.1698 2.54002 10.6698 2.89002 10.2698C3.29002 9.79977 3.73002 9.76977 4.04002 9.83977C4.28002 9.88977 4.46002 10.0098 4.58002 10.1898C4.70002 10.3698 4.72002 10.5598 4.67002 10.7698C4.50002 11.4998 3.20002 11.8298 2.62002 11.8298C2.45002 11.8298 2.37002 11.6798 2.37002 11.5098" fill="white"/>
<path d="M20.1101 6.75922C20.1101 6.75922 18.2401 5.58922 15.1801 5.84922C15.9301 6.31922 16.4701 6.63922 17.2001 6.76922C17.8501 6.62922 19.0601 6.63922 20.1101 6.76922" fill="white"/>
<path d="M18.95 0.919336C18.8 0.999336 18.76 1.17934 18.76 1.34934V2.20934H20.04V1.34934C20.04 1.15934 20.02 1.04934 19.8 1.04934C19.86 0.929336 20.05 0.829336 20.33 0.829336C20.61 0.829336 20.85 0.919336 20.85 0.919336C20.69 0.969336 20.65 1.03934 20.65 1.34934V3.62934C20.65 3.86934 20.79 3.96934 20.97 3.96934C20.89 4.13934 20.63 4.20934 20.38 4.20934C20.19 4.20934 20 4.15934 19.89 4.08934C20 4.04934 20.05 3.93934 20.05 3.67934V2.59934H18.77V3.60934C18.77 3.82934 18.84 3.95934 19 3.97934C18.88 4.12934 18.56 4.20934 18.26 4.20934C17.96 4.20934 17.58 4.17934 17.28 4.05934C17.49 4.00934 17.65 3.82934 17.65 3.57934V1.65934C17.65 1.33934 17.58 1.09934 17.3 1.09934C17.42 0.909336 17.92 0.819336 18.3 0.819336C18.71 0.819336 18.97 0.909336 18.97 0.909336" fill="white"/>
<path d="M21.82 0.80957C22.12 0.80957 22.48 0.93957 22.48 1.37957V2.52957C22.48 3.47957 22.74 3.78957 23.3 3.78957C23.68 3.78957 24.02 3.63957 24.02 2.73957V1.76957C24.02 1.29957 23.93 1.11957 23.62 1.03957C23.77 0.80957 24.14 0.80957 24.34 0.80957C24.34 0.80957 24.63 0.80957 24.71 0.89957C24.57 0.94957 24.54 1.06957 24.54 1.53957V2.74957C24.54 3.78957 23.99 4.24957 23.24 4.24957C21.92 4.24957 21.42 3.79957 21.42 2.65957V1.52957C21.42 1.38957 21.42 1.04957 21.27 0.92957C21.34 0.87957 21.5 0.80957 21.81 0.80957" fill="white"/>
<path d="M27.42 3.91937C27.42 3.91937 27.41 3.90937 27.4 3.89937C27.29 3.77937 27.13 3.77938 27.03 3.79938C26.92 3.81938 26.84 3.82937 26.72 3.82937H26.53C26.45 3.82937 26.39 3.81938 26.33 3.79938C26.18 3.75938 26.09 3.65938 26.06 3.50938C26.04 3.39938 26.03 3.26938 26.04 3.09938C26.04 2.96938 26.06 2.83937 26.08 2.71937H26.56C26.69 2.71937 26.78 2.71937 26.86 2.71937C26.96 2.71937 27.04 2.69937 27.1 2.66937C27.24 2.61937 27.32 2.50937 27.34 2.34937C27.34 2.30937 27.34 2.27937 27.34 2.24937C27.2 2.26937 27.06 2.28938 26.91 2.29938C26.74 2.30938 26.57 2.31938 26.42 2.31938H26.11C26.12 2.17938 26.13 2.02937 26.14 1.87937C26.14 1.87937 26.17 1.58937 26.16 1.47937C26.16 1.39937 26.14 1.31938 26.08 1.27938H26.89C26.89 1.27938 26.91 1.28937 26.92 1.28937C27.31 1.27937 27.4 1.38937 27.4 1.38937C27.72 1.36937 27.72 0.939375 27.72 0.939375C27.65 0.889375 27.48 0.859375 27.3 0.859375H27.05C26.93 0.869375 26.83 0.879375 26.75 0.879375C26.62 0.879375 26.5 0.879375 26.37 0.879375C26.37 0.879375 25.23 0.899375 25.14 0.939375C25.14 0.939375 25.18 0.949375 25.22 1.00938C25.26 1.05938 25.31 1.14937 25.34 1.30937C25.39 1.53937 25.42 1.91937 25.36 2.51937C25.34 2.65937 25.34 2.78937 25.34 2.90937L25.3 3.26938C25.29 3.37938 25.28 3.48937 25.29 3.57937C25.29 3.69937 25.29 3.78937 25.32 3.86937C25.35 3.99937 25.4 4.09937 25.46 4.15937C25.54 4.22937 25.67 4.26938 25.85 4.26938H26.59C26.81 4.26938 26.99 4.26938 27.12 4.25938C27.17 4.25938 27.21 4.25937 27.25 4.23937C27.73 4.17937 27.73 4.19937 27.73 4.19937C27.65 4.13937 27.59 4.10937 27.42 3.93937" fill="white"/>
</svg>
