<svg width="47" height="22" viewBox="0 0 47 22" fill="none" xmlns="http://www.w3.org/2000/svg">
<path d="M46.2501 7.85003C46.2401 8.41003 45.8601 8.92003 45.3001 9.05003C44.7801 9.17003 44.3201 9.03003 43.9501 8.65003C43.3801 8.08003 43.5601 7.14003 44.1101 6.72003C44.6401 6.31003 45.4001 6.38003 45.8201 6.78003C46.1101 7.05003 46.2601 7.39003 46.2501 7.86003V7.85003ZM44.9501 8.85003C45.5701 8.85003 46.0301 8.39003 46.0301 7.77003C46.0301 7.14003 45.5601 6.65003 44.9401 6.65003C44.3601 6.65003 43.8201 7.04003 43.8201 7.77003C43.8201 8.38003 44.3101 8.84003 44.9601 8.84003L44.9501 8.85003Z" fill="white"/>
<path d="M6.51002 18.9396C6.46002 19.1896 6.42002 19.4096 6.38002 19.6396C6.43002 19.6396 6.44002 19.5896 6.46002 19.5596C6.57002 19.3996 6.70002 19.2496 6.85002 19.1196C6.96002 19.0196 7.08002 18.9396 7.23002 18.9096C7.29002 18.8996 7.34002 18.8896 7.40002 18.8996C7.53002 18.9096 7.63002 18.9996 7.65002 19.1396C7.67002 19.2596 7.65002 19.3696 7.63002 19.4796C7.63002 19.5296 7.61002 19.5796 7.60002 19.6396C7.65002 19.6396 7.66002 19.5996 7.68002 19.5696C7.80002 19.3996 7.93002 19.2396 8.08002 19.1096C8.19002 19.0196 8.30002 18.9496 8.44002 18.9096C8.72002 18.8396 8.91002 18.9896 8.88002 19.2796C8.88002 19.4096 8.84002 19.5396 8.81002 19.6696C8.73002 20.0596 8.65002 20.4396 8.58002 20.8296C8.57002 20.9096 8.54002 20.9396 8.46002 20.9296C8.37002 20.9196 8.26002 20.9696 8.21002 20.8996C8.17002 20.8396 8.23002 20.7396 8.24002 20.6596C8.32002 20.2696 8.40002 19.8796 8.47002 19.4796C8.49002 19.3996 8.51002 19.3096 8.43002 19.2596C8.35002 19.2096 8.29002 19.2696 8.23002 19.3196C8.13002 19.3896 8.05002 19.4796 7.97002 19.5696C7.81002 19.7496 7.67002 19.9396 7.52002 20.1296C7.48002 20.1896 7.46002 20.2496 7.45002 20.3096C7.41002 20.4896 7.38002 20.6696 7.34002 20.8496C7.34002 20.8996 7.31002 20.9296 7.25002 20.9196C7.18002 20.9196 7.11002 20.9196 7.04002 20.9196C6.96002 20.9196 6.96002 20.9196 6.97002 20.8296C7.01002 20.6496 7.04002 20.4596 7.08002 20.2796C7.14002 20.0096 7.19002 19.7296 7.25002 19.4596C7.26002 19.3896 7.28002 19.2996 7.20002 19.2496C7.13002 19.2096 7.06002 19.2496 7.01002 19.2996C6.94002 19.3496 6.88002 19.4096 6.82002 19.4696C6.62002 19.6796 6.45002 19.8996 6.28002 20.1296C6.24002 20.1796 6.23002 20.2396 6.22002 20.2996C6.18002 20.4796 6.15002 20.6596 6.11002 20.8396C6.11002 20.8896 6.08002 20.9196 6.02002 20.9096C5.95002 20.9096 5.88002 20.9096 5.81002 20.9096C5.73002 20.9096 5.73002 20.9096 5.74002 20.8196C5.77002 20.6496 5.81002 20.4696 5.84002 20.2996C5.93002 19.8696 6.01002 19.4396 6.10002 19.0096C6.12002 18.9096 6.12002 18.9096 6.23002 18.9096C6.31002 18.9096 6.39002 18.9096 6.49002 18.9096L6.51002 18.9396Z" fill="white"/>
<path d="M19.26 18.8C19.22 19 19.18 19.17 19.15 19.35C19.05 19.85 18.95 20.35 18.85 20.85C18.83 20.95 18.83 20.95 18.73 20.95C18.66 20.95 18.59 20.95 18.52 20.95C18.48 20.91 18.5 20.88 18.51 20.84C18.68 20 18.85 19.15 19.02 18.31C19.04 18.21 19.04 18.21 19.14 18.21C19.21 18.21 19.27 18.21 19.34 18.21C19.4 18.21 19.43 18.23 19.46 18.29C19.54 18.49 19.63 18.68 19.71 18.88C19.9 19.32 20.1 19.77 20.29 20.21C20.31 20.25 20.31 20.29 20.37 20.33C20.38 20.28 20.39 20.24 20.4 20.2C20.53 19.57 20.65 18.94 20.78 18.31C20.8 18.21 20.8 18.21 20.9 18.21C20.97 18.21 21.05 18.21 21.13 18.21C21.09 18.42 21.05 18.62 21.01 18.83C20.88 19.48 20.75 20.14 20.62 20.79C20.62 20.82 20.61 20.84 20.6 20.87C20.6 20.93 20.56 20.95 20.5 20.95C20.4 20.95 20.29 20.98 20.21 20.93C20.13 20.89 20.12 20.77 20.09 20.69C19.84 20.11 19.59 19.53 19.34 18.96C19.32 18.92 19.3 18.87 19.27 18.8H19.26Z" fill="white"/>
<path d="M40.9 20.9496C40.95 20.6996 40.99 20.4696 41.04 20.2296C40.98 20.2596 40.96 20.2996 40.94 20.3296C40.79 20.5396 40.62 20.7296 40.41 20.8696C40.3 20.9396 40.18 20.9896 40.04 20.9896C39.93 20.9896 39.84 20.9396 39.78 20.8596C39.7 20.7496 39.66 20.6296 39.67 20.4996C39.71 19.9096 39.96 19.4296 40.44 19.0896C40.67 18.9196 40.94 18.8696 41.23 18.9296C41.35 18.9596 41.48 18.9496 41.6 18.9496C41.69 18.9496 41.69 18.9496 41.67 19.0296C41.55 19.6396 41.42 20.2596 41.3 20.8696C41.29 20.9296 41.27 20.9596 41.2 20.9496C41.11 20.9496 41.02 20.9496 40.91 20.9496H40.9ZM40.04 20.3896C40.04 20.4696 40.04 20.5596 40.12 20.5996C40.19 20.6396 40.27 20.6096 40.33 20.5696C40.39 20.5296 40.45 20.4896 40.5 20.4396C40.73 20.2296 40.93 19.9796 41.12 19.7196C41.14 19.6896 41.15 19.6696 41.16 19.6396C41.18 19.5296 41.21 19.4096 41.23 19.2996C41.24 19.2396 41.22 19.2196 41.17 19.1996C41.03 19.1496 40.9 19.1496 40.77 19.1996C40.63 19.2496 40.51 19.3396 40.42 19.4496C40.2 19.7196 40.08 20.0296 40.04 20.3696V20.3896Z" fill="white"/>
<path d="M23.26 18.9698C23.22 19.1798 23.18 19.4098 23.13 19.6298C23.05 20.0198 22.97 20.4098 22.89 20.7998C22.89 20.8298 22.87 20.8598 22.87 20.8898C22.87 20.9398 22.84 20.9498 22.8 20.9498C22.72 20.9498 22.64 20.9498 22.56 20.9498C22.5 20.9498 22.49 20.9298 22.51 20.8698C22.55 20.7098 22.58 20.5398 22.61 20.3698C22.61 20.3398 22.62 20.3198 22.62 20.2898C22.62 20.2698 22.6 20.2498 22.57 20.2698C22.54 20.2898 22.53 20.3198 22.5 20.3498C22.36 20.5398 22.2 20.7098 22 20.8498C21.88 20.9298 21.76 20.9798 21.61 20.9798C21.5 20.9798 21.41 20.9298 21.35 20.8498C21.27 20.7498 21.23 20.6298 21.23 20.4998C21.23 20.3298 21.26 20.1698 21.32 20.0198C21.42 19.7298 21.57 19.4598 21.8 19.2398C22.09 18.9598 22.42 18.8398 22.82 18.9198C22.93 18.9398 23.05 18.9298 23.17 18.9398C23.2 18.9398 23.22 18.9398 23.25 18.9598L23.26 18.9698ZM21.64 20.3798C21.64 20.3798 21.64 20.4098 21.64 20.4198C21.64 20.6098 21.75 20.6798 21.92 20.5898C21.99 20.5498 22.06 20.4998 22.12 20.4398C22.34 20.2298 22.53 19.9898 22.72 19.7398C22.74 19.7198 22.75 19.6898 22.76 19.6598C22.78 19.5498 22.8 19.4298 22.83 19.3198C22.85 19.2598 22.83 19.2398 22.77 19.2198C22.67 19.1898 22.56 19.1698 22.46 19.1898C22.3 19.2298 22.16 19.3098 22.05 19.4298C21.8 19.6998 21.68 20.0198 21.64 20.3798ZM22.63 20.2398C22.63 20.2398 22.63 20.2198 22.61 20.2198C22.61 20.2198 22.61 20.2298 22.6 20.2398C22.6 20.2498 22.6 20.2698 22.6 20.2698C22.61 20.2698 22.62 20.2698 22.62 20.2498L22.63 20.2398Z" fill="white"/>
<path d="M3.18002 20.4796C3.15335 20.6863 3.04669 20.8196 2.86002 20.8796C2.60002 20.9596 2.34002 21.0096 2.06002 21.0096C1.49002 21.0096 1.11002 20.6496 1.08002 20.0796C1.05002 19.4496 1.29002 18.9196 1.76002 18.4996C2.04002 18.2496 2.37002 18.1496 2.74002 18.1396C2.99002 18.1396 3.23002 18.1596 3.47002 18.2096C3.57002 18.2296 3.57002 18.2296 3.55002 18.3396C3.54002 18.3996 3.53002 18.4496 3.52002 18.5096C3.52002 18.5496 3.49002 18.5696 3.44002 18.5596C3.35002 18.5396 3.27002 18.5196 3.18002 18.4896C2.99002 18.4396 2.79002 18.4296 2.60002 18.4496C2.33002 18.4796 2.10002 18.5896 1.93002 18.7996C1.62002 19.1596 1.46002 19.5796 1.49002 20.0596C1.51002 20.4296 1.75002 20.6696 2.13002 20.6996C2.36002 20.7196 2.59002 20.6796 2.81002 20.6096C2.92002 20.5696 3.04002 20.5296 3.16002 20.4896L3.18002 20.4796Z" fill="white"/>
<path d="M26.3 20.2695C26.18 20.4495 26.05 20.6295 25.89 20.7795C25.76 20.8995 25.61 20.9895 25.43 20.9795C25.28 20.9795 25.17 20.8895 25.14 20.7295C25.12 20.6195 25.12 20.4995 25.14 20.3895C25.23 19.9495 25.32 19.4995 25.41 19.0595C25.43 18.9395 25.43 18.9395 25.55 18.9395C25.63 18.9395 25.71 18.9395 25.79 18.9395C25.79 19.0595 25.75 19.1695 25.73 19.2895C25.66 19.6495 25.58 20.0095 25.51 20.3695C25.51 20.3995 25.5 20.4295 25.5 20.4595C25.5 20.5995 25.58 20.6495 25.71 20.5795C25.8 20.5295 25.86 20.4595 25.93 20.3895C26.12 20.1695 26.27 19.9295 26.43 19.6895C26.47 19.6295 26.47 19.5595 26.49 19.4995C26.52 19.3395 26.55 19.1895 26.58 19.0295C26.59 18.9695 26.62 18.9395 26.69 18.9395C26.78 18.9395 26.87 18.9395 26.98 18.9395C26.92 19.2295 26.87 19.4995 26.81 19.7795C26.74 20.1195 26.67 20.4695 26.6 20.8095C26.57 20.9495 26.57 20.9495 26.44 20.9395C26.36 20.9395 26.26 20.9795 26.22 20.9195C26.18 20.8695 26.24 20.7795 26.25 20.6995C26.28 20.5695 26.3 20.4295 26.33 20.2995C26.33 20.2795 26.35 20.2495 26.33 20.2395C26.32 20.2395 26.31 20.2595 26.3 20.2795V20.2695Z" fill="white"/>
<path d="M9.67007 19.2298C9.57007 19.1998 9.47007 19.2298 9.37007 19.2098C9.37007 19.1998 9.36007 19.1898 9.37007 19.1798C9.39007 19.1098 9.37007 19.0098 9.43007 18.9698C9.48007 18.9198 9.57007 18.9498 9.65007 18.9498C9.74007 18.9498 9.75007 18.8998 9.76007 18.8398C9.80007 18.6198 9.91007 18.4298 10.0601 18.2698C10.3201 17.9998 10.6301 17.9498 10.9801 18.0298C11.0301 18.0398 11.0501 18.0698 11.0401 18.1198C11.0401 18.1298 11.0401 18.1498 11.0401 18.1598C11.0101 18.3098 11.0101 18.3098 10.8601 18.2798C10.8101 18.2798 10.7601 18.2598 10.7101 18.2598C10.5201 18.2498 10.3701 18.3298 10.2701 18.4898C10.1801 18.6198 10.1401 18.7698 10.1101 18.9398H10.6401C10.6601 19.0198 10.6201 19.0798 10.6201 19.1498C10.6201 19.1998 10.5901 19.2198 10.5401 19.2198C10.4201 19.2198 10.3101 19.2198 10.1901 19.2198C10.1034 19.2198 10.0534 19.2598 10.0401 19.3398C9.89007 20.0798 9.74007 20.8298 9.59007 21.5698C9.57674 21.6431 9.53007 21.6798 9.45007 21.6798C9.37007 21.6798 9.29007 21.6798 9.20007 21.6798C9.36007 20.8598 9.53007 20.0398 9.69007 19.2298H9.67007Z" fill="white"/>
<path d="M12.55 19.6001C12.54 20.0201 12.39 20.3901 12.1 20.6901C11.85 20.9501 11.54 21.0201 11.2 20.9801C10.91 20.9401 10.71 20.7101 10.7 20.3901C10.68 19.8901 10.86 19.4701 11.23 19.1301C11.46 18.9301 11.74 18.8701 12.04 18.9101C12.34 18.9501 12.53 19.1601 12.56 19.4601C12.56 19.5001 12.56 19.5501 12.56 19.5901L12.55 19.6001ZM11.08 20.2301C11.08 20.2301 11.08 20.3201 11.08 20.3801C11.08 20.4101 11.09 20.4501 11.11 20.4801C11.16 20.6301 11.27 20.7101 11.43 20.7101C11.58 20.7101 11.71 20.6501 11.81 20.5401C12.1 20.2301 12.2 19.8701 12.14 19.4601C12.11 19.2401 11.93 19.1301 11.71 19.1801C11.56 19.2101 11.44 19.3001 11.35 19.4201C11.17 19.6501 11.08 19.9201 11.07 20.2301H11.08Z" fill="white"/>
<path d="M3.58008 20.2993C3.59008 19.8993 3.73008 19.5593 3.98008 19.2593C4.22008 18.9793 4.53008 18.8693 4.90008 18.8993C5.19008 18.9293 5.38008 19.1093 5.43008 19.3893C5.45008 19.5193 5.45008 19.6493 5.43008 19.7693C5.38008 20.1093 5.23008 20.4093 4.99008 20.6693C4.74008 20.9293 4.43008 21.0093 4.08008 20.9693C3.81008 20.9293 3.62008 20.7293 3.59008 20.4493C3.59008 20.3893 3.59008 20.3393 3.58008 20.2893V20.2993ZM5.06008 19.6793C5.06008 19.6093 5.06008 19.5393 5.04008 19.4693C4.98008 19.2393 4.82008 19.1393 4.59008 19.1893C4.46008 19.2193 4.36008 19.2893 4.28008 19.3893C4.12008 19.5693 4.03008 19.7793 3.99008 20.0193C3.97008 20.1593 3.96008 20.2893 3.99008 20.4293C4.04008 20.6493 4.20008 20.7593 4.43008 20.7093C4.59008 20.6793 4.70008 20.5793 4.80008 20.4593C4.97008 20.2293 5.06008 19.9693 5.07008 19.6793H5.06008Z" fill="white"/>
<path d="M36.3 20.9899C36.24 20.9899 36.18 20.9899 36.11 20.9799C35.84 20.9299 35.65 20.7299 35.63 20.4499C35.59 19.9299 35.77 19.4899 36.15 19.1399C36.39 18.9299 36.68 18.8699 36.98 18.9199C37.25 18.9599 37.41 19.1399 37.46 19.3999C37.5 19.5999 37.47 19.7999 37.42 19.9899C37.35 20.2299 37.24 20.4399 37.08 20.6299C36.87 20.8699 36.61 20.9899 36.29 20.9899H36.3ZM37.1 19.6799C37.1 19.6099 37.1 19.5399 37.08 19.4699C37.02 19.2399 36.86 19.1399 36.63 19.1899C36.5 19.2199 36.4 19.2899 36.32 19.3899C36.16 19.5699 36.07 19.7799 36.03 20.0199C36.01 20.1599 36 20.2899 36.03 20.4299C36.08 20.6499 36.24 20.7599 36.47 20.7099C36.63 20.6799 36.74 20.5799 36.84 20.4599C37.01 20.2299 37.1 19.9699 37.11 19.6799H37.1Z" fill="white"/>
<path d="M30.8001 20.3894C30.7801 20.4894 30.7601 20.5494 30.7601 20.6194C30.7601 20.7294 30.7001 20.7694 30.6101 20.8094C30.3501 20.9194 30.0801 20.9894 29.8001 20.9894C29.4501 20.9794 29.2101 20.7594 29.1901 20.4094C29.1601 19.8394 29.3801 19.3894 29.8401 19.0594C30.0001 18.9494 30.1701 18.8994 30.3701 18.8994C30.6701 18.8994 30.9001 19.0594 30.8001 19.4794C30.7601 19.6594 30.6401 19.7894 30.4901 19.8994C30.2601 20.0594 30.0001 20.1494 29.7201 20.1794C29.5301 20.2094 29.5201 20.2094 29.5801 20.3994C29.6301 20.5894 29.7601 20.6894 29.9601 20.6794C30.2001 20.6794 30.4201 20.5894 30.6301 20.4794C30.6801 20.4494 30.7401 20.4194 30.8101 20.3794L30.8001 20.3894ZM29.5801 19.9294C29.8201 19.9094 30.0401 19.8794 30.2301 19.7394C30.3201 19.6794 30.4001 19.5894 30.4401 19.4794C30.4901 19.3294 30.3901 19.1994 30.2401 19.1994C30.1601 19.1994 30.0801 19.2294 30.0101 19.2694C29.7701 19.4194 29.6301 19.6394 29.5801 19.9194V19.9294Z" fill="white"/>
<path d="M34.5201 18.21C34.4701 18.44 34.4301 18.65 34.3901 18.87C34.2801 19.42 34.1701 19.97 34.0601 20.53C34.0601 20.54 34.0601 20.56 34.0601 20.57C34.0501 20.66 34.0501 20.66 34.1401 20.66C34.4801 20.66 34.8101 20.66 35.1501 20.66C35.2001 20.66 35.2501 20.66 35.2901 20.66C35.2901 20.66 35.3001 20.68 35.2901 20.68C35.2701 20.76 35.2901 20.88 35.2201 20.93C35.1601 20.98 35.0601 20.94 34.9701 20.94C34.5501 20.94 34.1401 20.94 33.7201 20.94C33.6801 20.94 33.6301 20.95 33.5801 20.93C33.5801 20.79 33.6201 20.66 33.6501 20.53C33.8001 19.8 33.9401 19.06 34.0901 18.33C34.1101 18.21 34.1101 18.21 34.2301 18.21C34.3101 18.21 34.4001 18.21 34.5001 18.21H34.5201Z" fill="white"/>
<path d="M39.4301 19.2497C39.3301 19.2397 39.2401 19.1997 39.1501 19.1897C38.8801 19.1497 38.6501 19.2197 38.4801 19.4197C38.2501 19.6797 38.1501 19.9897 38.1701 20.3397C38.1801 20.5997 38.3801 20.7297 38.6301 20.6797C38.8401 20.6397 39.0301 20.5697 39.2201 20.4497C39.2201 20.5697 39.1901 20.6697 39.1701 20.7797C39.1701 20.8097 39.1401 20.8197 39.1101 20.8297C38.8701 20.9297 38.6301 20.9997 38.3601 20.9897C38.0601 20.9797 37.8401 20.7997 37.7901 20.5097C37.6501 19.7297 38.2501 19.0197 38.8501 18.9197C39.0501 18.8897 39.2401 18.9197 39.4301 18.9497C39.4601 18.9497 39.4901 18.9697 39.4801 19.0097C39.4601 19.0897 39.4501 19.1597 39.4301 19.2497Z" fill="white"/>
<path d="M23.9901 19.2298C23.9301 19.2098 23.8801 19.2198 23.8301 19.2098C23.7801 19.2098 23.7301 19.2098 23.6901 19.2098C23.6901 19.1998 23.6901 19.1898 23.6901 19.1798C23.7101 19.1098 23.6901 19.0098 23.7501 18.9698C23.8001 18.9198 23.8901 18.9598 23.9601 18.9498C24.0601 18.9498 24.0601 18.9498 24.0801 18.8498C24.0801 18.8098 24.1001 18.7698 24.1001 18.7298C24.1301 18.5898 24.1301 18.5898 24.2701 18.5698C24.3401 18.5698 24.4201 18.5598 24.5001 18.5498C24.4801 18.6698 24.4601 18.7698 24.4301 18.8798C24.4201 18.9298 24.4301 18.9498 24.4901 18.9498C24.6001 18.9498 24.7101 18.9498 24.8201 18.9498C24.8701 18.9498 24.8901 18.9698 24.8801 19.0198C24.8501 19.2198 24.8501 19.2198 24.6601 19.2198C24.5901 19.2198 24.5301 19.2198 24.4601 19.2198C24.3901 19.2198 24.3601 19.2398 24.3501 19.3098C24.3001 19.5898 24.2401 19.8698 24.1901 20.1498C24.1701 20.2498 24.1501 20.3598 24.1301 20.4598C24.1101 20.6398 24.1901 20.7298 24.3701 20.7198C24.4301 20.7198 24.4801 20.6998 24.5501 20.6898C24.5501 20.7298 24.5401 20.7698 24.5301 20.8098C24.5001 20.9598 24.4801 20.9798 24.3401 20.9898C24.2501 20.9898 24.1501 20.9898 24.0601 20.9698C23.8601 20.9098 23.7601 20.7698 23.7601 20.5498C23.7601 20.3498 23.8201 20.1598 23.8601 19.9598C23.9001 19.7198 23.9501 19.4798 24.0001 19.2398L23.9901 19.2298Z" fill="white"/>
<path d="M15.61 20.6896C15.61 20.6896 15.6 20.7696 15.59 20.8096C15.56 20.9596 15.54 20.9796 15.38 20.9896C15.29 20.9896 15.19 20.9896 15.1 20.9596C14.91 20.8996 14.81 20.7596 14.81 20.5596C14.81 20.3496 14.87 20.1596 14.91 19.9596C14.95 19.7196 15 19.4796 15.05 19.2396C14.95 19.1996 14.85 19.2396 14.75 19.2196C14.75 19.2096 14.75 19.1996 14.75 19.1896C14.77 19.0362 14.8567 18.9596 15.01 18.9596C15.1633 18.9596 15.2033 18.9262 15.13 18.8596C15.13 18.8596 15.15 18.7696 15.16 18.7296C15.19 18.5996 15.19 18.5996 15.31 18.5796C15.39 18.5796 15.47 18.5696 15.56 18.5596C15.54 18.6596 15.52 18.7496 15.51 18.8496C15.49 18.9596 15.49 18.9596 15.61 18.9596C15.7 18.9596 15.8 18.9596 15.89 18.9596C15.94 18.9596 15.96 18.9696 15.95 19.0296C15.92 19.2296 15.93 19.2296 15.73 19.2296C15.66 19.2296 15.6 19.2296 15.53 19.2296C15.46 19.2296 15.43 19.2496 15.42 19.3196C15.37 19.5996 15.31 19.8796 15.26 20.1596C15.24 20.2596 15.22 20.3696 15.2 20.4696C15.18 20.6496 15.26 20.7396 15.44 20.7296C15.5 20.7296 15.55 20.7096 15.62 20.6996L15.61 20.6896Z" fill="white"/>
<path d="M28.16 18.9396C28.13 19.1096 28.09 19.2596 28.07 19.4196C28.06 19.4796 28 19.5696 28.07 19.5996C28.12 19.6196 28.15 19.5196 28.19 19.4796C28.32 19.3196 28.46 19.1596 28.63 19.0396C28.77 18.9396 28.93 18.8896 29.11 18.9096C29.11 19.0496 29.06 19.1696 29.04 19.2996C29.03 19.2996 29.02 19.3096 29.01 19.3096C28.83 19.2696 28.68 19.3396 28.55 19.4596C28.39 19.6096 28.26 19.7996 28.11 19.9596C27.95 20.1396 27.86 20.3396 27.83 20.5796C27.82 20.6796 27.79 20.7796 27.77 20.8796C27.77 20.9296 27.74 20.9596 27.68 20.9496C27.6 20.9496 27.53 20.9496 27.45 20.9496C27.39 20.9496 27.38 20.9296 27.39 20.8796C27.43 20.6796 27.47 20.4696 27.51 20.2696C27.59 19.8696 27.67 19.4796 27.75 19.0796C27.75 19.0496 27.76 19.0296 27.77 18.9996C27.77 18.9596 27.79 18.9496 27.83 18.9496C27.93 18.9496 28.03 18.9496 28.15 18.9496L28.16 18.9396ZM28.06 19.6296C28.06 19.6296 28.05 19.6096 28.04 19.6096C28.03 19.6096 28.02 19.6296 28.02 19.6396C28.02 19.6396 28.02 19.6496 28.03 19.6596C28.03 19.6496 28.04 19.6396 28.05 19.6296H28.06Z" fill="white"/>
<path d="M13.62 18.94C13.58 19.11 13.55 19.27 13.52 19.43C13.52 19.48 13.45 19.56 13.52 19.59C13.56 19.61 13.59 19.52 13.63 19.48C13.76 19.31 13.9 19.15 14.08 19.03C14.22 18.93 14.38 18.88 14.56 18.91C14.56 19.05 14.51 19.17 14.49 19.31C14.23 19.24 14.06 19.38 13.9 19.56C13.72 19.76 13.56 19.98 13.4 20.2C13.38 20.23 13.36 20.27 13.35 20.31C13.32 20.48 13.28 20.66 13.25 20.83C13.23 20.95 13.23 20.95 13.1 20.95C13.06 20.95 13.03 20.95 12.99 20.95C12.82 20.95 12.86 20.95 12.88 20.81C12.92 20.58 12.97 20.36 13.01 20.13C13.08 19.78 13.15 19.43 13.22 19.07C13.25 18.92 13.22 18.94 13.38 18.94C13.45 18.94 13.53 18.94 13.62 18.94ZM13.52 19.63C13.52 19.63 13.51 19.61 13.5 19.61C13.49 19.61 13.48 19.63 13.48 19.64C13.48 19.64 13.48 19.65 13.49 19.66C13.49 19.65 13.5 19.64 13.51 19.63H13.52Z" fill="white"/>
<path d="M42.94 18.0393C42.9 18.2593 42.86 18.4593 42.82 18.6593C42.68 19.3693 42.54 20.0793 42.4 20.7893C42.38 20.896 42.3167 20.9493 42.21 20.9493C41.99 20.9493 41.99 20.9493 42.03 20.7293C42.2 19.8893 42.36 19.0493 42.53 18.2093C42.56 18.0293 42.56 18.0293 42.75 18.0293C42.81 18.0293 42.86 18.0293 42.94 18.0293V18.0393Z" fill="white"/>
<path d="M16.67 20.4895C16.64 20.6395 16.61 20.7595 16.59 20.8895C16.59 20.9295 16.56 20.9395 16.53 20.9395C16.42 20.9395 16.3 20.9395 16.19 20.9395C16.15 20.9395 16.13 20.9295 16.14 20.8795C16.16 20.7595 16.19 20.6495 16.21 20.5295C16.21 20.4995 16.23 20.4795 16.26 20.4795C16.4 20.4795 16.53 20.4795 16.68 20.4795L16.67 20.4895Z" fill="white"/>
<path d="M31.2001 20.95C31.2301 20.8 31.2601 20.68 31.2801 20.55C31.2801 20.51 31.3101 20.5 31.3401 20.5C31.4501 20.5 31.5701 20.5 31.6801 20.5C31.7201 20.5 31.7401 20.51 31.7301 20.55C31.7101 20.67 31.6901 20.78 31.6601 20.9C31.6601 20.93 31.6401 20.95 31.6101 20.95C31.4701 20.95 31.3401 20.95 31.1901 20.95H31.2001Z" fill="white"/>
<path d="M22.6401 20.24C22.6401 20.24 22.6301 20.27 22.6201 20.26C22.6101 20.26 22.6001 20.24 22.6201 20.23C22.6201 20.23 22.6201 20.22 22.6301 20.21C22.6301 20.21 22.6501 20.21 22.6501 20.23L22.6401 20.24Z" fill="white"/>
<path d="M26.3 20.2695C26.3 20.2695 26.32 20.2295 26.33 20.2295C26.36 20.2395 26.34 20.2695 26.33 20.2895C26.32 20.2895 26.31 20.2695 26.3 20.2595V20.2695Z" fill="white"/>
<path d="M28.06 19.6401C28.06 19.6401 28.05 19.6601 28.04 19.6701C28.04 19.6701 28.03 19.6601 28.03 19.6501C28.03 19.6401 28.03 19.6301 28.05 19.6201C28.05 19.6201 28.06 19.6201 28.07 19.6401H28.06Z" fill="white"/>
<path d="M13.52 19.6401C13.52 19.6401 13.51 19.6601 13.5 19.6701C13.5 19.6701 13.49 19.6601 13.49 19.6501C13.49 19.6401 13.49 19.6301 13.51 19.6201C13.51 19.6201 13.52 19.6201 13.53 19.6401H13.52Z" fill="white"/>
<path d="M45.1501 7.80984C45.2501 7.98984 45.3401 8.15984 45.4401 8.32984C45.4801 8.39984 45.4701 8.40984 45.3901 8.41984C45.2801 8.42984 45.2001 8.38984 45.1301 8.31984C45.0601 8.23984 45.0101 8.13984 44.9601 8.04984C44.9301 7.97984 44.8901 7.91984 44.8601 7.84984C44.8501 7.82984 44.8301 7.79984 44.8001 7.80984C44.7701 7.80984 44.7501 7.83984 44.7501 7.85984C44.7501 7.89984 44.7501 7.93984 44.7501 7.97984C44.7501 8.06984 44.7501 8.16984 44.7501 8.25984C44.7501 8.29984 44.7501 8.35984 44.6901 8.36984C44.6301 8.38984 44.5701 8.36984 44.5201 8.32984C44.4901 8.29984 44.4801 8.26984 44.4701 8.22984C44.4501 8.15984 44.4501 8.09984 44.4501 8.02984C44.4801 7.75984 44.4701 7.47984 44.4901 7.20984C44.4901 7.13984 44.5101 7.10984 44.5801 7.11984C44.6701 7.12984 44.7501 7.08984 44.8401 7.08984C44.9201 7.08984 44.9901 7.08984 45.0701 7.08984C45.2601 7.10984 45.4001 7.23984 45.4301 7.42984C45.4501 7.53984 45.4101 7.62984 45.3301 7.69984C45.2801 7.73984 45.2301 7.76984 45.1701 7.80984H45.1501ZM44.7101 7.44984C44.7101 7.60984 44.7701 7.67984 44.9001 7.66984C44.9701 7.66984 45.0301 7.62984 45.0801 7.55984C45.1401 7.46984 45.1201 7.37984 45.0201 7.32984C44.9401 7.28984 44.8601 7.29984 44.7701 7.30984C44.7401 7.30984 44.7301 7.33984 44.7201 7.36984C44.7201 7.40984 44.7201 7.43984 44.7201 7.44984H44.7101Z" fill="white"/>
<path d="M26.3901 11.88C26.3701 11.09 26.1401 10.45 25.7001 9.97996C25.2101 9.45996 24.5501 9.20996 23.6501 9.20996C22.7501 9.20996 22.1001 9.45996 21.6501 9.97996C21.2301 10.45 21.0301 11.09 21.0501 11.88C21.0701 12.67 21.3001 13.31 21.7301 13.78C22.2101 14.3 22.8801 14.55 23.7701 14.55C24.6601 14.55 25.3301 14.3 25.7801 13.79C26.2001 13.32 26.4001 12.68 26.3801 11.89M24.3101 13.76C24.1601 13.89 23.9701 13.96 23.7501 13.96C22.6701 13.96 22.6401 12.4 22.6201 11.89C22.6001 10.93 22.7601 10.31 23.1001 10.02C23.2601 9.88996 23.4501 9.81996 23.6701 9.81996C24.7401 9.81996 24.7701 11.37 24.7801 11.89C24.8001 12.86 24.6501 13.47 24.3101 13.77" fill="white"/>
<path d="M36.72 9.50986C36.63 9.62986 36.58 9.76986 36.48 9.76986C36.4 9.76986 36.35 9.70986 36.26 9.63986C35.81 9.30986 35.41 9.21986 34.84 9.21986C34 9.21986 33.38 9.49986 32.94 10.0599C32.56 10.5599 32.37 11.1999 32.38 11.9699C32.39 12.6799 32.6 13.2799 32.99 13.7499C33.43 14.2799 34.02 14.5399 34.8 14.5399C35.28 14.5399 35.61 14.4599 35.88 14.3199C36.08 14.2199 36.18 14.2399 36.18 14.4299C36.18 15.6399 35.65 16.2699 34.81 16.2699C33.97 16.2699 33.58 16.0099 33.35 15.8599C33.07 15.8799 32.74 16.1999 32.67 16.4099C33.19 16.4099 33.49 16.8299 34.98 16.8299C36.47 16.8299 37.65 15.7899 37.65 13.8299V10.5599C37.64 10.0699 37.67 9.63986 37.97 9.27986C37.32 9.07986 36.88 9.27986 36.72 9.48986M35.36 13.9799C34.5 13.9799 34.02 13.2099 33.99 11.8399C33.97 10.8999 34.14 10.2899 34.5 9.96986C34.69 9.80986 34.92 9.73986 35.2 9.73986C35.84 9.73986 36.18 10.1799 36.18 10.6499V13.3899C36.18 13.7899 35.96 13.9699 35.36 13.9699" fill="white"/>
<path d="M32.0201 13.1902V8.54016C32.0201 7.34016 31.5201 6.91016 30.8501 6.91016C30.4601 6.91016 30.3501 7.02016 30.3001 7.07016C30.4601 7.19016 30.5501 7.54016 30.5501 7.92016V9.33016C30.5501 9.52016 30.4501 9.54016 30.2501 9.44016C29.9801 9.30016 29.6501 9.22016 29.1701 9.22016C28.3901 9.22016 27.8001 9.48016 27.3601 10.0102C26.9701 10.4802 26.7701 11.0802 26.7501 11.7902C26.7301 12.5602 26.9201 13.2002 27.3101 13.7002C27.7501 14.2702 28.3701 14.5402 29.2101 14.5402C29.7801 14.5402 30.1701 14.4502 30.6301 14.1202C30.7201 14.0502 30.7601 13.9902 30.8501 13.9902C30.9501 13.9902 30.9901 14.1302 31.0901 14.2502C31.2601 14.4602 31.7001 14.6602 32.3501 14.4602C32.0501 14.1002 32.0201 13.6702 32.0301 13.1802M30.5601 13.0702C30.5601 13.5402 30.2201 13.9802 29.5801 13.9802C29.3001 13.9802 29.0701 13.9202 28.8801 13.7502C28.5201 13.4302 28.3501 12.8202 28.3701 11.8802C28.4001 10.5102 28.8801 9.74016 29.7401 9.74016C30.3401 9.74016 30.5601 9.93016 30.5601 10.3202V13.0602V13.0702Z" fill="white"/>
<path d="M42.4601 13.74C42.2901 13.85 41.9101 14.04 41.3201 14.04C40.5301 14.04 39.8601 13.58 39.7001 12.87C39.6501 12.64 39.7201 12.45 40.4001 12.35C41.0801 12.25 41.6801 12 42.1001 11.71C42.5101 11.44 42.9101 10.85 42.9001 10.15C42.1201 9.44996 41.3101 9.20996 40.7301 9.20996C39.1501 9.20996 38.1101 9.99996 38.0301 11.54C37.9201 13.56 39.4301 14.54 41.1901 14.54C42.1701 14.54 42.6501 14.18 43.0501 14.25C43.0001 14 42.7501 13.79 42.4501 13.73M39.4301 11.46C39.4301 11.12 39.6001 10.62 39.9401 10.22C40.3401 9.74996 40.7801 9.71996 41.0901 9.78996C41.3301 9.83996 41.5101 9.95996 41.6301 10.14C41.7501 10.32 41.7701 10.51 41.7201 10.72C41.5601 11.45 40.2601 11.77 39.6701 11.78C39.5001 11.78 39.4201 11.63 39.4201 11.46" fill="white"/>
<path d="M21.03 13.6904C20.55 13.9004 20.24 14.1004 18.91 13.7104C19.01 13.4204 19.06 13.1104 18.95 12.5204C18.85 11.9904 18.69 11.4504 18.73 10.1204C18.81 7.73039 19.4 7.79039 19.34 6.90039C18.76 7.56039 17.98 8.09039 17.22 8.36039C17.61 9.43039 17.52 10.7904 17.35 11.7504C17.18 12.6904 16.93 13.3504 17.18 14.4904C18.43 14.2704 18.34 14.5404 19.87 14.5404C20.79 14.5404 21.16 14.0304 21.63 14.2004C21.51 13.9504 21.2 13.7304 21.03 13.6904Z" fill="white"/>
<path d="M19.2501 6.81055C18.2701 7.61055 16.6801 8.26055 15.4401 8.46055C14.6701 8.55055 13.7801 8.64055 13.0701 8.53055C13.6001 8.00055 14.3701 7.55055 15.1601 7.27055C16.5901 6.78055 17.8101 6.81055 19.2501 6.82055" fill="white"/>
<path d="M8.37001 14C7.78001 14 7.23001 13.68 6.95001 13.09C6.77001 12.71 6.68001 12.24 6.67001 11.71C6.66001 11.24 6.72001 10.84 6.85001 10.51C7.12001 9.84996 7.60001 9.70996 7.96001 9.70996C8.18001 9.70996 8.53001 9.78996 8.70001 9.90996C8.88001 10.03 8.97001 10.2 8.97001 10.4C8.97001 10.42 8.97001 10.44 8.97001 10.46C9.51001 10.38 9.69001 9.95996 9.96001 9.69996C9.32001 9.37996 8.43001 9.20996 7.70001 9.20996C6.82001 9.20996 6.16001 9.46996 5.68001 10.01C5.24001 10.5 5.03001 11.15 5.05001 11.93C5.07001 12.68 5.30001 13.3 5.76001 13.8C6.26001 14.33 7.01001 14.54 8.03001 14.54C9.20001 14.54 9.54001 14.17 9.94001 14.24C9.82001 14.03 9.49001 13.72 9.34001 13.72C9.10001 13.89 8.84001 13.98 8.36001 13.98" fill="white"/>
<path d="M15.0301 11.88C15.0101 11.09 14.7801 10.45 14.3401 9.97996C13.8601 9.45996 13.1901 9.20996 12.2901 9.20996C11.3901 9.20996 10.7401 9.45996 10.2901 9.97996C9.87008 10.45 9.67008 11.09 9.69008 11.88C9.71008 12.67 9.94008 13.31 10.3701 13.78C10.8501 14.3 11.5201 14.55 12.4101 14.55C13.3001 14.55 13.9701 14.3 14.4201 13.78C14.8401 13.31 15.0401 12.67 15.0201 11.88M12.9501 13.75C12.8001 13.88 12.6101 13.95 12.3901 13.95C11.3101 13.95 11.2801 12.39 11.2701 11.88C11.2501 10.92 11.4101 10.3 11.7501 10.01C11.9101 9.87996 12.1001 9.80996 12.3201 9.80996C13.3901 9.80996 13.4201 11.36 13.4301 11.88C13.4501 12.85 13.3001 13.46 12.9601 13.76" fill="white"/>
<path d="M4.43004 13.74C4.26004 13.85 3.88004 14.04 3.29004 14.04C2.50004 14.04 1.83004 13.58 1.67004 12.87C1.62004 12.64 1.69004 12.45 2.37004 12.35C3.05004 12.25 3.65004 12 4.07004 11.71C4.48004 11.44 4.87004 10.85 4.87004 10.15C4.09004 9.44996 3.28004 9.20996 2.70004 9.20996C1.13004 9.21996 0.0900414 9.99996 4.14182e-05 11.54C-0.109959 13.56 1.40004 14.54 3.16004 14.54C4.14004 14.54 4.62004 14.18 5.02004 14.25C4.96004 14 4.72004 13.79 4.42004 13.73M1.40004 11.46C1.40004 11.12 1.56004 10.62 1.91004 10.22C2.31004 9.74996 2.75004 9.71996 3.06004 9.78996C3.30004 9.83996 3.48004 9.95996 3.60004 10.14C3.72004 10.32 3.74004 10.51 3.69004 10.72C3.53004 11.45 2.22004 11.77 1.64004 11.78C1.47004 11.78 1.39004 11.63 1.39004 11.46" fill="white"/>
<path d="M19.1401 6.7104C19.1401 6.7104 17.2701 5.5404 14.2101 5.8004C14.9601 6.2704 15.5001 6.5904 16.2301 6.7204C16.8801 6.5804 18.0901 6.5904 19.1401 6.7204" fill="white"/>
<path d="M12.5301 0.900391C12.7601 0.900391 12.8801 0.960391 12.9901 1.07039C12.8001 1.16039 12.8201 1.28039 12.8701 1.59039C12.8701 1.59039 13.1601 3.55039 13.2001 3.76039C13.2301 3.98039 13.3301 4.05039 13.4901 4.11039C13.4201 4.19039 13.1901 4.24039 13.0401 4.24039C12.6801 4.24039 12.5901 4.20039 12.4101 4.11039C12.6101 4.08039 12.8101 3.93039 12.7401 3.58039C12.7001 3.29039 12.5301 2.14039 12.4501 1.63039C12.4501 1.56039 12.3601 1.55039 12.2601 1.63039C12.1501 1.73039 11.6801 2.30039 11.5701 3.44039C11.1701 2.75039 11.0901 2.34039 10.7101 1.80039C10.6701 1.74039 10.6101 1.70039 10.6001 1.75039C10.5401 2.00039 10.4101 3.42039 10.4101 3.42039C10.3801 3.86039 10.5201 4.05039 10.6801 4.11039C10.6801 4.11039 10.5101 4.25039 9.83007 4.25039C9.46007 4.25039 9.10007 4.10039 8.95007 3.94039C9.25007 3.88039 9.34007 3.59039 9.39007 3.23039C9.46007 2.78039 9.58007 1.56039 9.58007 1.56039C9.59007 1.44039 9.60007 1.19039 9.36007 1.13039C9.50007 0.990391 9.73007 0.91039 9.99007 0.91039C10.6201 0.91039 11.3001 1.66039 11.4401 2.36039C11.6101 1.66039 12.0201 0.91039 12.5301 0.91039" fill="white"/>
<path d="M25.3601 1.00039C25.2201 1.08039 25.18 1.25039 25.18 1.42039V2.27039H26.3601V1.42039C26.3601 1.23039 26.34 1.12039 26.14 1.12039C26.2 1.00039 26.3701 0.900391 26.6201 0.900391C26.8701 0.900391 27.1 0.99039 27.1 0.99039C26.96 1.04039 26.91 1.11039 26.91 1.42039V3.67039C26.91 3.91039 27.0401 4.00039 27.2001 4.00039C27.1301 4.17039 26.89 4.24039 26.66 4.24039C26.49 4.24039 26.31 4.19039 26.21 4.12039C26.31 4.08039 26.3601 3.97039 26.3601 3.71039V2.64039H25.18V3.64039C25.18 3.86039 25.25 3.98039 25.39 4.01039C25.28 4.16039 24.9801 4.24039 24.7001 4.24039C24.4201 4.24039 24.07 4.21039 23.8 4.09039C23.99 4.04039 24.14 3.87039 24.14 3.62039V1.72039C24.14 1.40039 24.08 1.17039 23.82 1.17039C23.93 0.980391 24.39 0.900391 24.74 0.900391C25.11 0.900391 25.3601 0.99039 25.3601 0.99039" fill="white"/>
<path d="M28.98 0.910156C29.45 0.910156 29.75 1.18016 29.87 1.51016C29.87 1.51016 30.59 3.56016 30.65 3.75016C30.71 3.93016 30.84 4.05016 31 4.08016C30.8 4.26016 30.57 4.26016 30.37 4.26016C30.37 4.26016 29.81 4.26016 29.7 3.92016C29.68 3.85016 29.4 3.05016 29.4 3.05016H28.4L28.22 3.58016C28.13 3.84016 28.26 4.05016 28.44 4.08016C28.31 4.24016 27.94 4.26016 27.78 4.26016C27.78 4.26016 27.5 4.26016 27.37 4.14016C27.55 4.12016 27.58 4.04016 27.63 3.90016L28.5 1.39016C28.55 1.25016 28.53 1.11016 28.34 1.07016C28.45 0.940157 28.84 0.910156 28.99 0.910156M28.54 2.67016H29.27C29.27 2.67016 28.96 1.78016 28.94 1.73016C28.92 1.68016 28.88 1.68016 28.86 1.73016C28.84 1.78016 28.53 2.67016 28.53 2.67016" fill="white"/>
<path d="M15.2101 0.900391C15.6801 0.900391 15.9801 1.17039 16.1001 1.50039C16.1001 1.50039 16.8201 3.54039 16.8801 3.73039C16.9401 3.91039 17.0701 4.03039 17.2401 4.06039C17.0401 4.24039 16.8101 4.24039 16.6101 4.24039C16.6101 4.24039 16.0601 4.24039 15.9401 3.90039C15.9201 3.83039 15.6401 3.03039 15.6401 3.03039H14.6401L14.4501 3.56039C14.3601 3.82039 14.4301 4.04039 14.6701 4.06039C14.5401 4.22039 14.1701 4.24039 14.0101 4.24039C14.0101 4.24039 13.7301 4.24039 13.6001 4.12039C13.7901 4.10039 13.8101 4.02039 13.8601 3.88039L14.7301 1.38039C14.7801 1.24039 14.7601 1.10039 14.5701 1.06039C14.6801 0.93039 15.0701 0.900391 15.2201 0.900391M14.7801 2.66039H15.5101C15.5101 2.66039 15.2001 1.77039 15.1801 1.72039C15.1601 1.67039 15.1201 1.67039 15.1001 1.72039C15.0801 1.77039 14.7701 2.66039 14.7701 2.66039" fill="white"/>
<path d="M31.2101 0.870117C31.5101 0.870117 31.8701 1.00012 31.8701 1.44012V2.59012C31.8701 3.54012 32.1301 3.84012 32.6901 3.84012C33.0701 3.84012 33.4101 3.69012 33.4101 2.79012V1.82012C33.4101 1.35012 33.3201 1.17012 33.0101 1.10012C33.1601 0.870117 33.5301 0.870117 33.7301 0.870117C33.7301 0.870117 34.0201 0.870117 34.1001 0.950117C33.9701 1.00012 33.9301 1.12012 33.9301 1.59012V2.79012C33.9301 3.82012 33.3801 4.29012 32.6401 4.29012C31.3301 4.29012 30.8301 3.85012 30.8301 2.71012V1.58012C30.8301 1.44012 30.8301 1.11012 30.6801 0.990117C30.7501 0.940117 30.9101 0.870117 31.2101 0.870117Z" fill="white"/>
<path d="M18.56 3.47039V1.46039C18.56 1.29039 18.6 1.09039 18.71 1.03039C18.55 0.930391 18.38 0.900391 18.1 0.900391C17.84 0.900391 17.4 0.92039 17.24 1.10039C17.42 1.19039 17.53 1.35039 17.53 1.68039V3.69039C17.53 3.86039 17.49 4.06039 17.38 4.12039C17.54 4.22039 17.84 4.25039 18.12 4.25039C18.38 4.25039 18.69 4.23039 18.86 4.05039C18.68 3.96039 18.57 3.80039 18.57 3.47039" fill="white"/>
<path d="M22.55 3.95012C22.17 3.95012 21.81 3.74012 21.63 3.36012C21.52 3.11012 21.46 2.81012 21.45 2.47012C21.45 2.17012 21.48 1.91012 21.57 1.69012C21.74 1.26012 22.05 1.18012 22.29 1.18012C22.43 1.18012 22.66 1.23012 22.77 1.31012C22.89 1.39012 22.95 1.50012 22.94 1.63012C22.94 1.64012 22.94 1.65012 22.94 1.67012C23.29 1.62012 23.4 1.35012 23.58 1.18012C23.17 0.970117 22.59 0.870117 22.12 0.870117C21.55 0.870117 21.13 1.04012 20.82 1.39012C20.54 1.71012 20.4 2.13012 20.41 2.63012C20.42 3.11012 20.57 3.52012 20.87 3.83012C21.19 4.18012 21.68 4.31012 22.34 4.31012C23.1 4.31012 23.32 4.07012 23.57 4.12012C23.49 3.98012 23.28 3.79012 23.19 3.79012C23.03 3.90012 22.87 3.96012 22.56 3.96012" fill="white"/>
</svg>
