<svg width="50" height="31" viewBox="0 0 50 31" fill="none" xmlns="http://www.w3.org/2000/svg">
<path d="M49.81 19.9199C49.8 20.4899 49.41 21.0099 48.84 21.1399C48.31 21.2599 47.84 21.1199 47.46 20.7299C46.88 20.1399 47.06 19.1899 47.62 18.7499C48.16 18.3299 48.94 18.3999 49.37 18.8099C49.67 19.0899 49.82 19.4299 49.81 19.9099V19.9199ZM48.48 20.9399C49.12 20.9399 49.59 20.4699 49.59 19.8399C49.59 19.1899 49.11 18.6899 48.47 18.6999C47.88 18.6999 47.33 19.0899 47.32 19.8399C47.32 20.4599 47.82 20.9399 48.48 20.9399Z" fill="white"/>
<path d="M48.69 19.8801C48.79 20.0601 48.89 20.2401 48.99 20.4101C49.03 20.4801 49.02 20.4901 48.94 20.5001C48.83 20.5101 48.75 20.4701 48.67 20.3901C48.6 20.3101 48.55 20.2101 48.5 20.1101C48.47 20.0401 48.43 19.9701 48.4 19.9001C48.39 19.8701 48.37 19.8501 48.34 19.8601C48.31 19.8601 48.29 19.8901 48.29 19.9101C48.29 19.9501 48.29 19.9901 48.29 20.0301C48.29 20.1301 48.29 20.2201 48.29 20.3201C48.29 20.3601 48.29 20.4201 48.23 20.4301C48.17 20.4501 48.1 20.4301 48.05 20.3901C48.02 20.3601 48 20.3201 47.99 20.2801C47.97 20.2101 47.96 20.1501 47.97 20.0801C48 19.8001 47.99 19.5201 48.01 19.2401C48.01 19.1701 48.03 19.1401 48.1 19.1501C48.19 19.1601 48.28 19.1201 48.37 19.1201C48.45 19.1201 48.52 19.1201 48.6 19.1201C48.79 19.1401 48.93 19.2801 48.97 19.4701C48.99 19.5801 48.95 19.6801 48.86 19.7501C48.81 19.7901 48.76 19.8201 48.7 19.8601L48.69 19.8801ZM48.24 19.5101C48.24 19.6801 48.31 19.7501 48.43 19.7301C48.5 19.7301 48.57 19.6901 48.61 19.6201C48.67 19.5301 48.65 19.4301 48.55 19.3801C48.47 19.3401 48.38 19.3501 48.3 19.3601C48.27 19.3601 48.26 19.3901 48.25 19.4201C48.25 19.4601 48.25 19.4901 48.25 19.5101H48.24Z" fill="white"/>
<path d="M9.64 20.2498C9.64 20.2498 9.67 20.2898 9.67 20.3198C9.67 20.3798 9.62 20.4098 9.52 20.4098C9.5 20.4098 9.46999 20.4098 9.42999 20.4098C9.38999 20.4098 9.36 20.4098 9.34 20.4098C9.19 20.4098 9.04 20.5498 8.89 20.8398C8.28 22.0298 7.88 23.4998 7.69 25.2698C7.76 25.1298 7.86 24.9498 7.98 24.7298C8.01 24.6598 8.06 24.6298 8.11 24.6298C8.17 24.6298 8.2 24.6698 8.2 24.7498C8.2 24.7898 8.19 24.8298 8.17 24.8798C8.03 25.2098 7.89999 25.6798 7.78999 26.2898C7.75999 26.4198 7.7 26.4898 7.61 26.4898C7.5 26.4898 7.34 26.4098 7.12 26.2398C7.02 26.1598 6.96 26.0998 6.94 26.0498C6.92 26.0098 6.92 25.9198 6.94 25.7798C7.05 25.0998 7.2 24.3298 7.38 23.4798C7.59 22.4998 7.74 21.9298 7.83 21.7498C7.5 22.1398 7.1 22.7098 6.62 23.4598C6.15 24.1998 5.74 24.9098 5.39 25.5698C5.45 25.7698 5.48 25.9098 5.48 26.0098C5.48 26.1298 5.38 26.2898 5.17 26.4798C5.06 26.5798 4.99001 26.6298 4.96001 26.6298C4.93001 26.6298 4.82999 26.5098 4.67999 26.2498C4.60999 26.1398 4.58 26.0598 4.58 25.9998C4.58 25.9598 4.63 25.8498 4.72 25.6798C4.52 24.9298 4.15 24.0198 3.62 22.9498C3.28 23.8098 2.94 24.5798 2.59 25.2898C2.82 25.5398 2.92999 25.7098 2.92999 25.7998C2.92999 25.8698 2.85 25.9098 2.69 25.9298C2.36 25.9698 2.08 26.1398 1.86 26.4398C1.84 26.5398 1.79 26.5898 1.72 26.5898C1.61 26.5898 1.45 26.4898 1.23 26.2998C1.16 26.2398 1.13 26.1898 1.13 26.1498C1.13 26.1098 1.16001 26.0698 1.21001 26.0198C1.42001 25.8398 1.65999 25.6598 1.92999 25.4898C2.50999 24.5198 2.99 23.4998 3.36 22.4298C2.98 21.5898 2.49999 20.9998 1.92999 20.6698C1.83999 20.6098 1.75 20.5798 1.66 20.5798C1.54 20.5798 1.42 20.6398 1.28 20.7598C1.16 20.8898 1.04 21.0198 0.910004 21.1598C0.840004 21.2398 0.769997 21.2798 0.699997 21.2798C0.639997 21.2798 0.619995 21.2498 0.619995 21.1998C0.619995 21.1698 0.619994 21.1398 0.649994 21.0998C1.06999 20.2498 1.48 19.8298 1.86 19.8498C2.32 19.8598 2.91 20.4298 3.64 21.5498C3.82 21.1398 3.91 20.7698 3.91 20.4398C3.91 20.2698 3.93 20.1898 3.98 20.1898C4.03 20.1898 4.14 20.2598 4.31 20.3898C4.36 20.4298 4.38 20.5098 4.38 20.6398C4.38 20.7998 4.23 21.2798 3.94 22.0698C4.49 23.1398 4.91 24.1198 5.2 25.0098C6.31 23.1698 7.3 21.7398 8.19 20.6998C8.3 20.4498 8.44 20.1998 8.59 19.9598C8.66 19.8498 8.74 19.7998 8.84 19.7998C8.99 19.7998 9.25 19.9498 9.62 20.2498" fill="white"/>
<path d="M11.24 24.8101C11.24 24.8101 11.16 24.8301 11.12 24.8701C10.47 25.5301 9.96002 25.9201 9.60002 26.0401C9.54002 26.0601 9.49001 26.0701 9.45001 26.0701C9.35001 26.0701 9.30001 25.9901 9.29001 25.8301C9.29001 25.5501 9.32002 25.2401 9.41002 24.8801C9.48002 24.6001 9.54001 24.4101 9.59001 24.3101C9.89001 24.3801 10.1 24.4101 10.23 24.4101C10.47 24.4101 10.7 24.3401 10.89 24.2001C11.1 24.0501 11.21 23.7801 11.21 23.3901C11.21 23.3301 11.21 23.2201 11.21 23.0601C11.21 22.8901 11.21 22.7501 11.21 22.6401C11.21 22.6101 11.21 22.5601 11.22 22.5201C11.22 22.4801 11.23 22.4501 11.23 22.4401C11.23 22.3901 11.16 22.3701 11.03 22.3701H10.81C10.74 22.3801 10.71 22.4401 10.73 22.5401C10.52 22.4501 10.39 22.4001 10.33 22.4001C10.21 22.4001 10.09 22.4901 9.94002 22.6601C9.72002 22.9201 9.46002 23.3701 9.19002 24.0001C9.14002 23.9701 9.08001 23.9601 9.03001 23.9601C8.96001 23.9601 8.93001 23.9801 8.93001 24.0301C8.93001 24.0801 8.99002 24.1401 9.10002 24.2001C8.93002 24.7201 8.81001 25.2001 8.76001 25.6301C8.76001 25.6701 8.76001 25.7001 8.76001 25.7401C8.76001 25.9201 8.88002 26.0701 9.11002 26.1801C9.34002 26.3801 9.52001 26.4901 9.67001 26.4901C9.98001 26.4901 10.51 26.0001 11.28 25.0201C11.31 24.9801 11.33 24.9501 11.33 24.9101C11.33 24.8501 11.3 24.8201 11.24 24.8201M10.5 22.8201C10.57 22.7701 10.62 22.7501 10.65 22.7501C10.7 22.7501 10.73 22.8101 10.73 22.9301C10.73 23.3601 10.73 23.5701 10.73 23.5701C10.72 23.7601 10.66 23.9001 10.58 23.9801C10.45 24.1101 10.26 24.1601 10.01 24.1501C9.85001 24.1501 9.74001 24.1301 9.68001 24.1201C9.91001 23.5001 10.18 23.0601 10.49 22.8101" fill="white"/>
<path d="M15.85 26.8498C15.56 27.2998 15.32 27.5298 15.14 27.5298C14.92 27.5298 14.61 27.2398 14.2 26.6498C13.79 26.0598 13.44 25.3998 13.15 24.6698C12.78 25.1298 12.52 25.6698 12.37 26.2898C12.33 26.4298 12.29 26.4998 12.25 26.4998C12.23 26.4998 12.19 26.4898 12.14 26.4698C11.88 26.3598 11.75 26.2398 11.75 26.1298C11.75 26.1098 11.77 26.0098 11.81 25.8098C12.17 23.8198 12.64 22.1098 13.22 20.6998C13.65 19.6398 14.04 18.9598 14.39 18.6398C14.48 18.5498 14.56 18.5098 14.65 18.5098C14.74 18.5098 14.85 18.5598 14.99 18.6698C15.15 18.7998 15.3 18.9298 15.46 19.0598C15.5 19.0898 15.53 19.1298 15.53 19.1598C15.53 19.2198 15.49 19.2498 15.42 19.2498C15.39 19.2498 15.35 19.2498 15.32 19.2198C15.18 19.1498 15.07 19.1098 14.99 19.1098C14.79 19.1098 14.58 19.2998 14.34 19.6798C13.5 21.0598 12.89 22.8498 12.52 25.0698C12.59 24.9198 12.77 24.6198 13.03 24.1898C13 24.0798 12.98 24.0198 12.98 23.9998C12.98 23.9298 13.09 23.8698 13.3 23.8298C13.73 23.2098 14.08 22.7898 14.35 22.5798C14.45 22.4998 14.52 22.4698 14.58 22.4698C14.64 22.4698 14.73 22.5498 14.88 22.6998C15.11 22.7898 15.22 22.8998 15.22 23.0398C15.22 23.0798 15.22 23.1398 15.2 23.2098C15.14 23.4698 15.06 23.6998 14.95 23.8998C14.89 23.9998 14.83 24.0598 14.77 24.0598C14.73 24.0598 14.66 24.0398 14.56 24.0098C14.38 23.9498 14.29 23.8798 14.29 23.8198C14.29 23.7798 14.32 23.7498 14.37 23.7298C14.5 23.6198 14.58 23.3898 14.61 23.0598C14.61 22.9798 14.6 22.9398 14.55 22.9398C14.52 22.9398 14.48 22.9598 14.44 22.9898C14.09 23.2398 13.8 23.5998 13.55 24.0798C14.03 25.5498 14.57 26.4698 15.18 26.8398C15.26 26.8798 15.33 26.9098 15.41 26.9098C15.52 26.9098 15.61 26.8798 15.67 26.8098C15.73 26.7398 15.78 26.7098 15.83 26.7098C15.88 26.7098 15.9 26.7298 15.9 26.7798C15.9 26.8098 15.89 26.8398 15.86 26.8798" fill="white"/>
<path d="M18.28 22.9002C18.13 22.6702 17.99 22.5602 17.87 22.5602C17.82 22.5602 17.74 22.5702 17.63 22.6102C17.43 22.6902 17.3 22.7502 17.23 22.7802C16.99 22.5602 16.82 22.4502 16.71 22.4502C16.63 22.4502 16.53 22.5202 16.41 22.6502C16.15 22.9402 15.91 23.4002 15.67 24.0502C15.45 24.6502 15.34 25.1102 15.33 25.4402C15.32 25.7302 15.41 25.9602 15.61 26.1402C15.8 26.3102 16.04 26.4002 16.33 26.4202C16.48 26.4602 16.6 26.4802 16.69 26.4802C16.93 26.4802 17.15 26.3702 17.35 26.1602C17.72 25.7602 18.02 25.1902 18.22 24.4702C18.35 24.0102 18.41 23.6402 18.42 23.3602C18.42 23.1902 18.38 23.0302 18.28 22.8902M17.88 23.5002C17.83 24.0002 17.7 24.5002 17.48 25.0002C17.25 25.5402 17 25.8902 16.74 26.0702C16.6 26.1602 16.47 26.2102 16.36 26.2102C16.06 26.2202 15.91 25.9902 15.91 25.5102C15.91 25.3602 15.92 25.2002 15.96 25.0302C16.01 24.7702 16.1 24.4802 16.22 24.1502C16.38 23.7302 16.55 23.4102 16.72 23.1802C16.75 23.2402 16.77 23.2702 16.8 23.2702C16.81 23.2702 16.86 23.2602 16.95 23.2202L17.68 22.9202C17.73 22.9202 17.77 22.9002 17.81 22.9002C17.89 22.9002 17.93 22.9702 17.93 23.1002C17.93 23.1602 17.93 23.2902 17.9 23.5002" fill="white"/>
<path d="M22.32 24.6806C22.13 24.9706 21.89 25.3806 21.59 25.9206C21.53 26.0606 21.48 26.2006 21.42 26.3406C21.37 26.4406 21.32 26.4906 21.24 26.4906C21.18 26.4906 21.1 26.4706 20.99 26.4206C20.87 26.3706 20.81 26.3206 20.81 26.2706C20.81 26.2506 20.83 26.2006 20.87 26.1206C21.07 25.7106 21.26 25.1906 21.42 24.5706C21.59 23.9206 21.67 23.4206 21.64 23.0806C21.64 22.9406 21.6 22.8706 21.55 22.8706C21.51 22.8706 21.45 22.9106 21.37 22.9906C20.58 23.7606 19.89 24.7906 19.32 26.0906C19.25 26.2506 19.16 26.3306 19.07 26.3306C19 26.3306 18.89 26.2906 18.73 26.2106C18.67 26.1806 18.63 26.1606 18.63 26.1306C18.63 26.1206 18.65 26.0706 18.68 26.0006C18.86 25.6006 19.04 25.1006 19.22 24.4806C19.41 23.8206 19.52 23.3006 19.55 22.9306C19.55 22.8206 19.55 22.7606 19.55 22.7606C19.55 22.7606 19.5 22.8006 19.42 22.8906C19.34 22.9706 19.22 23.0806 19.07 23.2206C19.04 23.2506 19.01 23.2606 18.97 23.2606C18.93 23.2606 18.9 23.2406 18.9 23.2106C18.9 23.1806 18.92 23.1606 18.95 23.1206C19.08 22.9506 19.26 22.7306 19.48 22.4706C19.53 22.4206 19.58 22.3906 19.63 22.3906C19.7 22.3906 19.77 22.4406 19.83 22.5506C20.08 22.6306 20.2 22.7406 20.19 22.9006C20.15 23.2506 19.98 23.8706 19.66 24.7706C19.87 24.3606 20.18 23.9106 20.58 23.4106C20.98 22.9106 21.28 22.6106 21.48 22.5206C21.58 22.4806 21.65 22.4506 21.69 22.4506C21.73 22.4506 21.8 22.4906 21.89 22.5506C22.15 22.6406 22.28 22.7906 22.28 23.0006C22.28 23.2206 22.23 23.5706 22.12 24.0606C22.04 24.4606 21.96 24.7706 21.88 25.0006C21.97 24.8806 22.09 24.7306 22.23 24.5506C22.25 24.5206 22.28 24.5006 22.3 24.5006C22.35 24.5006 22.37 24.5306 22.37 24.5906C22.37 24.6106 22.37 24.6306 22.37 24.6506" fill="white"/>
<path d="M26.11 23.0204C25.15 28.0204 23.89 30.5204 22.35 30.5204C21.79 30.5204 21.19 30.2104 20.55 29.6004C20.49 29.5404 20.46 29.4904 20.46 29.4304C20.46 29.3404 20.5 29.2904 20.59 29.2904C20.63 29.2904 20.68 29.3104 20.72 29.3404C21.23 29.7804 21.69 29.9904 22.09 29.9904C23.38 29.9904 24.46 28.0904 25.32 24.2904C24.8 25.1904 24.34 25.8404 23.95 26.2304C23.79 26.3904 23.65 26.4704 23.53 26.4704C23.42 26.4704 23.28 26.4104 23.11 26.2804C22.81 26.1304 22.6699 25.8904 22.6799 25.5604C22.6999 25.1504 22.86 24.6404 23.16 24.0304C23.45 23.4404 23.76 22.9904 24.07 22.6904C24.25 22.5204 24.41 22.4404 24.56 22.4404C24.67 22.4404 24.78 22.4904 24.91 22.5804C24.93 22.6004 25.0499 22.7104 25.2899 22.9104C25.3399 22.9504 25.36 22.9904 25.36 23.0304C25.36 23.0904 25.32 23.1104 25.25 23.1104C25.2 23.1104 25.15 23.1004 25.09 23.0704C25 23.0204 24.9 23.0004 24.81 23.0004C24.68 23.0004 24.56 23.0504 24.45 23.1404C24.22 23.3404 23.9799 23.6704 23.7299 24.1204C23.4599 24.6204 23.2899 25.0704 23.2299 25.4804C23.2099 25.5904 23.21 25.6904 23.21 25.7704C23.21 26.0004 23.2699 26.1204 23.3999 26.1204C23.4899 26.1204 23.58 26.0804 23.67 25.9904C24.04 25.6704 24.41 25.2104 24.78 24.6004C25.12 24.0404 25.3599 23.5304 25.5099 23.0604C25.5599 22.8904 25.59 22.7404 25.59 22.5804C25.59 22.4604 25.62 22.4004 25.67 22.4004C25.73 22.4004 25.85 22.4704 26.02 22.6004C26.12 22.6804 26.15 22.8204 26.11 23.0204Z" fill="white"/>
<path d="M33.42 20.5804C33.42 21.0704 33.32 21.6104 33.11 22.2204C33.05 22.3804 32.98 22.4704 32.88 22.4704C32.88 22.4704 32.7999 22.4704 32.6199 22.4404C32.4699 22.4204 32.39 22.3704 32.39 22.3004C32.39 22.2704 32.42 22.2304 32.47 22.2004C32.54 22.0804 32.62 21.8504 32.7 21.5204C32.79 21.1404 32.83 20.8304 32.81 20.5904C32.8 20.4104 32.71 20.3204 32.53 20.3204C32.43 20.3204 32.33 20.3604 32.21 20.4504C31.82 20.7404 31.44 21.2704 31.07 22.0304C30.71 22.7704 30.29 23.8804 29.8 25.3504C29.73 25.5704 29.61 25.7004 29.45 25.7504C30.28 25.7504 31.16 25.8004 32.08 25.9004C32.22 25.9104 32.31 25.9004 32.35 25.8804C32.36 25.8704 32.4 25.7904 32.47 25.6604C32.51 25.5804 32.55 25.5404 32.59 25.5404C32.63 25.5404 32.67 25.5704 32.7 25.6404C32.83 25.9004 32.8999 26.0804 32.8999 26.1904C32.8999 26.2804 32.84 26.3804 32.72 26.4904C32.58 26.6104 32.48 26.6704 32.41 26.6704C32.36 26.6704 32.27 26.6504 32.16 26.6204C31.43 26.4204 30.6199 26.3104 29.7299 26.3104C29.4899 26.3104 29.25 26.3104 29.02 26.3404C28.86 26.3504 28.77 26.3704 28.74 26.3904L28.6499 26.5404C28.5699 26.6804 28.47 26.7504 28.36 26.7504C28.29 26.7504 28.24 26.7204 28.22 26.6504C28.13 26.3904 28.08 26.2204 28.08 26.1504C28.08 25.9104 28.42 25.7804 29.1 25.7504C29.63 23.8804 30.1899 22.4004 30.7899 21.3104C31.2999 20.3804 31.73 19.8904 32.09 19.8404C32.19 19.8204 32.4499 19.9204 32.8699 20.1204C32.9699 20.1204 33.05 20.1204 33.11 20.1204C33.25 20.1204 33.3399 20.1504 33.3699 20.2104C33.3899 20.2604 33.41 20.3904 33.41 20.6004" fill="white"/>
<path d="M36.28 22.9002C36.13 22.6702 35.9899 22.5602 35.8699 22.5602C35.8199 22.5602 35.74 22.5702 35.63 22.6102C35.43 22.6902 35.2999 22.7502 35.2299 22.7802C34.9899 22.5602 34.82 22.4502 34.71 22.4502C34.63 22.4502 34.53 22.5202 34.41 22.6502C34.15 22.9402 33.91 23.4002 33.67 24.0502C33.45 24.6502 33.34 25.1102 33.33 25.4402C33.33 25.7302 33.41 25.9602 33.61 26.1402C33.8 26.3102 34.04 26.4002 34.33 26.4202C34.48 26.4602 34.6 26.4802 34.69 26.4802C34.93 26.4802 35.15 26.3702 35.35 26.1602C35.72 25.7602 36.02 25.1902 36.22 24.4702C36.35 24.0102 36.41 23.6402 36.42 23.3602C36.42 23.1902 36.38 23.0302 36.28 22.8902M35.88 23.5002C35.83 24.0002 35.7 24.5002 35.47 25.0002C35.24 25.5402 34.9999 25.8902 34.7299 26.0702C34.5899 26.1602 34.46 26.2102 34.35 26.2102C34.05 26.2202 33.8999 25.9902 33.8999 25.5102C33.8999 25.3602 33.92 25.2002 33.95 25.0302C34 24.7702 34.08 24.4802 34.21 24.1502C34.37 23.7302 34.54 23.4102 34.71 23.1802C34.74 23.2402 34.7599 23.2702 34.7899 23.2702C34.7999 23.2702 34.85 23.2602 34.94 23.2202L35.67 22.9202C35.72 22.9202 35.76 22.9002 35.8 22.9002C35.88 22.9002 35.92 22.9702 35.92 23.1002C35.92 23.1602 35.91 23.2902 35.89 23.5002" fill="white"/>
<path d="M42.57 19.0402C42.57 19.0402 42.63 19.1002 42.63 19.1402C42.63 19.2002 42.59 19.2302 42.52 19.2302C42.49 19.2302 42.46 19.2302 42.43 19.2102C42.28 19.1402 42.17 19.1002 42.1 19.1002C41.9 19.1002 41.69 19.2902 41.45 19.6702C40.59 21.0802 39.96 22.9602 39.56 25.3002C39.64 25.2202 39.75 25.1002 39.89 24.9302C39.97 24.8302 40.03 24.7802 40.07 24.7802C40.16 24.7802 40.16 24.8302 40.09 24.9302C39.79 25.3502 39.59 25.8002 39.49 26.2802C39.45 26.4002 39.41 26.4502 39.35 26.4502C39.32 26.4502 39.29 26.4402 39.25 26.4102C39.09 26.3002 39.01 26.2402 38.99 26.2202C38.93 26.1602 38.9 26.0802 38.9 25.9802C38.9 25.9302 38.9 25.8602 38.92 25.7902C39.06 25.0702 39.17 24.5302 39.25 24.1702C38.94 24.6102 38.59 25.0502 38.21 25.5002C37.82 25.9402 37.54 26.2202 37.36 26.3302C37.23 26.4202 37.13 26.4702 37.06 26.4702C37 26.4702 36.92 26.4202 36.8 26.3302C36.6 26.2002 36.49 26.0602 36.49 25.8902C36.49 25.8602 36.49 25.8302 36.49 25.8002C36.56 25.3302 36.77 24.7902 37.12 24.1702C37.47 23.5502 37.88 23.0302 38.33 22.6102C38.48 22.4702 38.61 22.4002 38.73 22.4102C38.85 22.4102 39.07 22.5602 39.39 22.8602C39.42 22.8902 39.43 22.9102 39.43 22.9402C39.43 22.9902 39.4 23.0202 39.33 23.0202C39.31 23.0202 39.29 23.0202 39.26 23.0102C39.04 22.9202 38.86 22.9202 38.72 23.0102C38.42 23.2302 38.1 23.6102 37.75 24.1502C37.34 24.7802 37.1 25.3402 37.02 25.8502C37 25.9702 37.04 26.0302 37.11 26.0302C37.21 26.0302 37.34 25.9602 37.49 25.8102C37.84 25.4702 38.21 25.0402 38.62 24.5202C39.03 23.9802 39.3 23.5802 39.41 23.3002C39.48 23.1502 39.53 23.0102 39.57 22.8702C39.9 21.7102 40.26 20.7302 40.66 19.9102C40.97 19.2702 41.25 18.8402 41.49 18.6202C41.58 18.5402 41.66 18.4902 41.74 18.4902C41.83 18.4902 41.94 18.5402 42.08 18.6502C42.24 18.7802 42.39 18.9102 42.56 19.0402" fill="white"/>
<path d="M43.94 23.0204C42.98 28.0204 41.72 30.5204 40.18 30.5204C39.62 30.5204 39.0201 30.2104 38.3801 29.6004C38.3201 29.5404 38.29 29.4904 38.29 29.4304C38.29 29.3404 38.33 29.2904 38.42 29.2904C38.46 29.2904 38.51 29.3104 38.55 29.3404C39.06 29.7804 39.52 29.9904 39.92 29.9904C41.21 29.9904 42.29 28.0904 43.16 24.2904C42.64 25.1904 42.18 25.8404 41.79 26.2304C41.63 26.3904 41.49 26.4704 41.37 26.4704C41.26 26.4704 41.12 26.4104 40.95 26.2804C40.65 26.1304 40.5101 25.8904 40.5201 25.5604C40.5401 25.1504 40.7 24.6404 41 24.0304C41.29 23.4404 41.6 22.9904 41.91 22.6904C42.09 22.5204 42.25 22.4404 42.4 22.4404C42.51 22.4404 42.62 22.4904 42.75 22.5804C42.77 22.6004 42.8901 22.7104 43.1301 22.9104C43.1801 22.9504 43.2 22.9904 43.2 23.0304C43.2 23.0904 43.16 23.1104 43.09 23.1104C43.04 23.1104 42.99 23.1004 42.93 23.0704C42.84 23.0204 42.74 23.0004 42.65 23.0004C42.52 23.0004 42.4 23.0504 42.29 23.1404C42.06 23.3404 41.8201 23.6704 41.5701 24.1204C41.3001 24.6204 41.1301 25.0704 41.0701 25.4804C41.0601 25.5904 41.05 25.6904 41.05 25.7704C41.05 26.0004 41.1101 26.1204 41.2401 26.1204C41.3301 26.1204 41.41 26.0804 41.51 25.9904C41.88 25.6704 42.25 25.2104 42.62 24.6004C42.96 24.0404 43.2101 23.5304 43.3501 23.0604C43.4001 22.8904 43.43 22.7404 43.43 22.5804C43.43 22.4604 43.4601 22.4004 43.5201 22.4004C43.5801 22.4004 43.69 22.4704 43.87 22.6004C43.97 22.6804 44.0001 22.8204 43.9601 23.0204" fill="white"/>
<path d="M46.8301 25.0106C46.0701 25.9906 45.5301 26.4706 45.2201 26.4706C45.0701 26.4706 44.8901 26.3706 44.6601 26.1606C44.4201 26.0506 44.3101 25.9006 44.3101 25.7206C44.3101 25.6806 44.3101 25.6506 44.3101 25.6106C44.3701 25.1806 44.4801 24.7106 44.6501 24.1806C44.5301 24.1206 44.4801 24.0606 44.4801 24.0106C44.4801 23.9706 44.5101 23.9406 44.5801 23.9406C44.6301 23.9406 44.6801 23.9506 44.7401 23.9806C45.0201 23.3506 45.2701 22.9106 45.4901 22.6406C45.6301 22.4606 45.7601 22.3806 45.8801 22.3806C45.9301 22.3806 46.0701 22.4206 46.2801 22.5206C46.2701 22.4306 46.2901 22.3706 46.3601 22.3506H46.5801C46.7101 22.3506 46.7801 22.3706 46.7801 22.4206C46.7801 22.4206 46.7801 22.4606 46.7701 22.5006C46.7701 22.5406 46.7601 22.5906 46.7601 22.6206C46.7601 22.7306 46.7601 22.8706 46.7601 23.0406C46.7601 23.2106 46.7601 23.3206 46.7601 23.3706C46.7601 23.7606 46.6501 24.0306 46.4401 24.1806C46.2501 24.3206 46.0301 24.3906 45.7801 24.3906C45.6501 24.3906 45.4401 24.3606 45.1401 24.2906C45.0901 24.3906 45.0301 24.5806 44.9601 24.8606C44.8701 25.2206 44.8301 25.5406 44.8401 25.8106C44.8401 25.9706 44.9001 26.0606 45.0001 26.0606C45.0401 26.0606 45.0901 26.0606 45.1501 26.0306C45.5101 25.9006 46.0201 25.5106 46.6701 24.8506C46.7101 24.8106 46.7501 24.7906 46.7901 24.7906C46.8501 24.7906 46.8801 24.8206 46.8801 24.8706C46.8801 24.9006 46.8601 24.9406 46.8301 24.9806M46.2801 22.9006C46.2801 22.7806 46.2501 22.7206 46.2001 22.7206C46.1701 22.7206 46.1201 22.7506 46.0501 22.7906C45.7401 23.0406 45.4701 23.4706 45.2401 24.0906C45.3001 24.0906 45.4101 24.1106 45.5701 24.1206C45.8201 24.1206 46.0101 24.0706 46.1401 23.9506C46.2301 23.8606 46.2901 23.7006 46.3001 23.4806C46.3001 23.6406 46.2901 23.4506 46.2901 22.8906" fill="white"/>
<path d="M32.15 9.09957C32.15 9.36957 32.14 9.62957 32.11 9.88957C32.11 9.96957 32.1 10.0396 32.09 10.1096C32.05 10.4496 31.98 10.7796 31.89 11.1096L31.78 11.4996C31.67 11.8396 31.54 12.1696 31.38 12.4996C30.13 15.1096 27.47 16.9096 24.4 16.9096C23.44 16.9096 22.53 16.7396 21.68 16.4096C20.98 16.1496 20.33 15.7896 19.74 15.3396C18.78 14.6196 18 13.6796 17.46 12.5996C17.4 12.4796 17.34 12.3496 17.28 12.2296C17.15 11.9296 17.04 11.6196 16.94 11.2996C16.92 11.2396 16.91 11.1696 16.89 11.1096C16.81 10.8196 16.75 10.5296 16.71 10.2296C16.71 10.1396 16.69 10.0496 16.68 9.95957C16.65 9.67957 16.64 9.39957 16.64 9.10957C16.64 8.58957 16.69 8.07957 16.79 7.57957C16.87 7.18957 16.97 6.80957 17.11 6.44957C17.37 5.71957 17.74 5.04957 18.19 4.43957C19.13 3.17957 20.44 2.21957 21.96 1.70957C22.42 1.54957 22.9 1.43957 23.4 1.37957C23.73 1.33957 24.06 1.30957 24.41 1.30957C28.69 1.30957 32.16 4.79957 32.16 9.10957" fill="white"/>
<path d="M31.3801 12.4897C30.1301 15.0997 27.4701 16.8997 24.4001 16.8997C23.4401 16.8997 22.5301 16.7297 21.6801 16.3997C20.9801 16.1397 20.3301 15.7797 19.7401 15.3297C18.7801 14.6097 18.0001 13.6697 17.4601 12.5897C17.4001 12.4697 17.3401 12.3397 17.2801 12.2197C17.1501 11.9197 17.0401 11.6097 16.9401 11.2897C16.9201 11.2297 16.9101 11.1597 16.8901 11.0997C16.8101 10.8097 16.7501 10.5197 16.7101 10.2197C16.7901 10.2797 17.0001 10.5997 17.3601 10.9697C17.4101 11.0297 17.4701 11.0797 17.5301 11.1397C17.8101 11.4097 18.1601 11.6797 18.5901 11.9097C18.7901 12.0197 19.0001 12.1097 19.2401 12.1797C19.5401 12.2797 19.8701 12.3497 20.2301 12.3797C20.3101 12.3897 20.3801 12.3897 20.4601 12.3897C20.7701 12.3897 21.0601 12.3997 21.3301 12.3997C21.5401 12.3997 21.7401 12.3997 21.9301 12.3897C22.5801 12.3697 23.1501 12.3297 23.6701 12.2797C25.9801 12.0597 27.0201 11.7797 27.3701 13.5297C27.6901 15.1597 31.3601 11.8697 31.3801 12.4897Z" fill="#F1F2F2"/>
<path d="M32.11 9.87987C32.11 9.95987 32.1 10.0299 32.09 10.0999C31.68 9.77987 31.09 9.57987 30.39 9.45987C30.32 9.44987 30.25 9.43987 30.19 9.42987C29.45 9.31987 28.58 9.29987 27.66 9.34987C27.56 9.34987 27.46 9.34987 27.36 9.35987C25.97 9.43987 24.46 9.64987 23.03 9.90987C22.44 10.0099 21.86 10.1199 21.32 10.2399C21.09 10.2899 20.87 10.3299 20.65 10.3799C20.57 10.3999 20.48 10.4199 20.4 10.4299C19.19 10.6999 18.17 10.9599 17.54 11.1299C17.27 11.1999 17.07 11.2499 16.96 11.2899C16.94 11.2299 16.93 11.1599 16.91 11.0999C17.01 11.0699 17.17 11.0199 17.38 10.9699C18.02 10.7999 19.11 10.5099 20.42 10.2199C20.49 10.2099 20.55 10.1899 20.62 10.1799C20.85 10.1299 21.09 10.0799 21.33 10.0299C21.82 9.92987 22.33 9.82987 22.85 9.72987C24.32 9.45987 25.87 9.23987 27.32 9.15987C27.42 9.15987 27.52 9.15987 27.62 9.14987C28.56 9.10987 29.43 9.12987 30.19 9.23987C30.26 9.23987 30.33 9.25987 30.39 9.26987C31.09 9.38987 31.69 9.58987 32.12 9.88987" fill="#00833B"/>
<path d="M31.89 11.1098C31.41 11.0098 30.91 10.9398 30.39 10.8798C30.33 10.8798 30.26 10.8698 30.19 10.8598C29.46 10.7898 28.7 10.7598 27.95 10.7598C27.85 10.7598 27.74 10.7598 27.64 10.7598C26.24 10.7698 24.83 10.8898 23.5201 11.0598C22.7401 11.1498 22.0001 11.2598 21.3201 11.3898C21.1701 11.4098 21.03 11.4298 20.9 11.4598C20.7 11.4898 20.5101 11.5298 20.3201 11.5598C19.6601 11.6898 19.08 11.8098 18.61 11.9098C17.94 12.0598 17.47 12.1798 17.3 12.2298C17.36 12.3598 17.42 12.4798 17.48 12.5998C17.74 12.5298 18.38 12.3698 19.26 12.1798C19.57 12.1098 19.92 12.0398 20.29 11.9698C20.53 11.9198 20.79 11.8798 21.05 11.8298C21.14 11.8198 21.24 11.7998 21.34 11.7798C21.5 11.7498 21.66 11.7198 21.83 11.6998C21.87 11.6998 21.9 11.6898 21.94 11.6798C22.44 11.5998 22.96 11.5198 23.51 11.4598C24.85 11.2898 26.31 11.1698 27.75 11.1498C27.85 11.1498 27.95 11.1498 28.06 11.1498C28.79 11.1498 29.52 11.1798 30.23 11.2598C30.3 11.2598 30.36 11.2698 30.43 11.2798C30.9 11.3298 31.36 11.4098 31.81 11.4998L31.92 11.1098H31.89Z" fill="#00833B"/>
<path d="M27.4733 8.55194L27.1801 8.61523L27.8025 11.4988L28.0957 11.4355L27.4733 8.55194Z" fill="#00833B"/>
<path d="M30.3761 9.05378L30.1761 9.05566L30.1993 11.5156L30.3993 11.5137L30.3761 9.05378Z" fill="#00833B"/>
<path d="M13.12 3.81001C13.12 3.81001 18.48 2.79001 20.45 6.66001C20.61 6.98001 20.84 7.73001 20.84 7.73001C20.84 7.73001 19.95 7.67001 19.65 6.85001L19.29 7.23001C19.29 7.23001 18.75 7.15001 18.08 6.64001C18.08 6.64001 18.17 6.31001 18.24 5.76001C18.24 5.76001 17.7 6.11001 17.66 6.62001C17.66 6.62001 16.29 6.18001 16.02 5.94001C16.02 5.94001 15.71 5.59001 15.92 5.51001C15.92 5.51001 16.16 5.35001 16.38 4.87001C16.38 4.87001 15.58 5.38001 15.42 5.32001C14.26 4.91001 13.79 4.24001 13.13 3.81001" fill="#00833B"/>
<path d="M21.54 7.36C21.54 7.36 21.88 6.23 22.15 5.69C22.15 5.69 21.92 5.55 21.53 5.1C21.53 5.1 22.11 5.07 22.53 5.08C22.53 5.08 22.89 4.02 22.9 3.67C22.9 3.67 23.16 3.13 22.95 3.23C22.95 3.23 22.15 3.15 21.66 2.97C21.66 2.97 23.14 2.9 23.17 2.72C23.33 1.46 23.52 0.79 23.67 0C23.67 0 19.24 3.23 20.65 7.34C20.77 7.68 21.15 8.36 21.15 8.36L21.55 7.36H21.54Z" fill="#00833B"/>
<path d="M20.88 8.0896C20.88 8.0896 22.88 5.3396 28.18 6.0996C28.18 6.0996 27.66 6.2996 27.04 6.7196C26.42 7.1396 25.82 7.1596 25.48 7.3196C25.48 7.3196 25.11 6.1396 25.05 6.4996C25.05 6.4996 25.4 7.2796 25.17 7.4696C25.17 7.4696 25.12 7.8696 24.35 8.0396L23.75 7.2296C23.75 7.2296 23.78 7.9896 23.93 8.0596C23.93 8.0596 23.99 8.5296 22.33 8.7296L22.08 7.9396V8.5896C22.08 8.5896 21.44 8.7196 21.23 8.7996C21.02 8.8796 20.88 8.0896 20.88 8.0896Z" fill="#00833B"/>
<path d="M20.9101 7.65046C20.9101 7.65046 17.9 5.25046 12.62 10.5505C12.62 10.5505 12.46 10.9005 12.53 11.0505C12.6 11.2005 13.7401 10.7505 14.1001 10.8105C14.4501 10.8605 14.0601 9.29046 14.5201 9.17046C14.5201 9.17046 14.43 10.4305 14.67 10.6305C14.91 10.8205 16.07 10.0905 16.17 10.1705C16.17 10.1705 15.85 9.39046 15.7 8.70046C15.55 8.00046 15.78 8.56046 15.78 8.56046C15.78 8.56046 16.25 9.96046 16.64 9.98046C16.64 9.98046 18.04 9.40046 18.18 9.48046L17.65 8.51046C17.65 8.51046 18.25 8.58046 18.51 9.21046C18.51 9.21046 19.4701 9.19046 19.4701 8.97046C19.4701 8.97046 19.44 8.10046 19.26 8.16046C19.26 8.16046 19.77 8.51046 19.87 8.77046C19.87 8.77046 19.98 8.74046 20.36 8.83046C20.75 8.92046 20.9 7.66046 20.9 7.66046" fill="#00833B"/>
<path d="M20.45 8.11972C20.45 8.11972 20.54 12.0697 19.63 15.8097C19.63 15.8097 19.89 16.9297 21.72 16.5397C21.72 16.5397 21.18 15.2397 21.34 8.24972C21.34 8.24972 20.87 7.27972 20.46 8.11972" fill="#00833B"/>
<path d="M21.1501 8.29981C21.1501 8.29981 22.6801 8.96981 22.6901 9.19981C22.6901 9.19981 22.8201 9.37981 22.6101 9.60981C22.6101 9.60981 23.2501 9.82981 23.1701 10.5698C23.1701 10.5698 23.8101 11.0698 23.3501 11.3498C23.3501 11.3498 23.9001 11.7098 23.5701 12.1698C23.5701 12.1698 24.0401 12.6698 23.8001 13.2198C23.8001 13.2198 23.9301 13.6298 23.6001 13.9598C23.6001 13.9598 23.2601 13.8298 23.2601 13.5998C23.2601 13.5998 23.3101 13.8298 22.8801 13.9298C22.8801 13.9298 22.9201 13.6998 22.7001 13.4698C22.7001 13.4698 22.7901 13.6498 22.3201 13.4698C22.3201 13.4698 22.4401 13.0998 22.2701 13.1898C22.2701 13.1898 22.3601 13.4198 21.8001 13.0598C21.8001 13.0598 22.0801 12.0498 21.8701 11.4998C21.8701 11.4998 21.6701 12.3698 21.2401 12.1498C20.8101 11.9298 19.9601 8.22981 21.1501 8.29981Z" fill="#00833B"/>
</svg>
